<svg version="1.1" xmlns="http://www.w3.org/2000/svg" xmlns:xlink="http://www.w3.org/1999/xlink" stroke-linecap="round" stroke-linejoin="round" stroke-width="0" fill-rule="evenodd" clip-rule="evenodd" id="gBYkD8xLMYlWk6MH-HrE_bottom" viewBox="393.701 393.701 3937.008 984.252" width="3.9370079999999996in" height="0.9842519999999999in" class="w-100 h-100"><defs><style>.gBYkD8xLMYlWk6MH-HrE_fr4 {color: #666666;}
.gBYkD8xLMYlWk6MH-HrE_cu {color: #cccccc;}
.gBYkD8xLMYlWk6MH-HrE_cf {color: #cc9933;}
.gBYkD8xLMYlWk6MH-HrE_sm {color: #004200; opacity: 0.75;}
.gBYkD8xLMYlWk6MH-HrE_ss {color: #ffffff;}
.gBYkD8xLMYlWk6MH-HrE_sp {color: #999999;}
.gBYkD8xLMYlWk6MH-HrE_out {color: #000000;}</style><circle cx="0" cy="0" r="59.055" id="cq_gMHqWBu4A_gVtmZ7X_pad-37"/><circle cx="0" cy="0" r="43.937" id="cq_gMHqWBu4A_gVtmZ7X_pad-41"/><circle cx="0" cy="0" r="20" id="u_TKzTlUzIYc0hwLWJdC_pad-35"/><circle cx="0" cy="0" r="40" id="u_TKzTlUzIYc0hwLWJdC_pad-34"/><circle cx="0" cy="0" r="9.55" id="UKAtd4igKmoA9jsS6rAi_pad-1"/><circle cx="0" cy="0" r="20" id="UKAtd4igKmoA9jsS6rAi_pad-2"/><circle cx="0" cy="0" r="59.05" id="UKAtd4igKmoA9jsS6rAi_pad-3"/><g id="gBYkD8xLMYlWk6MH-HrE_bottom_soldermask"><use xlink:href="#cq_gMHqWBu4A_gVtmZ7X_pad-37" x="511.811" y="511.811"/><use xlink:href="#cq_gMHqWBu4A_gVtmZ7X_pad-37" x="511.811" y="1259.843"/><use xlink:href="#cq_gMHqWBu4A_gVtmZ7X_pad-37" x="4212.598" y="1259.843"/><use xlink:href="#cq_gMHqWBu4A_gVtmZ7X_pad-37" x="4212.598" y="511.811"/><use xlink:href="#cq_gMHqWBu4A_gVtmZ7X_pad-41" x="3937.008" y="984.215"/><use xlink:href="#cq_gMHqWBu4A_gVtmZ7X_pad-41" x="3937.008" y="787.364"/><use xlink:href="#cq_gMHqWBu4A_gVtmZ7X_pad-41" x="3740.157" y="787.364"/><use xlink:href="#cq_gMHqWBu4A_gVtmZ7X_pad-41" x="3740.157" y="984.215"/><use xlink:href="#cq_gMHqWBu4A_gVtmZ7X_pad-41" x="2952.756" y="984.215"/><use xlink:href="#cq_gMHqWBu4A_gVtmZ7X_pad-41" x="2952.756" y="787.364"/><use xlink:href="#cq_gMHqWBu4A_gVtmZ7X_pad-41" x="2755.906" y="787.364"/><use xlink:href="#cq_gMHqWBu4A_gVtmZ7X_pad-41" x="2755.906" y="984.215"/><use xlink:href="#cq_gMHqWBu4A_gVtmZ7X_pad-41" x="1968.504" y="984.215"/><use xlink:href="#cq_gMHqWBu4A_gVtmZ7X_pad-41" x="1968.504" y="787.364"/><use xlink:href="#cq_gMHqWBu4A_gVtmZ7X_pad-41" x="1771.654" y="787.364"/><use xlink:href="#cq_gMHqWBu4A_gVtmZ7X_pad-41" x="1771.654" y="984.215"/><use xlink:href="#cq_gMHqWBu4A_gVtmZ7X_pad-41" x="984.252" y="984.215"/><use xlink:href="#cq_gMHqWBu4A_gVtmZ7X_pad-41" x="984.252" y="787.364"/><use xlink:href="#cq_gMHqWBu4A_gVtmZ7X_pad-41" x="787.402" y="787.364"/><use xlink:href="#cq_gMHqWBu4A_gVtmZ7X_pad-41" x="787.402" y="984.215"/></g><g id="gBYkD8xLMYlWk6MH-HrE_bottom_silkscreen"><path d="M 3951.115 735.773 3726.05 735.773 M 3951.115 735.773 A 187.7486561 187.7486561 0 1 1 3726.05 735.773 M 2966.863 735.773 2741.798 735.773 M 2966.863 735.773 A 187.7486561 187.7486561 0 1 1 2741.798 735.773 M 1982.611 735.773 1757.546 735.773 M 1982.611 735.773 A 187.7486561 187.7486561 0 1 1 1757.546 735.773 M 998.359 735.773 773.294 735.773 M 998.359 735.773 A 187.7486561 187.7486561 0 1 1 773.294 735.773" fill="none" stroke-width="9.843"/></g><g id="gBYkD8xLMYlWk6MH-HrE_bottom_copper"><path d="M 2755.906 984.241 2755.906 787.391 M 1771.654 984.241 1771.654 787.391" fill="none" stroke-width="12"/><path d="M 1443.701 1035.827 1510.827 1035.827 1618.701 1143.701 1968.504 1143.701 2952.756 1143.701 3777.554 1143.701 3937.008 984.247 M 2952.756 787.396 2952.756 984.247 2952.756 1143.701 M 1968.504 787.396 1968.504 984.247 1968.504 1143.701" fill="none" stroke-width="22"/><use xlink:href="#u_TKzTlUzIYc0hwLWJdC_pad-35" x="1443.701" y="1035.827"/><path d="M 644.94 1313.025 4079.474 1313.025 M 644.94 1288.156 4079.474 1288.156 M 644.94 1263.287 4079.474 1263.287 M 644.94 1238.419 4079.474 1238.419 M 644.94 1213.55 4079.474 1213.55 M 644.94 1188.681 4079.474 1188.681 M 644.94 1163.812 1583.299 1163.812 M 3812.975 1163.812 4079.474 1163.812 M 644.94 1138.944 1558.43 1138.944 M 3837.843 1138.944 4079.474 1138.944 M 644.94 1114.075 1533.563 1114.075 M 3862.71 1114.075 4079.474 1114.075 M 644.94 1089.206 1508.696 1089.206 M 1619.734 1089.206 1928.504 1089.206 M 2008.503 1089.206 2912.772 1089.206 M 2992.734 1089.206 3776.541 1089.206 M 3887.577 1089.206 4079.474 1089.206 M 644.94 1064.337 1404.488 1064.337 M 1594.865 1064.337 1928.504 1064.337 M 2008.503 1064.337 2912.772 1064.337 M 2992.734 1064.337 3801.408 1064.337 M 3912.446 1064.337 4079.474 1064.337 M 644.94 1039.469 747.879 1039.469 M 826.908 1039.469 944.739 1039.469 M 1023.769 1039.469 1394.835 1039.469 M 1569.997 1039.469 1732.146 1039.469 M 1811.176 1039.469 1928.504 1039.469 M 2008.503 1039.469 2716.413 1039.469 M 2795.407 1039.469 2912.772 1039.469 M 2992.734 1039.469 3700.644 1039.469 M 3779.675 1039.469 3826.276 1039.469 M 3976.499 1039.469 4079.474 1039.469 M 644.94 1014.6 725.739 1014.6 M 849.049 1014.6 922.598 1014.6 M 1045.909 1014.6 1399.823 1014.6 M 1545.13 1014.6 1710.005 1014.6 M 1833.316 1014.6 1906.866 1014.6 M 2030.14 1014.6 2694.273 1014.6 M 2817.547 1014.6 2891.097 1014.6 M 3014.408 1014.6 3678.504 1014.6 M 3801.815 1014.6 3851.143 1014.6 M 3998.639 1014.6 4079.474 1014.6 M 644.94 989.731 718.634 989.731 M 856.154 989.731 915.493 989.731 M 1053.014 989.731 1435.133 989.731 M 1452.264 989.731 1702.9 989.731 M 1840.421 989.731 1899.726 989.731 M 2037.282 989.731 2687.133 989.731 M 2824.652 989.731 2883.992 989.731 M 3021.513 989.731 3671.399 989.731 M 3808.92 989.731 3868.26 989.731 M 4005.781 989.731 4079.474 989.731 M 644.94 964.862 721.289 964.862 M 853.499 964.862 918.15 964.862 M 1050.358 964.862 1705.556 964.862 M 1837.765 964.862 1902.381 964.862 M 2034.626 964.862 2689.787 964.862 M 2822.033 964.862 2886.648 964.862 M 3018.857 964.862 3674.055 964.862 M 3806.264 964.862 3870.916 964.862 M 4003.125 964.862 4079.474 964.862 M 644.94 939.993 735.248 939.993 M 839.539 939.993 932.108 939.993 M 1036.4 939.993 1719.514 939.993 M 1823.807 939.993 1916.375 939.993 M 2020.667 939.993 2703.747 939.993 M 2808.038 939.993 2900.608 939.993 M 3004.899 939.993 3688.013 939.993 M 3792.306 939.993 3884.874 939.993 M 3989.165 939.993 4079.474 939.993 M 644.94 915.125 1736.668 915.125 M 1806.654 915.125 1928.504 915.125 M 2008.503 915.125 2720.899 915.125 M 2790.886 915.125 2912.772 915.125 M 2992.734 915.125 4079.474 915.125 M 644.94 890.256 1736.668 890.256 M 1806.654 890.256 1928.504 890.256 M 2008.503 890.256 2720.899 890.256 M 2790.886 890.256 2912.772 890.256 M 2992.734 890.256 4079.474 890.256 M 644.94 865.387 1736.668 865.387 M 1806.654 865.387 1928.504 865.387 M 2008.503 865.387 2720.899 865.387 M 2790.886 865.387 2912.772 865.387 M 2992.734 865.387 4079.474 865.387 M 644.94 840.518 744.936 840.518 M 829.85 840.518 941.797 840.518 M 1026.711 840.518 1729.203 840.518 M 1814.118 840.518 1926.029 840.518 M 2010.979 840.518 2713.436 840.518 M 2798.385 840.518 2910.295 840.518 M 2995.21 840.518 3697.702 840.518 M 3782.617 840.518 3894.563 840.518 M 3979.478 840.518 4079.474 840.518 M 644.94 815.65 724.734 815.65 M 850.089 815.65 921.558 815.65 M 1046.95 815.65 1708.965 815.65 M 1834.32 815.65 1905.825 815.65 M 2031.181 815.65 2693.232 815.65 M 2818.588 815.65 2890.058 815.65 M 3015.449 815.65 3677.463 815.65 M 3802.856 815.65 3874.324 815.65 M 3999.68 815.65 4079.474 815.65 M 644.94 790.781 718.49 790.781 M 856.297 790.781 915.35 790.781 M 1053.157 790.781 1702.757 790.781 M 1840.564 790.781 1899.581 790.781 M 2037.425 790.781 2686.988 790.781 M 2824.795 790.781 2883.849 790.781 M 3021.656 790.781 3671.256 790.781 M 3809.063 790.781 3868.117 790.781 M 4005.924 790.781 4079.474 790.781 M 644.94 765.912 721.97 765.912 M 852.852 765.912 918.831 765.912 M 1049.677 765.912 1706.238 765.912 M 1837.084 765.912 1903.063 765.912 M 2033.945 765.912 2690.47 765.912 M 2821.35 765.912 2887.329 765.912 M 3018.176 765.912 3674.736 765.912 M 3805.583 765.912 3871.562 765.912 M 4002.444 765.912 4079.474 765.912 M 644.94 741.043 737.222 741.043 M 837.601 741.043 934.046 741.043 M 1034.462 741.043 1721.453 741.043 M 1821.833 741.043 1918.314 741.043 M 2018.693 741.043 2705.72 741.043 M 2806.1 741.043 2902.58 741.043 M 3002.961 741.043 3689.951 741.043 M 3790.367 741.043 3886.812 741.043 M 3987.193 741.043 4079.474 741.043 M 644.94 716.175 4079.474 716.175 M 644.94 691.306 4079.474 691.306 M 644.94 666.437 4079.474 666.437 M 644.94 641.568 4079.474 641.568 M 644.94 616.699 4079.474 616.699 M 644.94 591.831 4079.474 591.831 M 644.94 566.962 4079.474 566.962 M 644.94 542.093 4079.474 542.093 M 644.94 517.224 4079.474 517.224 M 644.94 492.356 4079.474 492.356 M 644.94 467.487 4079.474 467.487 M 644.94 442.618 4079.474 442.618 M 4003.295 979.008 4001.663 968.703 3998.438 958.78 3993.702 949.483 3987.568 941.042 3980.192 933.664 3971.749 927.531 3962.453 922.795 3952.53 919.571 3942.224 917.938 3931.791 917.938 3921.486 919.571 3911.563 922.795 3902.266 927.531 3893.824 933.664 3886.448 941.042 3880.314 949.483 3875.577 958.78 3872.353 968.703 3870.72 979.008 3870.72 989.442 3871.713 996.528 3762.034 1106.198 2990.219 1106.209 2990.248 1039.171 2995.94 1034.786 3003.316 1027.408 3009.45 1018.967 3014.186 1009.671 3017.411 999.748 3019.043 989.442 3019.043 979.008 3017.411 968.703 3014.186 958.78 3009.45 949.483 3003.316 941.042 2995.94 933.664 2990.262 929.378 2990.248 842.324 2995.94 837.936 3003.316 830.558 3009.45 822.117 3014.186 812.82 3017.411 802.898 3019.043 792.592 3019.043 782.157 3017.411 771.853 3014.186 761.929 3009.45 752.633 3003.316 744.192 2995.94 736.814 2987.497 730.681 2978.201 725.945 2968.278 722.72 2957.972 721.088 2947.539 721.088 2937.234 722.72 2927.311 725.945 2918.014 730.681 2909.572 736.814 2902.196 744.192 2896.062 752.633 2891.325 761.929 2888.101 771.853 2886.469 782.157 2886.469 792.592 2888.101 802.898 2891.325 812.82 2896.062 822.117 2902.196 830.558 2909.572 837.936 2915.249 842.222 2915.264 929.319 2909.572 933.664 2902.196 941.042 2896.062 949.483 2891.325 958.78 2888.101 968.703 2886.469 979.008 2886.469 989.442 2888.101 999.748 2891.325 1009.671 2896.062 1018.967 2902.196 1027.408 2909.572 1034.786 2915.249 1039.072 2915.264 1106.217 2006.024 1106.209 2005.996 1039.171 2011.688 1034.786 2019.064 1027.408 2025.198 1018.967 2029.934 1009.671 2033.159 999.748 2034.791 989.442 2034.791 979.008 2033.159 968.703 2029.934 958.78 2025.198 949.483 2019.064 941.042 2011.688 933.664 2006.01 929.378 2005.996 842.324 2011.688 837.936 2019.064 830.558 2025.198 822.117 2029.934 812.82 2033.159 802.898 2034.791 792.592 2034.791 782.157 2033.159 771.853 2029.934 761.929 2025.198 752.633 2019.064 744.192 2011.688 736.814 2003.245 730.681 1993.949 725.945 1984.026 722.72 1973.72 721.088 1963.287 721.088 1952.982 722.72 1943.059 725.945 1933.762 730.681 1925.32 736.814 1917.944 744.192 1911.81 752.633 1907.073 761.929 1903.849 771.853 1902.217 782.157 1902.217 792.592 1903.849 802.898 1907.073 812.82 1911.81 822.117 1917.944 830.558 1925.32 837.936 1930.997 842.222 1931.012 929.319 1925.32 933.664 1917.944 941.042 1911.81 949.483 1907.073 958.78 1903.849 968.703 1902.217 979.008 1902.217 989.442 1903.849 999.748 1907.073 1009.671 1911.81 1018.967 1917.944 1027.408 1925.32 1034.786 1930.997 1039.072 1931.012 1106.217 1634.243 1106.209 1535.176 1007.318 1530.416 1003.86 1525.175 1001.189 1519.579 999.37 1513.768 998.45 1471.175 998.335 1464.808 994.402 1458.068 991.61 1450.974 989.907 1443.701 989.335 1436.428 989.907 1429.333 991.61 1422.593 994.402 1416.374 998.214 1410.825 1002.951 1406.088 1008.5 1402.276 1014.719 1399.484 1021.459 1397.781 1028.554 1397.209 1035.827 1397.781 1043.1 1399.484 1050.194 1402.276 1056.934 1406.088 1063.154 1410.825 1068.702 1416.374 1073.44 1422.593 1077.252 1429.333 1080.043 1436.428 1081.747 1443.701 1082.319 1450.974 1081.747 1458.068 1080.043 1464.808 1077.252 1471.26 1073.319 1495.266 1073.319 1594.352 1172.21 1599.112 1175.668 1604.353 1178.339 1609.949 1180.157 1615.759 1181.077 1664.633 1181.193 3780.496 1181.077 3786.306 1180.157 3791.902 1178.339 3797.143 1175.668 3801.903 1172.21 3836.543 1137.734 3924.718 1049.559 3931.791 1050.513 3942.224 1050.513 3952.53 1048.881 3962.453 1045.656 3971.749 1040.919 3980.192 1034.786 3987.568 1027.408 3993.702 1018.967 3998.438 1009.671 4001.663 999.748 4003.295 989.442 4003.295 979.008 M 4003.295 782.157 4001.663 771.853 3998.438 761.929 3993.702 752.633 3987.568 744.192 3980.192 736.814 3971.749 730.681 3962.453 725.945 3952.53 722.72 3942.224 721.088 3931.791 721.088 3921.486 722.72 3911.563 725.945 3902.266 730.681 3893.824 736.814 3886.448 744.192 3880.314 752.633 3875.577 761.929 3872.353 771.853 3870.72 782.157 3870.72 792.592 3872.353 802.898 3875.577 812.82 3880.314 822.117 3886.448 830.558 3893.824 837.936 3902.266 844.068 3911.563 848.806 3921.486 852.03 3931.791 853.663 3942.224 853.663 3952.53 852.03 3962.453 848.806 3971.749 844.068 3980.192 837.936 3987.568 830.558 3993.702 822.117 3998.438 812.82 4001.663 802.898 4003.295 792.592 4003.295 782.157 M 3806.445 782.157 3804.812 771.853 3801.588 761.929 3796.852 752.633 3790.718 744.192 3783.341 736.814 3774.899 730.681 3765.602 725.945 3755.68 722.72 3745.374 721.088 3734.941 721.088 3724.635 722.72 3714.713 725.945 3705.416 730.681 3696.974 736.814 3689.597 744.192 3683.463 752.633 3678.727 761.929 3675.503 771.853 3673.87 782.157 3673.87 792.592 3675.503 802.898 3678.727 812.82 3683.463 822.117 3689.597 830.558 3696.974 837.936 3705.416 844.068 3714.713 848.806 3724.635 852.03 3734.941 853.663 3745.374 853.663 3755.68 852.03 3765.602 848.806 3774.899 844.068 3783.341 837.936 3790.718 830.558 3796.852 822.117 3801.588 812.82 3804.812 802.898 3806.445 792.592 3806.445 782.157 M 3806.445 979.008 3804.812 968.703 3801.588 958.78 3796.852 949.483 3790.718 941.042 3783.341 933.664 3774.899 927.531 3765.602 922.795 3755.68 919.571 3745.374 917.938 3734.941 917.938 3724.635 919.571 3714.713 922.795 3705.416 927.531 3696.974 933.664 3689.597 941.042 3683.463 949.483 3678.727 958.78 3675.503 968.703 3673.87 979.008 3673.87 989.442 3675.503 999.748 3678.727 1009.671 3683.463 1018.967 3689.597 1027.408 3696.974 1034.786 3705.416 1040.919 3714.713 1045.656 3724.635 1048.881 3734.941 1050.513 3745.374 1050.513 3755.68 1048.881 3765.602 1045.656 3774.899 1040.919 3783.341 1034.786 3790.718 1027.408 3796.852 1018.967 3801.588 1009.671 3804.812 999.748 3806.445 989.442 3806.445 979.008 M 2822.193 782.157 2820.56 771.853 2817.336 761.929 2812.6 752.633 2806.466 744.192 2799.089 736.814 2790.647 730.681 2781.35 725.945 2771.428 722.72 2761.122 721.088 2750.689 721.088 2740.383 722.72 2730.461 725.945 2721.164 730.681 2712.722 736.814 2705.345 744.192 2699.211 752.633 2694.475 761.929 2691.251 771.853 2689.618 782.157 2689.618 792.592 2691.251 802.898 2694.475 812.82 2699.211 822.117 2705.345 830.558 2712.722 837.936 2721.164 844.068 2723.424 845.335 2723.413 926.227 2716.823 930.432 2708.888 937.209 2702.113 945.142 2696.66 954.038 2692.668 963.678 2690.232 973.824 2689.413 984.226 2690.232 994.627 2692.668 1004.773 2696.66 1014.412 2702.113 1023.308 2708.888 1031.243 2716.823 1038.018 2725.719 1043.47 2735.358 1047.463 2745.504 1049.899 2755.906 1050.718 2766.307 1049.899 2776.453 1047.463 2786.092 1043.47 2794.988 1038.018 2802.923 1031.243 2809.698 1023.308 2815.151 1014.412 2819.143 1004.773 2821.579 994.627 2822.398 984.226 2821.579 973.824 2819.143 963.678 2815.151 954.038 2809.698 945.142 2802.923 937.209 2794.988 930.432 2788.387 926.266 2788.398 845.406 2794.988 841.168 2802.923 834.392 2809.698 826.458 2815.151 817.562 2819.143 807.923 2821.579 797.777 2822.398 787.375 2822.193 782.157 M 1837.941 782.157 1836.308 771.853 1833.084 761.929 1828.348 752.633 1822.214 744.192 1814.837 736.814 1806.395 730.681 1797.098 725.945 1787.176 722.72 1776.87 721.088 1766.437 721.088 1756.131 722.72 1746.209 725.945 1736.912 730.681 1728.47 736.814 1721.093 744.192 1714.959 752.633 1710.223 761.929 1706.999 771.853 1705.366 782.157 1705.366 792.592 1706.999 802.898 1710.223 812.82 1714.959 822.117 1721.093 830.558 1728.47 837.936 1736.912 844.068 1739.172 845.335 1739.161 926.227 1732.571 930.432 1724.636 937.209 1717.861 945.142 1712.408 954.038 1708.416 963.678 1705.98 973.824 1705.161 984.226 1705.98 994.627 1708.416 1004.773 1712.408 1014.412 1717.861 1023.308 1724.636 1031.243 1732.571 1038.018 1741.467 1043.47 1751.106 1047.463 1761.252 1049.899 1771.654 1050.718 1782.055 1049.899 1792.201 1047.463 1801.84 1043.47 1810.736 1038.018 1818.671 1031.243 1825.446 1023.308 1830.899 1014.412 1834.891 1004.773 1837.327 994.627 1838.146 984.226 1837.327 973.824 1834.891 963.678 1830.899 954.038 1825.446 945.142 1818.671 937.209 1810.736 930.432 1804.135 926.266 1804.146 845.406 1810.736 841.168 1818.671 834.392 1825.446 826.458 1830.899 817.562 1834.891 807.923 1837.327 797.777 1838.146 787.375 1837.941 782.157 M 1050.539 979.008 1048.907 968.703 1045.682 958.78 1040.946 949.483 1034.812 941.042 1027.436 933.664 1018.993 927.531 1009.697 922.795 999.774 919.571 989.469 917.938 979.035 917.938 968.73 919.571 958.807 922.795 949.51 927.531 941.068 933.664 933.692 941.042 927.558 949.483 922.822 958.78 919.597 968.703 917.965 979.008 917.965 989.442 919.597 999.748 922.822 1009.671 927.558 1018.967 933.692 1027.408 941.068 1034.786 949.51 1040.919 958.807 1045.656 968.73 1048.881 979.035 1050.513 989.469 1050.513 999.774 1048.881 1009.697 1045.656 1018.993 1040.919 1027.436 1034.786 1034.812 1027.408 1040.946 1018.967 1045.682 1009.671 1048.907 999.748 1050.539 989.442 1050.539 979.008 M 1050.539 782.157 1048.907 771.853 1045.682 761.929 1040.946 752.633 1034.812 744.192 1027.436 736.814 1018.993 730.681 1009.697 725.945 999.774 722.72 989.469 721.088 979.035 721.088 968.73 722.72 958.807 725.945 949.51 730.681 941.068 736.814 933.692 744.192 927.558 752.633 922.822 761.929 919.597 771.853 917.965 782.157 917.965 792.592 919.597 802.898 922.822 812.82 927.558 822.117 933.692 830.558 941.068 837.936 949.51 844.068 958.807 848.806 968.73 852.03 979.035 853.663 989.469 853.663 999.774 852.03 1009.697 848.806 1018.993 844.068 1027.436 837.936 1034.812 830.558 1040.946 822.117 1045.682 812.82 1048.907 802.898 1050.539 792.592 1050.539 782.157 M 853.689 782.157 852.056 771.853 848.832 761.929 844.096 752.633 837.962 744.192 830.585 736.814 822.143 730.681 812.846 725.945 802.924 722.72 792.618 721.088 782.185 721.088 771.879 722.72 761.957 725.945 752.66 730.681 744.218 736.814 736.841 744.192 730.707 752.633 725.971 761.929 722.747 771.853 721.114 782.157 721.114 792.592 722.747 802.898 725.971 812.82 730.707 822.117 736.841 830.558 744.218 837.936 752.66 844.068 761.957 848.806 771.879 852.03 782.185 853.663 792.618 853.663 802.924 852.03 812.846 848.806 822.143 844.068 830.585 837.936 837.962 830.558 844.096 822.117 848.832 812.82 852.056 802.898 853.689 792.592 853.689 782.157 M 853.689 979.008 852.056 968.703 848.832 958.78 844.096 949.483 837.962 941.042 830.585 933.664 822.143 927.531 812.846 922.795 802.924 919.571 792.618 917.938 782.185 917.938 771.879 919.571 761.957 922.795 752.66 927.531 744.218 933.664 736.841 941.042 730.707 949.483 725.971 958.78 722.747 968.703 721.114 979.008 721.114 989.442 722.747 999.748 725.971 1009.671 730.707 1018.967 736.841 1027.408 744.218 1034.786 752.66 1040.919 761.957 1045.656 771.879 1048.881 782.185 1050.513 792.618 1050.513 802.924 1048.881 812.846 1045.656 822.143 1040.919 830.585 1034.786 837.962 1027.408 844.096 1018.967 848.832 1009.671 852.056 999.748 853.689 989.442 853.689 979.008 M 642.445 433.76 4082.016 433.76 4081.988 1337.921 642.394 1337.894 642.421 433.732" fill="none" stroke-width="25"/><use xlink:href="#u_TKzTlUzIYc0hwLWJdC_pad-34" x="3937.008" y="984.215"/><use xlink:href="#u_TKzTlUzIYc0hwLWJdC_pad-34" x="3937.008" y="787.364"/><use xlink:href="#u_TKzTlUzIYc0hwLWJdC_pad-34" x="3740.157" y="787.364"/><use xlink:href="#u_TKzTlUzIYc0hwLWJdC_pad-34" x="3740.157" y="984.215"/><use xlink:href="#u_TKzTlUzIYc0hwLWJdC_pad-34" x="2952.756" y="984.215"/><use xlink:href="#u_TKzTlUzIYc0hwLWJdC_pad-34" x="2952.756" y="787.364"/><use xlink:href="#u_TKzTlUzIYc0hwLWJdC_pad-34" x="2755.906" y="787.364"/><use xlink:href="#u_TKzTlUzIYc0hwLWJdC_pad-34" x="2755.906" y="984.215"/><use xlink:href="#u_TKzTlUzIYc0hwLWJdC_pad-34" x="1968.504" y="984.215"/><use xlink:href="#u_TKzTlUzIYc0hwLWJdC_pad-34" x="1968.504" y="787.364"/><use xlink:href="#u_TKzTlUzIYc0hwLWJdC_pad-34" x="1771.654" y="787.364"/><use xlink:href="#u_TKzTlUzIYc0hwLWJdC_pad-34" x="1771.654" y="984.215"/><use xlink:href="#u_TKzTlUzIYc0hwLWJdC_pad-34" x="984.252" y="984.215"/><use xlink:href="#u_TKzTlUzIYc0hwLWJdC_pad-34" x="984.252" y="787.364"/><use xlink:href="#u_TKzTlUzIYc0hwLWJdC_pad-34" x="787.402" y="787.364"/><use xlink:href="#u_TKzTlUzIYc0hwLWJdC_pad-34" x="787.402" y="984.215"/></g><g id="gBYkD8xLMYlWk6MH-HrE_bottom_drill1"><use xlink:href="#UKAtd4igKmoA9jsS6rAi_pad-1" x="1443.7" y="1035.8"/><use xlink:href="#UKAtd4igKmoA9jsS6rAi_pad-2" x="3937" y="984.2"/><use xlink:href="#UKAtd4igKmoA9jsS6rAi_pad-2" x="3937" y="787.4"/><use xlink:href="#UKAtd4igKmoA9jsS6rAi_pad-2" x="3740.2" y="787.4"/><use xlink:href="#UKAtd4igKmoA9jsS6rAi_pad-2" x="3740.2" y="984.2"/><use xlink:href="#UKAtd4igKmoA9jsS6rAi_pad-2" x="2952.8" y="984.2"/><use xlink:href="#UKAtd4igKmoA9jsS6rAi_pad-2" x="2952.8" y="787.4"/><use xlink:href="#UKAtd4igKmoA9jsS6rAi_pad-2" x="2755.9" y="787.4"/><use xlink:href="#UKAtd4igKmoA9jsS6rAi_pad-2" x="2755.9" y="984.2"/><use xlink:href="#UKAtd4igKmoA9jsS6rAi_pad-2" x="1968.5" y="984.2"/><use xlink:href="#UKAtd4igKmoA9jsS6rAi_pad-2" x="1968.5" y="787.4"/><use xlink:href="#UKAtd4igKmoA9jsS6rAi_pad-2" x="1771.7" y="787.4"/><use xlink:href="#UKAtd4igKmoA9jsS6rAi_pad-2" x="1771.7" y="984.2"/><use xlink:href="#UKAtd4igKmoA9jsS6rAi_pad-2" x="984.3" y="984.2"/><use xlink:href="#UKAtd4igKmoA9jsS6rAi_pad-2" x="984.3" y="787.4"/><use xlink:href="#UKAtd4igKmoA9jsS6rAi_pad-2" x="787.4" y="787.4"/><use xlink:href="#UKAtd4igKmoA9jsS6rAi_pad-2" x="787.4" y="984.2"/><use xlink:href="#UKAtd4igKmoA9jsS6rAi_pad-3" x="511.8" y="511.8"/><use xlink:href="#UKAtd4igKmoA9jsS6rAi_pad-3" x="511.8" y="1259.8"/><use xlink:href="#UKAtd4igKmoA9jsS6rAi_pad-3" x="4212.6" y="1259.8"/><use xlink:href="#UKAtd4igKmoA9jsS6rAi_pad-3" x="4212.6" y="511.8"/></g><clipPath id="gBYkD8xLMYlWk6MH-HrE_bottom_outline"><path d="M 393.701 393.701 4330.709 393.701 4330.709 1377.953 393.701 1377.953 393.701 393.701" fill="none" stroke-width="5.512"/></clipPath><mask id="gBYkD8xLMYlWk6MH-HrE_bottom_mech-mask"><g fill="#000" stroke="#000"><rect x="393.701" y="393.701" width="3937.008" height="984.252" fill="#fff"/><use xlink:href="#gBYkD8xLMYlWk6MH-HrE_bottom_drill1"/></g></mask><mask id="gBYkD8xLMYlWk6MH-HrE_bottom_cf-mask"><g fill="#fff" stroke="#fff"><use xlink:href="#gBYkD8xLMYlWk6MH-HrE_bottom_soldermask"/></g></mask><mask id="gBYkD8xLMYlWk6MH-HrE_bottom_sm-mask"><g fill="#000" stroke="#000"><rect x="393.701" y="393.701" width="3937.008" height="984.252" fill="#fff"/><use xlink:href="#gBYkD8xLMYlWk6MH-HrE_bottom_soldermask"/></g></mask></defs><g transform="translate(0,1771.654) scale(1,-1)"><g mask="url(#gBYkD8xLMYlWk6MH-HrE_bottom_mech-mask)" clip-path="url(#gBYkD8xLMYlWk6MH-HrE_bottom_outline)" transform="translate(4724.41,0) scale(-1,1)"><rect x="393.701" y="393.701" width="3937.008" height="984.252" fill="currentColor" class="gBYkD8xLMYlWk6MH-HrE_fr4"/><use xlink:href="#gBYkD8xLMYlWk6MH-HrE_bottom_copper" fill="currentColor" stroke="currentColor" class="gBYkD8xLMYlWk6MH-HrE_cu"/><use xlink:href="#gBYkD8xLMYlWk6MH-HrE_bottom_copper" fill="currentColor" stroke="currentColor" class="gBYkD8xLMYlWk6MH-HrE_cf" mask="url(#gBYkD8xLMYlWk6MH-HrE_bottom_cf-mask)"/><g mask="url(#gBYkD8xLMYlWk6MH-HrE_bottom_sm-mask)"><rect x="393.701" y="393.701" width="3937.008" height="984.252" fill="currentColor" class="gBYkD8xLMYlWk6MH-HrE_sm"/><use xlink:href="#gBYkD8xLMYlWk6MH-HrE_bottom_silkscreen" fill="currentColor" stroke="currentColor" class="gBYkD8xLMYlWk6MH-HrE_ss"/></g></g></g></svg>