M48
INCH
T01C0.0191
T02C0.04
T03C0.1181
%
T01
X+014437Y+010358
T02
X+039370Y+009842
X+039370Y+007874
X+037402Y+007874
X+037402Y+009842
X+029528Y+009842
X+029528Y+007874
X+027559Y+007874
X+027559Y+009842
X+019685Y+009842
X+019685Y+007874
X+017717Y+007874
X+017717Y+009842
X+009843Y+009842
X+009843Y+007874
X+007874Y+007874
X+007874Y+009842
T03
X+005118Y+005118
X+005118Y+012598
X+042126Y+012598
X+042126Y+005118
T00
M30
