%TF.GenerationSoftware,Novarm,DipTrace,3.3.1.3*%
%TF.CreationDate,2019-10-28T02:51:36+00:00*%
%FSLAX26Y26*%
%MOIN*%
%TF.FileFunction,Copper,L1,Top*%
%TF.Part,Single*%
%TA.AperFunction,Conductor*%
%ADD13C,0.012*%
%ADD14C,0.022*%
%TA.AperFunction,CopperBalancing*%
%ADD15C,0.025*%
%ADD16C,0.02*%
%ADD18R,0.125197X0.05*%
%TA.AperFunction,ComponentPad*%
%ADD33C,0.08*%
%ADD34R,0.070866X0.062992*%
%TA.AperFunction,ViaPad*%
%ADD35C,0.04*%
G75*
G01*
%LPD*%
X3740157Y984241D2*
D13*
Y787390D1*
Y671334D1*
X3737449Y668627D1*
X3624951D1*
X1401237Y935826D2*
X1657823D1*
X1687449Y906200D1*
X3424951D1*
X3618700Y712451D1*
Y668627D1*
X3624951D1*
X2755905Y787390D2*
Y668922D1*
X2756200Y668627D1*
X2643700D1*
X1276040Y835826D2*
X1654575D1*
X1687449Y868700D1*
X2487451D1*
X2643700Y712451D1*
Y668627D1*
X1651329D2*
X1762451D1*
Y778188D1*
X1771653Y787390D1*
X1401237Y735826D2*
X1584129D1*
X1651329Y668627D1*
X787401Y787396D2*
Y760310D1*
X874951Y672760D1*
X985260D1*
X987449Y674949D1*
X787401Y984246D2*
Y787396D1*
X1276040Y635826D2*
Y637449D1*
X1143700D1*
X1106200Y674949D1*
X987449D1*
X984251Y787396D2*
D14*
Y984246D1*
X1115495D1*
X1167075Y1035826D1*
X1276040D1*
X1443700D1*
X3937007Y984246D2*
Y787396D1*
D35*
X1443700Y1035826D3*
X644939Y1313024D2*
D15*
X4079473D1*
X644939Y1288155D2*
X4079473D1*
X644939Y1263287D2*
X4079473D1*
X644939Y1238418D2*
X4079473D1*
X644939Y1213549D2*
X4079473D1*
X644939Y1188680D2*
X4079473D1*
X644939Y1163812D2*
X1309645D1*
X1492810D2*
X4079473D1*
X644939Y1138943D2*
X1309645D1*
X1492810D2*
X4079473D1*
X644939Y1114074D2*
X1309645D1*
X1492810D2*
X4079473D1*
X644939Y1089205D2*
X1309645D1*
X1492810D2*
X4079473D1*
X644939Y1064336D2*
X1140235D1*
X1482941D2*
X4079473D1*
X644939Y1039468D2*
X747878D1*
X826943D2*
X944738D1*
X1023768D2*
X1115188D1*
X1492558D2*
X1732109D1*
X1811175D2*
X1928970D1*
X2008035D2*
X2716377D1*
X2795441D2*
X2913238D1*
X2992267D2*
X3700644D1*
X3779674D2*
X3897469D1*
X3976533D2*
X4079473D1*
X644939Y1014599D2*
X725738D1*
X849048D2*
X922598D1*
X1487571D2*
X1710004D1*
X1833315D2*
X1906830D1*
X2030175D2*
X2694237D1*
X2817546D2*
X2891096D1*
X3014407D2*
X3678503D1*
X3801814D2*
X3875364D1*
X3998675D2*
X4079473D1*
X644939Y989730D2*
X718633D1*
X856153D2*
X915493D1*
X1367646D2*
X1435132D1*
X1452263D2*
X1702899D1*
X1840420D2*
X1899725D1*
X2037281D2*
X2687132D1*
X2824687D2*
X2883991D1*
X3021512D2*
X3671398D1*
X3808919D2*
X3868259D1*
X4005780D2*
X4079473D1*
X644939Y964861D2*
X721288D1*
X853498D2*
X918149D1*
X1674922D2*
X1705556D1*
X1837764D2*
X1902380D1*
X2034625D2*
X2689787D1*
X2821997D2*
X2886648D1*
X3018856D2*
X3674054D1*
X3806263D2*
X3870915D1*
X4003124D2*
X4079473D1*
X644939Y939993D2*
X735283D1*
X839539D2*
X932107D1*
X1702123D2*
X1719514D1*
X1823770D2*
X1916375D1*
X2020630D2*
X2703781D1*
X2808037D2*
X2900607D1*
X3004898D2*
X3688012D1*
X3792305D2*
X3884873D1*
X3989129D2*
X4079473D1*
X644939Y915124D2*
X752399D1*
X822386D2*
X944272D1*
X3464466D2*
X3705166D1*
X3775151D2*
X3897002D1*
X3977001D2*
X4079473D1*
X644939Y890255D2*
X752399D1*
X822386D2*
X944272D1*
X3489334D2*
X3705166D1*
X3775151D2*
X3897002D1*
X3977001D2*
X4079473D1*
X644939Y865386D2*
X752399D1*
X822386D2*
X944272D1*
X2539229D2*
X3417302D1*
X3514203D2*
X3705166D1*
X3775151D2*
X3897002D1*
X3977001D2*
X4079473D1*
X644939Y840518D2*
X744899D1*
X829885D2*
X941760D1*
X2564096D2*
X2713435D1*
X2798384D2*
X2910259D1*
X2995245D2*
X3442170D1*
X3539070D2*
X3697666D1*
X3782651D2*
X3894527D1*
X3979477D2*
X4079473D1*
X644939Y815649D2*
X724697D1*
X850088D2*
X921557D1*
X1834356D2*
X1905825D1*
X2031180D2*
X2492065D1*
X2588964D2*
X2693231D1*
X2818587D2*
X2890057D1*
X3015448D2*
X3467039D1*
X3563938D2*
X3677462D1*
X3802855D2*
X3874323D1*
X3999679D2*
X4079473D1*
X644939Y790780D2*
X718489D1*
X856296D2*
X915350D1*
X1840564D2*
X1899581D1*
X2037424D2*
X2516932D1*
X2613833D2*
X2686987D1*
X2824794D2*
X2883848D1*
X3021655D2*
X3491906D1*
X3588805D2*
X3671255D1*
X3809062D2*
X3868116D1*
X4005923D2*
X4079473D1*
X644939Y765911D2*
X721969D1*
X852815D2*
X918830D1*
X1837083D2*
X1903062D1*
X2033944D2*
X2541800D1*
X2638700D2*
X2690469D1*
X2821314D2*
X2887329D1*
X3018175D2*
X3516773D1*
X3613672D2*
X3674735D1*
X3805582D2*
X3871596D1*
X4002443D2*
X4079473D1*
X644939Y741043D2*
X737221D1*
X855112D2*
X934081D1*
X1821833D2*
X1918313D1*
X2018692D2*
X2566669D1*
X2663567D2*
X2705720D1*
X2806099D2*
X2902579D1*
X3002924D2*
X3541641D1*
X3638541D2*
X3689986D1*
X3790331D2*
X3886847D1*
X3987192D2*
X4079473D1*
X644939Y716174D2*
X783081D1*
X1826892D2*
X2579263D1*
X2820633D2*
X3560516D1*
X3801885D2*
X4079473D1*
X644939Y691305D2*
X807948D1*
X1492810D2*
X1580212D1*
X1826892D2*
X2579263D1*
X2820633D2*
X3560516D1*
X3801885D2*
X4079473D1*
X644939Y666436D2*
X810532D1*
X1367646D2*
X1586886D1*
X1826892D2*
X2579263D1*
X2820633D2*
X3560516D1*
X3801885D2*
X4079473D1*
X644939Y641567D2*
X810532D1*
X1051865D2*
X1091146D1*
X1367646D2*
X1586886D1*
X1826892D2*
X2579263D1*
X2820633D2*
X3560516D1*
X3801885D2*
X4079473D1*
X644939Y616699D2*
X810532D1*
X1051865D2*
X1116014D1*
X1367646D2*
X1586886D1*
X1826892D2*
X2579263D1*
X2820633D2*
X3560516D1*
X3801885D2*
X4079473D1*
X644939Y591830D2*
X810532D1*
X1051865D2*
X1184445D1*
X1367646D2*
X1586886D1*
X1826892D2*
X2579263D1*
X2820633D2*
X3560516D1*
X3801885D2*
X4079473D1*
X644939Y566961D2*
X810532D1*
X1051865D2*
X1586886D1*
X1826892D2*
X2579263D1*
X2820633D2*
X3560516D1*
X3801885D2*
X4079473D1*
X644939Y542092D2*
X810532D1*
X1051865D2*
X1586886D1*
X1826892D2*
X2579263D1*
X2820633D2*
X3560516D1*
X3801885D2*
X4079473D1*
X644939Y517224D2*
X810532D1*
X1051865D2*
X1586886D1*
X1826892D2*
X2579263D1*
X2820633D2*
X3560516D1*
X3801885D2*
X4079473D1*
X644939Y492355D2*
X4079473D1*
X644939Y467486D2*
X4079473D1*
X644939Y442617D2*
X4079473D1*
X1365130Y684339D2*
Y584334D1*
X1186949D1*
Y604968D1*
X1141150Y605057D1*
X1136115Y605855D1*
X1131266Y607431D1*
X1126722Y609745D1*
X1122598Y612742D1*
X1092737Y642461D1*
X1049396Y642457D1*
X1049375Y506725D1*
X936876Y506602D1*
Y504536D1*
X813025D1*
X813001Y688759D1*
X780497Y721263D1*
X771878Y722735D1*
X761956Y725960D1*
X752659Y730696D1*
X744217Y736829D1*
X736840Y744207D1*
X730707Y752648D1*
X725970Y761944D1*
X722746Y771868D1*
X721113Y782172D1*
Y792607D1*
X722746Y802913D1*
X725970Y812835D1*
X730707Y822132D1*
X736840Y830573D1*
X744217Y837951D1*
X752659Y844083D1*
X754919Y845350D1*
X754909Y926231D1*
X748318Y930447D1*
X740384Y937224D1*
X733608Y945157D1*
X728155Y954053D1*
X724163Y963693D1*
X721728Y973839D1*
X720909Y984241D1*
X721728Y994642D1*
X724163Y1004788D1*
X728155Y1014427D1*
X733608Y1023323D1*
X740384Y1031258D1*
X748318Y1038033D1*
X757214Y1043485D1*
X766854Y1047478D1*
X776999Y1049914D1*
X787401Y1050733D1*
X797802Y1049914D1*
X807948Y1047478D1*
X817587Y1043485D1*
X826483Y1038033D1*
X834418Y1031258D1*
X841193Y1023323D1*
X846646Y1014427D1*
X850638Y1004788D1*
X853074Y994642D1*
X853893Y984241D1*
X853074Y973839D1*
X850638Y963693D1*
X846646Y954053D1*
X841193Y945157D1*
X834418Y937224D1*
X826483Y930447D1*
X819882Y926281D1*
X819893Y845410D1*
X826483Y841183D1*
X834418Y834407D1*
X841193Y826473D1*
X846646Y817577D1*
X850638Y807938D1*
X853074Y797792D1*
X853893Y787390D1*
X853074Y776989D1*
X850638Y766843D1*
X846646Y757203D1*
X842860Y750800D1*
X862926Y730737D1*
X925523Y730749D1*
X925524Y732938D1*
X946086D1*
X941067Y736829D1*
X933691Y744207D1*
X927557Y752648D1*
X922821Y761944D1*
X919596Y771868D1*
X917964Y782172D1*
Y792607D1*
X919596Y802913D1*
X922821Y812835D1*
X927557Y822132D1*
X933691Y830573D1*
X941067Y837951D1*
X946745Y842237D1*
X946759Y929318D1*
X941067Y933679D1*
X933691Y941057D1*
X927557Y949498D1*
X922821Y958794D1*
X919596Y968718D1*
X917964Y979023D1*
Y989457D1*
X919596Y999763D1*
X922821Y1009686D1*
X927557Y1018982D1*
X933691Y1027423D1*
X941067Y1034801D1*
X949510Y1040934D1*
X958806Y1045671D1*
X968729Y1048896D1*
X979035Y1050528D1*
X989468D1*
X999773Y1048896D1*
X1009696Y1045671D1*
X1018993Y1040934D1*
X1027435Y1034801D1*
X1034812Y1027423D1*
X1039098Y1021746D1*
X1099978Y1021738D1*
X1142726Y1064335D1*
X1147486Y1067793D1*
X1152728Y1070464D1*
X1158323Y1072283D1*
X1164133Y1073203D1*
X1186919Y1073318D1*
X1186949Y1087318D1*
X1312149D1*
X1312146Y1187318D1*
X1490327D1*
Y1084334D1*
X1365128D1*
X1365130Y1073288D1*
X1416373Y1073439D1*
X1422592Y1077251D1*
X1429333Y1080043D1*
X1436427Y1081746D1*
X1443700Y1082318D1*
X1450973Y1081746D1*
X1458067Y1080043D1*
X1464808Y1077251D1*
X1471027Y1073439D1*
X1476575Y1068701D1*
X1481313Y1063153D1*
X1485125Y1056934D1*
X1487917Y1050193D1*
X1489620Y1043099D1*
X1490192Y1035826D1*
X1489620Y1028553D1*
X1487917Y1021459D1*
X1485125Y1014718D1*
X1481313Y1008499D1*
X1476575Y1002951D1*
X1471027Y998213D1*
X1464808Y994401D1*
X1458067Y991609D1*
X1450973Y989906D1*
X1443700Y989334D1*
X1436427Y989906D1*
X1429333Y991609D1*
X1422592Y994401D1*
X1416141Y998334D1*
X1365150D1*
X1365130Y987309D1*
X1490327Y987318D1*
Y968335D1*
X1660373Y968218D1*
X1665409Y967420D1*
X1670258Y965844D1*
X1674801Y963531D1*
X1678926Y960533D1*
X1700920Y938680D1*
X1723226Y938692D1*
X1717860Y945157D1*
X1712407Y954053D1*
X1708415Y963693D1*
X1705980Y973839D1*
X1705161Y984241D1*
X1705980Y994642D1*
X1708415Y1004788D1*
X1712407Y1014427D1*
X1717860Y1023323D1*
X1724636Y1031258D1*
X1732570Y1038033D1*
X1741466Y1043485D1*
X1751106Y1047478D1*
X1761251Y1049914D1*
X1771653Y1050733D1*
X1782054Y1049914D1*
X1792200Y1047478D1*
X1801839Y1043485D1*
X1810735Y1038033D1*
X1818670Y1031258D1*
X1825445Y1023323D1*
X1830898Y1014427D1*
X1834890Y1004788D1*
X1837326Y994642D1*
X1838145Y984241D1*
X1837326Y973839D1*
X1834890Y963693D1*
X1830898Y954053D1*
X1825445Y945157D1*
X1820040Y938707D1*
X1920087Y938692D1*
X1914710Y945157D1*
X1909258Y954053D1*
X1905266Y963693D1*
X1902830Y973839D1*
X1902011Y984241D1*
X1902830Y994642D1*
X1905266Y1004788D1*
X1909258Y1014427D1*
X1914710Y1023323D1*
X1921486Y1031258D1*
X1929420Y1038033D1*
X1938317Y1043485D1*
X1947956Y1047478D1*
X1958102Y1049914D1*
X1968503Y1050733D1*
X1978905Y1049914D1*
X1989050Y1047478D1*
X1998690Y1043485D1*
X2007586Y1038033D1*
X2015520Y1031258D1*
X2022296Y1023323D1*
X2027749Y1014427D1*
X2031741Y1004788D1*
X2034176Y994642D1*
X2034995Y984241D1*
X2034176Y973839D1*
X2031741Y963693D1*
X2027749Y954053D1*
X2022296Y945157D1*
X2016890Y938707D1*
X2707457Y938692D1*
X2702112Y945157D1*
X2696659Y954053D1*
X2692667Y963693D1*
X2690231Y973839D1*
X2689413Y984241D1*
X2690231Y994642D1*
X2692667Y1004788D1*
X2696659Y1014427D1*
X2702112Y1023323D1*
X2708888Y1031258D1*
X2716822Y1038033D1*
X2725718Y1043485D1*
X2735357Y1047478D1*
X2745503Y1049914D1*
X2755905Y1050733D1*
X2766306Y1049914D1*
X2776452Y1047478D1*
X2786091Y1043485D1*
X2794987Y1038033D1*
X2802922Y1031258D1*
X2809697Y1023323D1*
X2815150Y1014427D1*
X2819142Y1004788D1*
X2821578Y994642D1*
X2822397Y984241D1*
X2821578Y973839D1*
X2819142Y963693D1*
X2815150Y954053D1*
X2809697Y945157D1*
X2804292Y938707D1*
X2904318Y938692D1*
X2898962Y945157D1*
X2893510Y954053D1*
X2889518Y963693D1*
X2887082Y973839D1*
X2886263Y984241D1*
X2887082Y994642D1*
X2889518Y1004788D1*
X2893510Y1014427D1*
X2898962Y1023323D1*
X2905738Y1031258D1*
X2913672Y1038033D1*
X2922569Y1043485D1*
X2932208Y1047478D1*
X2942354Y1049914D1*
X2952755Y1050733D1*
X2963157Y1049914D1*
X2973302Y1047478D1*
X2982941Y1043485D1*
X2991838Y1038033D1*
X2999772Y1031258D1*
X3006548Y1023323D1*
X3012001Y1014427D1*
X3015993Y1004788D1*
X3018428Y994642D1*
X3019247Y984241D1*
X3018428Y973839D1*
X3015993Y963693D1*
X3012001Y954053D1*
X3006548Y945157D1*
X3001142Y938707D1*
X3427499Y938592D1*
X3432535Y937794D1*
X3437384Y936218D1*
X3441927Y933905D1*
X3446052Y930907D1*
X3493396Y883705D1*
X3643407Y733552D1*
X3646405Y729427D1*
X3647655Y727192D1*
X3654889Y726615D1*
X3707641D1*
X3705415Y730696D1*
X3696973Y736829D1*
X3689596Y744207D1*
X3683462Y752648D1*
X3678726Y761944D1*
X3675502Y771868D1*
X3673869Y782172D1*
Y792607D1*
X3675502Y802913D1*
X3678726Y812835D1*
X3683462Y822132D1*
X3689596Y830573D1*
X3696973Y837951D1*
X3705415Y844083D1*
X3707675Y845350D1*
X3707665Y926226D1*
X3701074Y930447D1*
X3693140Y937224D1*
X3686364Y945157D1*
X3680911Y954053D1*
X3676919Y963693D1*
X3674483Y973839D1*
X3673665Y984241D1*
X3674483Y994642D1*
X3676919Y1004788D1*
X3680911Y1014427D1*
X3686364Y1023323D1*
X3693140Y1031258D1*
X3701074Y1038033D1*
X3709970Y1043485D1*
X3719609Y1047478D1*
X3729755Y1049914D1*
X3740157Y1050733D1*
X3750558Y1049914D1*
X3760704Y1047478D1*
X3770343Y1043485D1*
X3779239Y1038033D1*
X3787174Y1031258D1*
X3793949Y1023323D1*
X3799402Y1014427D1*
X3803394Y1004788D1*
X3805830Y994642D1*
X3806649Y984241D1*
X3805830Y973839D1*
X3803394Y963693D1*
X3799402Y954053D1*
X3793949Y945157D1*
X3787174Y937224D1*
X3779239Y930447D1*
X3772638Y926281D1*
X3772649Y845405D1*
X3779239Y841183D1*
X3787174Y834407D1*
X3793949Y826473D1*
X3799402Y817577D1*
X3803394Y807938D1*
X3805830Y797792D1*
X3806649Y787390D1*
X3805830Y776989D1*
X3803394Y766843D1*
X3799402Y757203D1*
X3793949Y748306D1*
X3787174Y740373D1*
X3779239Y733596D1*
X3772638Y729431D1*
X3776574Y726615D1*
X3799375D1*
Y500402D1*
X3563025D1*
Y722153D1*
X3411485Y873714D1*
X2528384Y873708D1*
X2668407Y733552D1*
X2671405Y729427D1*
X2672655Y727192D1*
X2673638Y726615D1*
X2723377D1*
X2721163Y730696D1*
X2712721Y736829D1*
X2705344Y744207D1*
X2699210Y752648D1*
X2694474Y761944D1*
X2691250Y771868D1*
X2689617Y782172D1*
Y792607D1*
X2691250Y802913D1*
X2694474Y812835D1*
X2699210Y822132D1*
X2705344Y830573D1*
X2712721Y837951D1*
X2721163Y844083D1*
X2730460Y848821D1*
X2740382Y852045D1*
X2750688Y853678D1*
X2761121D1*
X2771427Y852045D1*
X2781350Y848821D1*
X2790646Y844083D1*
X2799088Y837951D1*
X2806465Y830573D1*
X2812599Y822132D1*
X2817335Y812835D1*
X2820560Y802913D1*
X2822192Y792607D1*
Y782172D1*
X2820560Y771868D1*
X2817335Y761944D1*
X2812599Y752648D1*
X2806465Y744207D1*
X2799088Y736829D1*
X2790646Y730696D1*
X2788386Y729431D1*
X2795325Y726615D1*
X2818125D1*
Y500402D1*
X2581775D1*
Y726615D1*
X2583606D1*
X2473987Y836212D1*
X2013671Y836208D1*
X2019064Y830573D1*
X2025197Y822132D1*
X2029934Y812835D1*
X2033158Y802913D1*
X2034791Y792607D1*
Y782172D1*
X2033158Y771868D1*
X2029934Y761944D1*
X2025197Y752648D1*
X2019064Y744207D1*
X2011687Y736829D1*
X2003245Y730696D1*
X1993948Y725960D1*
X1984025Y722735D1*
X1973720Y721103D1*
X1963287D1*
X1952981Y722735D1*
X1943058Y725960D1*
X1933762Y730696D1*
X1925319Y736829D1*
X1917943Y744207D1*
X1911809Y752648D1*
X1907073Y761944D1*
X1903848Y771868D1*
X1902216Y782172D1*
Y792607D1*
X1903848Y802913D1*
X1907073Y812835D1*
X1911809Y822132D1*
X1917943Y830573D1*
X1923448Y836221D1*
X1816810Y836208D1*
X1822213Y830573D1*
X1828347Y822132D1*
X1833083Y812835D1*
X1836308Y802913D1*
X1837940Y792607D1*
Y782172D1*
X1836308Y771868D1*
X1833083Y761944D1*
X1828347Y752648D1*
X1822213Y744207D1*
X1814836Y736829D1*
X1806394Y730696D1*
X1798524Y726617D1*
X1824376Y726615D1*
Y500402D1*
X1589403D1*
X1589378Y684625D1*
X1570678Y703326D1*
X1490292Y703334D1*
X1490327Y684334D1*
X1365128D1*
X4003294Y979023D2*
X4001662Y968718D1*
X3998438Y958794D1*
X3993701Y949498D1*
X3987567Y941057D1*
X3980191Y933679D1*
X3974514Y929393D1*
X3974499Y842323D1*
X3980191Y837951D1*
X3987567Y830573D1*
X3993701Y822132D1*
X3998438Y812835D1*
X4001662Y802913D1*
X4003294Y792607D1*
Y782172D1*
X4001662Y771868D1*
X3998438Y761944D1*
X3993701Y752648D1*
X3987567Y744207D1*
X3980191Y736829D1*
X3971749Y730696D1*
X3962452Y725960D1*
X3952529Y722735D1*
X3942224Y721103D1*
X3931791D1*
X3921485Y722735D1*
X3911562Y725960D1*
X3902266Y730696D1*
X3893823Y736829D1*
X3886447Y744207D1*
X3880313Y752648D1*
X3875577Y761944D1*
X3872352Y771868D1*
X3870720Y782172D1*
Y792607D1*
X3872352Y802913D1*
X3875577Y812835D1*
X3880313Y822132D1*
X3886447Y830573D1*
X3893823Y837951D1*
X3899501Y842237D1*
X3899515Y929318D1*
X3893823Y933679D1*
X3886447Y941057D1*
X3880313Y949498D1*
X3875577Y958794D1*
X3872352Y968718D1*
X3870720Y979023D1*
Y989457D1*
X3872352Y999763D1*
X3875577Y1009686D1*
X3880313Y1018982D1*
X3886447Y1027423D1*
X3893823Y1034801D1*
X3902266Y1040934D1*
X3911562Y1045671D1*
X3921485Y1048896D1*
X3931791Y1050528D1*
X3942224D1*
X3952529Y1048896D1*
X3962452Y1045671D1*
X3971749Y1040934D1*
X3980191Y1034801D1*
X3987567Y1027423D1*
X3993701Y1018982D1*
X3998438Y1009686D1*
X4001662Y999763D1*
X4003294Y989457D1*
Y979023D1*
X3019043Y782172D2*
X3017410Y771868D1*
X3014186Y761944D1*
X3009449Y752648D1*
X3003315Y744207D1*
X2995939Y736829D1*
X2987497Y730696D1*
X2978200Y725960D1*
X2968277Y722735D1*
X2957972Y721103D1*
X2947539D1*
X2937233Y722735D1*
X2927310Y725960D1*
X2918014Y730696D1*
X2909571Y736829D1*
X2902195Y744207D1*
X2896061Y752648D1*
X2891325Y761944D1*
X2888100Y771868D1*
X2886468Y782172D1*
Y792607D1*
X2888100Y802913D1*
X2891325Y812835D1*
X2896061Y822132D1*
X2902195Y830573D1*
X2909571Y837951D1*
X2918014Y844083D1*
X2927310Y848821D1*
X2937233Y852045D1*
X2947539Y853678D1*
X2957972D1*
X2968277Y852045D1*
X2978200Y848821D1*
X2987497Y844083D1*
X2995939Y837951D1*
X3003315Y830573D1*
X3009449Y822132D1*
X3014186Y812835D1*
X3017410Y802913D1*
X3019043Y792607D1*
Y782172D1*
X642444Y433759D2*
X4082015D1*
X4081987Y1337920D1*
X642393Y1337893D1*
X642420Y433731D1*
X1401237Y1187283D2*
D16*
Y1084369D1*
X1312182Y1135826D2*
X1490292D1*
X3624951Y558390D2*
Y500438D1*
X3563061Y558390D2*
X3624951D1*
X3737449D2*
Y500438D1*
Y558390D2*
X3799339D1*
X2643700D2*
Y500438D1*
X2581810Y558390D2*
X2643700D1*
X2756200D2*
Y500438D1*
Y558390D2*
X2818090D1*
X1651329D2*
Y500438D1*
X1589440Y558390D2*
X1651329D1*
X1762451D2*
Y500438D1*
Y558390D2*
X1824340D1*
X874951Y562524D2*
Y504571D1*
X813062Y562524D2*
X874951D1*
X987449Y564713D2*
Y506760D1*
Y564713D2*
X1049339D1*
D18*
X1276040Y635826D3*
X1401237Y735826D3*
X1276040Y835826D3*
X1401237Y935826D3*
X1276040Y1035826D3*
X1401237Y1135826D3*
D33*
X3937007Y984235D3*
Y787385D3*
X3740157D3*
Y984235D3*
D34*
X3624951Y558390D3*
Y668627D3*
X3737449D3*
Y558390D3*
D33*
X2952755Y984235D3*
Y787385D3*
X2755905D3*
Y984235D3*
D34*
X2643700Y558390D3*
Y668627D3*
X2756200D3*
Y558390D3*
D33*
X1968503Y984235D3*
Y787385D3*
X1771653D3*
Y984235D3*
D34*
X1651329Y558390D3*
Y668627D3*
X1762451D3*
Y558390D3*
D33*
X984251Y984235D3*
Y787385D3*
X787401D3*
Y984235D3*
D34*
X874951Y562524D3*
Y672760D3*
X987449Y674949D3*
Y564713D3*
M02*
