%TF.GenerationSoftware,Novarm,DipTrace,3.3.1.3*%
%TF.CreationDate,2019-10-28T02:51:35+00:00*%
%FSLAX26Y26*%
%MOIN*%
%TF.FileFunction,Legend,Top*%
%TF.Part,Single*%
%ADD10C,0.009843*%
%ADD17O,0.04467X0.043737*%
%ADD19C,0.015584*%
%ADD20C,0.032777*%
%ADD21C,0.012511*%
%ADD22C,0.012511*%
%ADD23C,0.012438*%
%ADD24C,0.012438*%
%ADD25C,0.013974*%
%ADD26O,0.015584X0.014044*%
%ADD27O,0.026485X0.032763*%
%ADD28O,0.007829X0.006247*%
%ADD29C,0.014047*%
%ADD30O,0.015657X0.014044*%
%ADD31O,0.012438X0.014044*%
%ADD32O,0.012438X0.010921*%
%ADD47C,0.004632*%
%ADD48C,0.009264*%
%ADD49C,0.006176*%
%ADD50C,0.111163*%
%ADD51C,0.024703*%
%ADD52C,0.067933*%
G75*
G01*
%LPD*%
D17*
X1435966Y1213957D3*
X1289611Y680237D2*
D10*
Y790523D1*
Y585939D2*
Y593673D1*
Y585939D2*
X1387665D1*
Y692130D1*
Y778695D2*
Y892816D1*
X1289611Y880273D2*
Y990559D1*
X1387665Y978666D2*
Y1092851D1*
X1289611Y1080373D2*
Y1185850D1*
X1387665Y1178831D2*
Y1185850D1*
X1289611D1*
G36*
X885912Y1320900D2*
X912429D1*
X917102Y1289702D1*
X935832Y1281899D1*
X960792Y1302189D1*
X981059Y1281899D1*
X960792Y1256944D1*
X968599Y1239775D1*
X999789Y1235093D1*
Y1207017D1*
X968599Y1203895D1*
X960792Y1185184D1*
X979502Y1160211D1*
X960792Y1141500D1*
X935832Y1160211D1*
X924909Y1155547D1*
X909314Y1192988D1*
X920237Y1202334D1*
X928024Y1213260D1*
Y1225746D1*
X924909Y1236654D1*
X915544Y1244458D1*
X904622Y1249140D1*
X892142D1*
X881219Y1242897D1*
X874989Y1233532D1*
X871874Y1221064D1*
X874989Y1208578D1*
X882797Y1197652D1*
X890584Y1192988D1*
X874989Y1155547D1*
X864067Y1160211D1*
X839107Y1141500D1*
X820397Y1160211D1*
X839107Y1186745D1*
X831299Y1203895D1*
X800109Y1207017D1*
Y1235093D1*
X832877Y1238215D1*
X839107Y1256944D1*
X818839Y1281899D1*
X839107Y1300628D1*
X864067Y1281899D1*
X882797Y1288142D1*
X885912Y1320900D1*
G37*
D19*
X3159049Y1033346D3*
G36*
X2992125Y1062986D2*
X3076483Y1206752D1*
X3142111Y1062986D1*
X2992125D1*
G37*
G36*
X3155939Y1200261D2*
X3215202D1*
X3223031Y1198711D1*
X3233932Y1194037D1*
X3241761Y1189363D1*
X3249516Y1183116D1*
X3254199Y1176869D1*
X3258881Y1167521D1*
X3260418Y1159701D1*
X3262027Y1148802D1*
X3260418Y1139432D1*
X3255735Y1128511D1*
X3249516Y1122264D1*
X3241761Y1116040D1*
X3232396Y1111343D1*
X3224567Y1108242D1*
X3272929Y1062986D1*
X3155939D1*
Y1200261D1*
G37*
G36*
X3254199D2*
X3397747D1*
X3377480Y1161274D1*
X3349385Y1156600D1*
X3340020Y1064559D1*
X3313462D1*
X3304097Y1156600D1*
X3276075Y1161274D1*
X3254199Y1200261D1*
G37*
G36*
X3411794Y1142556D2*
X3432061D1*
X3452327Y1062986D1*
X3393064D1*
X3411794Y1142556D1*
G37*
G36*
X3569316Y1089502D2*
X3500688Y1126961D1*
X3569316Y1162825D1*
X3559951Y1173746D1*
X3550586Y1179992D1*
X3538148Y1186239D1*
X3525637Y1189363D1*
X3511590D1*
X3499152Y1186239D1*
X3486641Y1181543D1*
X3475740Y1173746D1*
X3466375Y1162825D1*
X3460156Y1151904D1*
X3457010Y1139432D1*
X3455473Y1126961D1*
X3457010Y1112916D1*
X3460156Y1100423D1*
X3467911Y1087951D1*
X3477276Y1078603D1*
X3488177Y1070783D1*
X3500688Y1066109D1*
X3511590Y1062986D1*
X3525637D1*
X3538148Y1066109D1*
X3552196Y1072356D1*
X3569316Y1089502D1*
G37*
G36*
X3570853Y1064559D2*
X3634871Y1209632D1*
X3723766Y1062986D1*
X3570853Y1064559D1*
G37*
D20*
X3421891Y1185453D3*
G36*
X3074801Y1033346D2*
X3087312D1*
Y995910D1*
X3074801D1*
Y1033346D1*
G37*
D21*
X3081056Y1034908D3*
D22*
Y995910D3*
G36*
X3091994Y1033346D2*
X3104432D1*
Y995910D1*
X3091994D1*
Y1033346D1*
G37*
D23*
X3098213Y1034908D3*
D24*
Y995910D3*
G36*
X3132527Y1033346D2*
X3145038D1*
Y995910D1*
X3132527D1*
Y1033346D1*
G37*
D21*
X3138783Y1034908D3*
D22*
Y995910D3*
G36*
X3224567Y1031796D2*
X3237078D1*
Y994359D1*
X3224567D1*
Y1031796D1*
G37*
D21*
X3230823Y1033357D3*
Y994348D3*
D25*
X3195704Y1015403D3*
D26*
X3194899Y998258D3*
D19*
X3605203Y1033346D3*
G36*
X3212056Y1041144D2*
X3249516D1*
Y1028672D1*
X3212056D1*
Y1041144D1*
G37*
D21*
X3213629Y1034908D3*
D23*
X3247980D3*
G36*
X3262027Y1033346D2*
X3274465D1*
Y995910D1*
X3262027D1*
Y1033346D1*
G37*
D23*
X3268246Y1034908D3*
D24*
Y995910D3*
G36*
X3316608Y1033346D2*
X3329119D1*
Y1014628D1*
X3316608D1*
Y1033346D1*
G37*
D21*
X3322863Y1034908D3*
G36*
X3268246Y1041144D2*
X3302560D1*
Y1008381D1*
X3268246D1*
Y1041144D1*
G37*
G36*
X3357141Y1033346D2*
X3369652D1*
Y1019302D1*
X3357141D1*
Y1033346D1*
G37*
D21*
X3363396Y1034908D3*
D27*
X3300219Y1024763D3*
G36*
X3563097Y1031796D2*
X3575535D1*
Y994359D1*
X3563097D1*
Y1031796D1*
G37*
D23*
X3569316Y1033357D3*
Y994348D3*
G36*
X3550586Y1041144D2*
X3588046D1*
Y1028672D1*
X3550586D1*
Y1041144D1*
G37*
D21*
X3552159Y1034908D3*
X3586473D3*
G36*
X3430451Y1033346D2*
X3442962D1*
Y995910D1*
X3430451D1*
Y1033346D1*
G37*
D21*
X3436706Y1034908D3*
D22*
Y995910D3*
G36*
X3413331Y1033346D2*
X3425842D1*
Y995910D1*
X3413331D1*
Y1033346D1*
G37*
D21*
X3419586Y1034908D3*
D22*
Y995910D3*
G36*
X3372798Y1033346D2*
X3385236D1*
Y995910D1*
X3372798D1*
Y1033346D1*
G37*
D23*
X3379017Y1034908D3*
D24*
Y995910D3*
G36*
X3319754Y1017751D2*
X3329119D1*
Y1008381D1*
X3319754D1*
Y1017751D1*
G37*
D28*
X3398515Y1009954D3*
D29*
X3641895Y1015403D3*
D30*
X3641090Y998258D3*
G36*
X3606776Y1041144D2*
X3644236D1*
Y1028672D1*
X3606776D1*
Y1041144D1*
G37*
D23*
X3608313Y1034908D3*
D21*
X3642663D3*
G36*
X3602094Y1022425D2*
X3639554D1*
Y1011505D1*
X3602094D1*
Y1022425D1*
G37*
D31*
X3603630Y1018527D3*
G36*
X3602094Y1002156D2*
X3639554D1*
Y991236D1*
X3602094D1*
Y1002156D1*
G37*
G36*
X3098213Y1041144D2*
X3141892Y1002156D1*
X3140356Y989663D1*
X3134063Y992786D1*
X3098213Y1023998D1*
Y1041144D1*
G37*
G36*
X3486641Y1033346D2*
X3499152D1*
Y995910D1*
X3486641D1*
Y1033346D1*
G37*
D21*
X3492896Y1034908D3*
D22*
Y995910D3*
G36*
X3527174Y1033346D2*
X3539685D1*
Y995910D1*
X3527174D1*
Y1033346D1*
G37*
D21*
X3533429Y1034908D3*
D22*
Y995910D3*
G36*
X3492860Y1041144D2*
X3536539Y1002156D1*
X3535002Y989663D1*
X3528783Y992786D1*
X3492860Y1023998D1*
Y1041144D1*
G37*
G36*
X3160622D2*
X3198009D1*
Y1028672D1*
X3160622D1*
Y1041144D1*
G37*
D23*
X3162158Y1034908D3*
X3196472D3*
G36*
X3155939Y1022425D2*
X3193399D1*
Y1011505D1*
X3155939D1*
Y1022425D1*
G37*
D31*
X3157476Y1018527D3*
D32*
X3602094Y996696D3*
G36*
X3155939Y1002156D2*
X3193399D1*
Y991236D1*
X3155939D1*
Y1002156D1*
G37*
D32*
Y996696D3*
D23*
X3191790Y997471D3*
D22*
X3305670Y995910D3*
G36*
X3280757Y1009954D2*
X3301024Y991236D1*
X3310389Y1000584D1*
X3297878Y1013077D1*
X3280757Y1009954D1*
G37*
G36*
X3341557Y989663D2*
X3352458D1*
X3363433Y997482D1*
X3368115Y1008381D1*
X3369652Y1020875D1*
X3357141Y1022425D1*
X3355604Y1009954D1*
X3341557Y989663D1*
G37*
G36*
X3316608Y1020875D2*
Y1005280D1*
X3327509Y991236D1*
X3344703Y989663D1*
X3358750Y999033D1*
X3350922Y1003707D1*
X3344703Y1000584D1*
X3335338Y1002156D1*
X3316608Y1020875D1*
G37*
G36*
X3380553Y1041144D2*
X3399283Y1023998D1*
X3416477Y1039593D1*
X3422696Y1030223D1*
X3402429Y1009954D1*
X3394601D1*
X3380553Y1023998D1*
Y1041144D1*
G37*
G36*
X3151257Y1031796D2*
X3163695D1*
Y1019302D1*
X3151257D1*
Y1031796D1*
G37*
G36*
X3191790Y1013077D2*
X3202691D1*
Y999033D1*
X3191790D1*
Y1013077D1*
G37*
G36*
X3436743Y1042717D2*
X3474130D1*
Y1030223D1*
X3436743D1*
Y1042717D1*
G37*
D24*
X3438280Y1036470D3*
X3472593D3*
G36*
X3435133Y1022425D2*
X3472593D1*
Y1009954D1*
X3435133D1*
Y1022425D1*
G37*
D21*
X3436706Y1016190D3*
D23*
X3471057D3*
G36*
X3436743Y1002156D2*
X3474130D1*
Y989663D1*
X3436743D1*
Y1002156D1*
G37*
D24*
X3438280Y995910D3*
X3472593D3*
D21*
X3637981Y997471D3*
G36*
X3597411Y1031796D2*
X3609849D1*
Y1019302D1*
X3597411D1*
Y1031796D1*
G37*
G36*
X3637944Y1013077D2*
X3648919D1*
Y999033D1*
X3637944D1*
Y1013077D1*
G37*
X3579951Y517508D2*
D10*
X3669951D1*
Y709508D1*
X3579951D1*
Y517508D1*
X3782449Y709508D2*
X3692449D1*
Y517508D1*
X3782449D1*
Y709508D1*
X2598700Y517508D2*
X2688700D1*
Y709508D1*
X2598700D1*
Y517508D1*
X2801200Y709508D2*
X2711200D1*
Y517508D1*
X2801200D1*
Y709508D1*
X1606329Y517508D2*
X1696329D1*
Y709508D1*
X1606329D1*
Y517508D1*
X1807451Y709508D2*
X1717451D1*
Y517508D1*
X1807451D1*
Y709508D1*
X829951Y521642D2*
X919951D1*
Y713642D1*
X829951D1*
Y521642D1*
X1032449Y715831D2*
X942449D1*
Y523831D1*
X1032449D1*
Y715831D1*
X3591993Y501563D2*
D47*
X3594878Y503022D1*
X3599189Y507300D1*
Y477189D1*
X3617075Y507300D2*
X3612764Y505874D1*
X3609879Y501563D1*
X3608453Y494400D1*
Y490089D1*
X3609879Y482926D1*
X3612764Y478615D1*
X3617075Y477189D1*
X3619927D1*
X3624238Y478615D1*
X3627090Y482926D1*
X3628549Y490089D1*
Y494400D1*
X3627090Y501563D1*
X3624238Y505874D1*
X3619927Y507300D1*
X3617075D1*
X3627090Y501563D2*
X3609879Y482926D1*
X3637812Y507333D2*
Y477189D1*
X3657908Y507333D2*
X3637812Y487237D1*
X3644975Y494433D2*
X3657908Y477189D1*
X3689812Y501563D2*
X3692697Y503022D1*
X3697008Y507300D1*
Y477189D1*
X3714894Y507300D2*
X3710583Y505874D1*
X3707698Y501563D1*
X3706272Y494400D1*
Y490089D1*
X3707698Y482926D1*
X3710583Y478615D1*
X3714894Y477189D1*
X3717746D1*
X3722057Y478615D1*
X3724908Y482926D1*
X3726368Y490089D1*
Y494400D1*
X3724908Y501563D1*
X3722057Y505874D1*
X3717746Y507300D1*
X3714894D1*
X3724908Y501563D2*
X3707698Y482926D1*
X3744253Y507300D2*
X3739942Y505874D1*
X3737057Y501563D1*
X3735631Y494400D1*
Y490089D1*
X3737057Y482926D1*
X3739942Y478615D1*
X3744253Y477189D1*
X3747105D1*
X3751416Y478615D1*
X3754268Y482926D1*
X3755727Y490089D1*
Y494400D1*
X3754268Y501563D1*
X3751416Y505874D1*
X3747105Y507300D1*
X3744253D1*
X3754268Y501563D2*
X3737057Y482926D1*
X3785087Y507333D2*
Y477189D1*
X3764991Y507333D1*
Y477189D1*
X2610742Y501563D2*
X2613627Y503022D1*
X2617938Y507300D1*
Y477189D1*
X2635824Y507300D2*
X2631513Y505874D1*
X2628628Y501563D1*
X2627202Y494400D1*
Y490089D1*
X2628628Y482926D1*
X2631513Y478615D1*
X2635824Y477189D1*
X2638676D1*
X2642987Y478615D1*
X2645839Y482926D1*
X2647298Y490089D1*
Y494400D1*
X2645839Y501563D1*
X2642987Y505874D1*
X2638676Y507300D1*
X2635824D1*
X2645839Y501563D2*
X2628628Y482926D1*
X2656562Y507333D2*
Y477189D1*
X2676658Y507333D2*
X2656562Y487237D1*
X2663725Y494433D2*
X2676658Y477189D1*
X2708563Y501563D2*
X2711448Y503022D1*
X2715759Y507300D1*
Y477189D1*
X2733644Y507300D2*
X2729333Y505874D1*
X2726448Y501563D1*
X2725022Y494400D1*
Y490089D1*
X2726448Y482926D1*
X2729333Y478615D1*
X2733644Y477189D1*
X2736496D1*
X2740807Y478615D1*
X2743659Y482926D1*
X2745118Y490089D1*
Y494400D1*
X2743659Y501563D1*
X2740807Y505874D1*
X2736496Y507300D1*
X2733644D1*
X2743659Y501563D2*
X2726448Y482926D1*
X2763004Y507300D2*
X2758693Y505874D1*
X2755808Y501563D1*
X2754382Y494400D1*
Y490089D1*
X2755808Y482926D1*
X2758693Y478615D1*
X2763004Y477189D1*
X2765856D1*
X2770167Y478615D1*
X2773019Y482926D1*
X2774478Y490089D1*
Y494400D1*
X2773019Y501563D1*
X2770167Y505874D1*
X2765856Y507300D1*
X2763004D1*
X2773019Y501563D2*
X2755808Y482926D1*
X2803837Y507333D2*
Y477189D1*
X2783741Y507333D1*
Y477189D1*
X1618371Y501563D2*
X1621256Y503022D1*
X1625567Y507300D1*
Y477189D1*
X1643453Y507300D2*
X1639142Y505874D1*
X1636257Y501563D1*
X1634831Y494400D1*
Y490089D1*
X1636257Y482926D1*
X1639142Y478615D1*
X1643453Y477189D1*
X1646305D1*
X1650616Y478615D1*
X1653468Y482926D1*
X1654927Y490089D1*
Y494400D1*
X1653468Y501563D1*
X1650616Y505874D1*
X1646305Y507300D1*
X1643453D1*
X1653468Y501563D2*
X1636257Y482926D1*
X1664190Y507333D2*
Y477189D1*
X1684286Y507333D2*
X1664190Y487237D1*
X1671353Y494433D2*
X1684286Y477189D1*
X1714813Y501563D2*
X1717698Y503022D1*
X1722009Y507300D1*
Y477189D1*
X1739895Y507300D2*
X1735584Y505874D1*
X1732699Y501563D1*
X1731273Y494400D1*
Y490089D1*
X1732699Y482926D1*
X1735584Y478615D1*
X1739895Y477189D1*
X1742747D1*
X1747058Y478615D1*
X1749910Y482926D1*
X1751369Y490089D1*
Y494400D1*
X1749910Y501563D1*
X1747058Y505874D1*
X1742747Y507300D1*
X1739895D1*
X1749910Y501563D2*
X1732699Y482926D1*
X1769255Y507300D2*
X1764943Y505874D1*
X1762058Y501563D1*
X1760632Y494400D1*
Y490089D1*
X1762058Y482926D1*
X1764943Y478615D1*
X1769255Y477189D1*
X1772106D1*
X1776417Y478615D1*
X1779269Y482926D1*
X1780728Y490089D1*
Y494400D1*
X1779269Y501563D1*
X1776417Y505874D1*
X1772106Y507300D1*
X1769255D1*
X1779269Y501563D2*
X1762058Y482926D1*
X1810088Y507333D2*
Y477189D1*
X1789992Y507333D1*
Y477189D1*
X841993Y505697D2*
X844878Y507156D1*
X849189Y511434D1*
Y481323D1*
X867075Y511434D2*
X862764Y510008D1*
X859879Y505697D1*
X858453Y498534D1*
Y494223D1*
X859879Y487060D1*
X862764Y482749D1*
X867075Y481323D1*
X869927D1*
X874238Y482749D1*
X877090Y487060D1*
X878549Y494223D1*
Y498534D1*
X877090Y505697D1*
X874238Y510008D1*
X869927Y511434D1*
X867075D1*
X877090Y505697D2*
X859879Y487060D1*
X887812Y511467D2*
Y481323D1*
X907908Y511467D2*
X887812Y491371D1*
X894975Y498567D2*
X907908Y481323D1*
X939812Y507886D2*
X942697Y509345D1*
X947008Y513623D1*
Y483512D1*
X964894Y513623D2*
X960583Y512197D1*
X957698Y507886D1*
X956272Y500723D1*
Y496412D1*
X957698Y489249D1*
X960583Y484938D1*
X964894Y483512D1*
X967746D1*
X972057Y484938D1*
X974908Y489249D1*
X976368Y496412D1*
Y500723D1*
X974908Y507886D1*
X972057Y512197D1*
X967746Y513623D1*
X964894D1*
X974908Y507886D2*
X957698Y489249D1*
X994253Y513623D2*
X989942Y512197D1*
X987057Y507886D1*
X985631Y500723D1*
Y496412D1*
X987057Y489249D1*
X989942Y484938D1*
X994253Y483512D1*
X997105D1*
X1001416Y484938D1*
X1004268Y489249D1*
X1005727Y496412D1*
Y500723D1*
X1004268Y507886D1*
X1001416Y512197D1*
X997105Y513623D1*
X994253D1*
X1004268Y507886D2*
X987057Y489249D1*
X1035087Y513656D2*
Y483512D1*
X1014991Y513656D1*
Y483512D1*
X1499262Y747926D2*
D48*
Y750778D1*
X1502114Y756548D1*
X1504966Y759400D1*
X1510736Y762252D1*
X1522210D1*
X1527914Y759400D1*
X1530765Y756548D1*
X1533684Y750778D1*
Y745074D1*
X1530765Y739304D1*
X1525062Y730748D1*
X1496344Y702030D1*
X1536536D1*
X1499859Y1138393D2*
X1533021D1*
X1516407Y1064227D2*
Y1012561D1*
X1490607Y1038361D2*
X1542273D1*
X1523636Y908282D2*
Y968504D1*
X1494918Y928378D1*
X1537962D1*
X1502114Y868506D2*
X1533617D1*
X1516440Y845558D1*
X1525062D1*
X1530765Y842707D1*
X1533617Y839855D1*
X1536536Y831233D1*
Y825529D1*
X1533617Y816907D1*
X1527914Y811137D1*
X1519291Y808285D1*
X1510669D1*
X1502114Y811137D1*
X1499262Y814055D1*
X1496344Y819759D1*
X1502995Y644530D2*
X1508765Y647448D1*
X1517387Y656004D1*
Y595782D1*
X884362Y907030D2*
X890132Y909948D1*
X898754Y918504D1*
Y858282D1*
X3037856Y954167D2*
D49*
X3039757Y952266D1*
X3041703Y954167D1*
X3039757Y956113D1*
X3037856Y954167D1*
X3039757Y940770D2*
Y913975D1*
X3054054Y940770D2*
Y913975D1*
Y933121D2*
X3059802Y938869D1*
X3063649Y940770D1*
X3069353D1*
X3073200Y938869D1*
X3075101Y933121D1*
Y913975D1*
X3108499Y935022D2*
X3106598Y938869D1*
X3100850Y940770D1*
X3095102D1*
X3089354Y938869D1*
X3087452Y935022D1*
X3089354Y931219D1*
X3093200Y929274D1*
X3102751Y927372D1*
X3106598Y925471D1*
X3108499Y921624D1*
Y919723D1*
X3106598Y915921D1*
X3100850Y913975D1*
X3095102D1*
X3089354Y915921D1*
X3087452Y919723D1*
X3126598Y954167D2*
Y921624D1*
X3128500Y915921D1*
X3132346Y913975D1*
X3136149D1*
X3120850Y940770D2*
X3134248D1*
X3148500D2*
Y913975D1*
Y929274D2*
X3150446Y935022D1*
X3154248Y938869D1*
X3158095Y940770D1*
X3163843D1*
X3176195D2*
Y921624D1*
X3178096Y915921D1*
X3181943Y913975D1*
X3187691D1*
X3191493Y915921D1*
X3197241Y921624D1*
Y940770D2*
Y913975D1*
X3209593Y940770D2*
Y913975D1*
Y933121D2*
X3215341Y938869D1*
X3219187Y940770D1*
X3224891D1*
X3228738Y938869D1*
X3230639Y933121D1*
Y913975D1*
Y933121D2*
X3236387Y938869D1*
X3240234Y940770D1*
X3245938D1*
X3249785Y938869D1*
X3251730Y933121D1*
Y913975D1*
X3264081Y929274D2*
X3287029D1*
Y933121D1*
X3285128Y936967D1*
X3283227Y938869D1*
X3279380Y940770D1*
X3273632D1*
X3269829Y938869D1*
X3265983Y935022D1*
X3264081Y929274D1*
Y925471D1*
X3265983Y919723D1*
X3269829Y915921D1*
X3273632Y913975D1*
X3279380D1*
X3283227Y915921D1*
X3287029Y919723D1*
X3299381Y940770D2*
Y913975D1*
Y933121D2*
X3305129Y938869D1*
X3308976Y940770D1*
X3314679D1*
X3318526Y938869D1*
X3320427Y933121D1*
Y913975D1*
X3338527Y954167D2*
Y921624D1*
X3340428Y915921D1*
X3344275Y913975D1*
X3348077D1*
X3332779Y940770D2*
X3346176D1*
X3381475Y935022D2*
X3379574Y938869D1*
X3373826Y940770D1*
X3368078D1*
X3362330Y938869D1*
X3360429Y935022D1*
X3362330Y931219D1*
X3366177Y929274D1*
X3375727Y927372D1*
X3379574Y925471D1*
X3381475Y921624D1*
Y919723D1*
X3379574Y915921D1*
X3373826Y913975D1*
X3368078D1*
X3362330Y915921D1*
X3360429Y919723D1*
X3395728Y917822D2*
X3393827Y915876D1*
X3395728Y913975D1*
X3397674Y915876D1*
X3395728Y917822D1*
X3432973Y940770D2*
Y913975D1*
Y935022D2*
X3429170Y938869D1*
X3425324Y940770D1*
X3419620D1*
X3415773Y938869D1*
X3411970Y935022D1*
X3410025Y929274D1*
Y925471D1*
X3411970Y919723D1*
X3415773Y915921D1*
X3419620Y913975D1*
X3425324D1*
X3429170Y915921D1*
X3432973Y919723D1*
X3445324Y940770D2*
Y913975D1*
Y929274D2*
X3447270Y935022D1*
X3451072Y938869D1*
X3454919Y940770D1*
X3460667D1*
X3478767Y954167D2*
Y921624D1*
X3480668Y915921D1*
X3484515Y913975D1*
X3488317D1*
X3473019Y940770D2*
X3486416D1*
X3500669Y954167D2*
X3502570Y952266D1*
X3504515Y954167D1*
X3502570Y956113D1*
X3500669Y954167D1*
X3502570Y940770D2*
Y913975D1*
X3539859Y935022D2*
X3536012Y938869D1*
X3532165Y940770D1*
X3526461D1*
X3522615Y938869D1*
X3518812Y935022D1*
X3516867Y929274D1*
Y925471D1*
X3518812Y919723D1*
X3522615Y915921D1*
X3526461Y913975D1*
X3532165D1*
X3536012Y915921D1*
X3539859Y919723D1*
X3575158Y940770D2*
Y913975D1*
Y935022D2*
X3571356Y938869D1*
X3567509Y940770D1*
X3561805D1*
X3557958Y938869D1*
X3554156Y935022D1*
X3552210Y929274D1*
Y925471D1*
X3554156Y919723D1*
X3557958Y915921D1*
X3561805Y913975D1*
X3567509D1*
X3571356Y915921D1*
X3575158Y919723D1*
X3589411Y917822D2*
X3587510Y915876D1*
X3589411Y913975D1*
X3591356Y915876D1*
X3589411Y917822D1*
X3626700Y935022D2*
X3622853Y938869D1*
X3619006Y940770D1*
X3613302D1*
X3609456Y938869D1*
X3605653Y935022D1*
X3603708Y929274D1*
Y925471D1*
X3605653Y919723D1*
X3609456Y915921D1*
X3613302Y913975D1*
X3619006D1*
X3622853Y915921D1*
X3626700Y919723D1*
X3662043Y935022D2*
X3658197Y938869D1*
X3654350Y940770D1*
X3648646D1*
X3644799Y938869D1*
X3640997Y935022D1*
X3639051Y929274D1*
Y925471D1*
X3640997Y919723D1*
X3644799Y915921D1*
X3648646Y913975D1*
X3654350D1*
X3658197Y915921D1*
X3662043Y919723D1*
X2833883Y899753D2*
D48*
X2865386D1*
X2848209Y876805D1*
X2856831D1*
X2862534Y873953D1*
X2865386Y871101D1*
X2868305Y862479D1*
Y856775D1*
X2865386Y848153D1*
X2859683Y842383D1*
X2851061Y839531D1*
X2842438D1*
X2833883Y842383D1*
X2831031Y845302D1*
X2828113Y851005D1*
X3844332Y852031D2*
Y912253D1*
X3815614Y872127D1*
X3858658D1*
X771496Y1087896D2*
D47*
X770070Y1090748D1*
X767185Y1093633D1*
X764333Y1095059D1*
X758596D1*
X755711Y1093633D1*
X752859Y1090748D1*
X751400Y1087896D1*
X749974Y1083585D1*
Y1076389D1*
X751400Y1072111D1*
X752859Y1069226D1*
X755711Y1066374D1*
X758596Y1064915D1*
X764333D1*
X767185Y1066374D1*
X770070Y1069226D1*
X771496Y1072111D1*
X802281Y1087896D2*
X800855Y1090748D1*
X797970Y1093633D1*
X795118Y1095059D1*
X789381D1*
X786496Y1093633D1*
X783644Y1090748D1*
X782185Y1087896D1*
X780759Y1083585D1*
Y1076389D1*
X782185Y1072111D1*
X783644Y1069226D1*
X786496Y1066374D1*
X789381Y1064915D1*
X795118D1*
X797970Y1066374D1*
X800855Y1069226D1*
X802281Y1072111D1*
X840705Y1095059D2*
Y1064915D1*
X853639D1*
X857950Y1066374D1*
X859376Y1067800D1*
X860801Y1070652D1*
Y1074963D1*
X859376Y1077848D1*
X857950Y1079274D1*
X853639Y1080700D1*
X857950Y1082159D1*
X859376Y1083585D1*
X860801Y1086437D1*
Y1089322D1*
X859376Y1092174D1*
X857950Y1093633D1*
X853639Y1095059D1*
X840705D1*
Y1080700D2*
X853639D1*
X870065Y1095059D2*
X881539Y1080700D1*
Y1064915D1*
X893013Y1095059D2*
X881539Y1080700D1*
X902276Y1079970D2*
X918857D1*
X948217Y1090748D2*
X945365Y1093633D1*
X941054Y1095059D1*
X935317D1*
X931006Y1093633D1*
X928121Y1090748D1*
Y1087896D1*
X929580Y1085011D1*
X931006Y1083585D1*
X933858Y1082159D1*
X942480Y1079274D1*
X945365Y1077848D1*
X946791Y1076389D1*
X948217Y1073537D1*
Y1069226D1*
X945365Y1066374D1*
X941054Y1064915D1*
X935317D1*
X931006Y1066374D1*
X928121Y1069226D1*
X980462Y1064915D2*
X968954Y1095059D1*
X957480Y1064915D1*
X961791Y1074963D2*
X976150D1*
X1033245Y1064915D2*
Y1095026D1*
X1018886Y1074963D1*
X1040408D1*
X1051097Y1067800D2*
X1049671Y1066341D1*
X1051097Y1064915D1*
X1052556Y1066341D1*
X1051097Y1067800D1*
X1070442Y1095026D2*
X1066131Y1093600D1*
X1063246Y1089289D1*
X1061820Y1082126D1*
Y1077815D1*
X1063246Y1070652D1*
X1066131Y1066341D1*
X1070442Y1064915D1*
X1073294D1*
X1077605Y1066341D1*
X1080457Y1070652D1*
X1081916Y1077815D1*
Y1082126D1*
X1080457Y1089289D1*
X1077605Y1093600D1*
X1073294Y1095026D1*
X1070442D1*
X1080457Y1089289D2*
X1063246Y1070652D1*
X2018083Y545603D2*
D50*
Y1268263D1*
X1673466Y786755D1*
X2189993D1*
X2154716Y1269059D2*
Y545603D1*
X2465109D1*
X2568574Y580622D1*
X2602797Y614845D1*
X2637020Y683291D1*
Y786755D1*
X2602797Y855997D1*
X2568574Y890220D1*
X2465109Y924443D1*
X2568574Y959461D1*
X2602797Y993684D1*
X2637020Y1062130D1*
Y1131372D1*
X2602797Y1199817D1*
X2568574Y1234836D1*
X2465109Y1269059D1*
X2154716D1*
Y924443D2*
X2465109D1*
X2268267Y1174454D2*
D49*
Y1147659D1*
Y1168706D2*
X2264465Y1172552D1*
X2260618Y1174454D1*
X2254914D1*
X2251067Y1172552D1*
X2247265Y1168706D1*
X2245319Y1162957D1*
Y1159155D1*
X2247265Y1153407D1*
X2251067Y1149604D1*
X2254914Y1147659D1*
X2260618D1*
X2264465Y1149604D1*
X2268267Y1153407D1*
X2280619Y1187851D2*
Y1147659D1*
X2292970Y1174454D2*
Y1134262D1*
Y1168706D2*
X2296817Y1172508D1*
X2300619Y1174454D1*
X2306367D1*
X2310214Y1172508D1*
X2314017Y1168706D1*
X2315962Y1162957D1*
Y1159111D1*
X2314017Y1153407D1*
X2310214Y1149560D1*
X2306367Y1147659D1*
X2300619D1*
X2296817Y1149560D1*
X2292970Y1153407D1*
X2328314Y1187851D2*
Y1147659D1*
Y1166804D2*
X2334062Y1172552D1*
X2337908Y1174454D1*
X2343656D1*
X2347459Y1172552D1*
X2349360Y1166804D1*
Y1147659D1*
X2384660Y1174454D2*
Y1147659D1*
Y1168706D2*
X2380857Y1172552D1*
X2377010Y1174454D1*
X2371306D1*
X2367460Y1172552D1*
X2363657Y1168706D1*
X2361712Y1162957D1*
Y1159155D1*
X2363657Y1153407D1*
X2367460Y1149604D1*
X2371306Y1147659D1*
X2377010D1*
X2380857Y1149604D1*
X2384660Y1153407D1*
X2398912Y1151506D2*
X2397011Y1149560D1*
X2398912Y1147659D1*
X2400858Y1149560D1*
X2398912Y1151506D1*
X2436157Y1187807D2*
X2417056D1*
X2415155Y1170607D1*
X2417056Y1172508D1*
X2422804Y1174454D1*
X2428508D1*
X2434256Y1172508D1*
X2438102Y1168706D1*
X2440004Y1162957D1*
Y1159155D1*
X2438102Y1153407D1*
X2434256Y1149560D1*
X2428508Y1147659D1*
X2422804D1*
X2417056Y1149560D1*
X2415155Y1151506D1*
X2413209Y1155308D1*
X3090125Y664787D2*
D51*
X3082520Y679997D1*
X3059528Y687602D1*
X3044318D1*
X3021326Y679997D1*
X3005939Y657005D1*
X2998334Y618802D1*
Y580600D1*
X3005939Y550003D1*
X3021326Y534616D1*
X3044318Y527011D1*
X3051923D1*
X3074738Y534616D1*
X3090125Y550003D1*
X3097730Y572995D1*
Y580600D1*
X3090125Y603592D1*
X3074738Y618802D1*
X3051923Y626407D1*
X3044318D1*
X3021326Y618802D1*
X3005939Y603592D1*
X2998334Y580600D1*
X3147136Y611197D2*
X3215935D1*
X3238928Y618979D1*
X3246709Y626584D1*
X3254315Y641794D1*
Y657181D1*
X3246709Y672392D1*
X3238928Y680174D1*
X3215935Y687779D1*
X3147136D1*
Y527011D1*
X3200725Y611197D2*
X3254315Y527011D1*
X2732448Y999058D2*
D52*
Y556946D1*
X2879819D1*
X2943048Y578346D1*
X2985362Y620174D1*
X3006276Y662489D1*
X3027190Y725231D1*
Y830773D1*
X3006276Y894002D1*
X2985362Y935830D1*
X2943048Y978144D1*
X2879819Y999058D1*
X2732448D1*
X2212488Y677945D2*
D48*
Y634901D1*
X2215340Y626279D1*
X2221110Y620576D1*
X2229732Y617657D1*
X2235436D1*
X2244058Y620576D1*
X2249828Y626279D1*
X2252680Y634901D1*
Y677945D1*
X2291303D2*
Y617657D1*
X2271207Y677945D2*
X2311399D1*
X2350022D2*
Y617657D1*
X2329926Y677945D2*
X2370118D1*
X2405889D2*
X2400119Y675093D1*
X2394415Y669323D1*
X2391497Y663620D1*
X2388645Y654997D1*
Y640605D1*
X2391497Y632050D1*
X2394415Y626279D1*
X2400119Y620576D1*
X2405889Y617657D1*
X2417363D1*
X2423067Y620576D1*
X2428837Y626279D1*
X2431689Y632050D1*
X2434541Y640605D1*
Y654997D1*
X2431689Y663620D1*
X2428837Y669323D1*
X2423067Y675093D1*
X2417363Y677945D1*
X2405889D1*
X2493260D2*
Y617657D1*
X2453068Y677945D1*
Y617657D1*
X1856031Y897927D2*
Y900779D1*
X1858883Y906549D1*
X1861735Y909401D1*
X1867505Y912253D1*
X1878979D1*
X1884683Y909401D1*
X1887534Y906549D1*
X1890453Y900779D1*
Y895075D1*
X1887534Y889305D1*
X1881831Y880749D1*
X1853113Y852031D1*
X1893305D1*
M02*
