<svg version="1.1" xmlns="http://www.w3.org/2000/svg" xmlns:xlink="http://www.w3.org/1999/xlink" stroke-linecap="round" stroke-linejoin="round" stroke-width="0" fill-rule="evenodd" clip-rule="evenodd" id="gBYkD8xLMYlWk6MH-HrE_top" viewBox="393.701 393.701 3937.008 984.252" width="3.9370079999999996in" height="0.9842519999999999in" class="w-100 h-100"><defs><style>.gBYkD8xLMYlWk6MH-HrE_fr4 {color: #666666;}
.gBYkD8xLMYlWk6MH-HrE_cu {color: #cccccc;}
.gBYkD8xLMYlWk6MH-HrE_cf {color: #cc9933;}
.gBYkD8xLMYlWk6MH-HrE_sm {color: #004200; opacity: 0.75;}
.gBYkD8xLMYlWk6MH-HrE_ss {color: #ffffff;}
.gBYkD8xLMYlWk6MH-HrE_sp {color: #999999;}
.gBYkD8xLMYlWk6MH-HrE_out {color: #000000;}</style><circle cx="0" cy="0" r="20" id="KBzsiXHiZS4rtGbEfOLN_pad-35"/><rect x="-35.433" y="-31.496" width="70.866" height="62.992" id="KBzsiXHiZS4rtGbEfOLN_pad-17"/><rect x="-62.5985" y="-25" width="125.197" height="50" id="KBzsiXHiZS4rtGbEfOLN_pad-19"/><circle cx="0" cy="0" r="40" id="KBzsiXHiZS4rtGbEfOLN_pad-34"/><rect x="-22.335" y="-21.8685" width="44.67" height="43.737" rx="21.8685" ry="21.8685" id="kuexVh0djgNJGNmqkwB0_pad-18"/><circle cx="0" cy="0" r="7.792" id="kuexVh0djgNJGNmqkwB0_pad-20"/><circle cx="0" cy="0" r="16.3885" id="kuexVh0djgNJGNmqkwB0_pad-21"/><circle cx="0" cy="0" r="6.2555" id="kuexVh0djgNJGNmqkwB0_pad-22"/><circle cx="0" cy="0" r="6.2555" id="kuexVh0djgNJGNmqkwB0_pad-23"/><circle cx="0" cy="0" r="6.219" id="kuexVh0djgNJGNmqkwB0_pad-24"/><circle cx="0" cy="0" r="6.219" id="kuexVh0djgNJGNmqkwB0_pad-25"/><circle cx="0" cy="0" r="6.987" id="kuexVh0djgNJGNmqkwB0_pad-26"/><rect x="-7.792" y="-7.022" width="15.584" height="14.044" rx="7.022" ry="7.022" id="kuexVh0djgNJGNmqkwB0_pad-27"/><rect x="-13.2425" y="-16.3815" width="26.485" height="32.763" rx="13.2425" ry="13.2425" id="kuexVh0djgNJGNmqkwB0_pad-28"/><rect x="-3.9145" y="-3.1235" width="7.829" height="6.247" rx="3.1235" ry="3.1235" id="kuexVh0djgNJGNmqkwB0_pad-29"/><circle cx="0" cy="0" r="7.0235" id="kuexVh0djgNJGNmqkwB0_pad-30"/><rect x="-7.8285" y="-7.022" width="15.657" height="14.044" rx="7.022" ry="7.022" id="kuexVh0djgNJGNmqkwB0_pad-31"/><rect x="-6.219" y="-7.022" width="12.438" height="14.044" rx="6.219" ry="6.219" id="kuexVh0djgNJGNmqkwB0_pad-32"/><rect x="-6.219" y="-5.4605" width="12.438" height="10.921" rx="5.4605" ry="5.4605" id="kuexVh0djgNJGNmqkwB0_pad-33"/><rect x="-39.37" y="-35.433" width="78.74" height="70.866" id="uvCcsOucWeo4dcDbl7n7_pad-45"/><circle cx="0" cy="0" r="59.055" id="uvCcsOucWeo4dcDbl7n7_pad-37"/><rect x="-66.5355" y="-28.937" width="133.071" height="57.874" id="uvCcsOucWeo4dcDbl7n7_pad-43"/><circle cx="0" cy="0" r="43.937" id="uvCcsOucWeo4dcDbl7n7_pad-41"/><circle cx="0" cy="0" r="9.55" id="UKAtd4igKmoA9jsS6rAi_pad-1"/><circle cx="0" cy="0" r="20" id="UKAtd4igKmoA9jsS6rAi_pad-2"/><circle cx="0" cy="0" r="59.05" id="UKAtd4igKmoA9jsS6rAi_pad-3"/><g id="gBYkD8xLMYlWk6MH-HrE_top_copper"><path d="M 3740.157 984.241 3740.157 787.391 3740.157 671.335 3737.45 668.627 3624.951 668.627 M 1401.238 935.827 1657.824 935.827 1687.45 906.201 3424.951 906.201 3618.701 712.451 3618.701 668.627 3624.951 668.627 M 2755.906 787.391 2755.906 668.923 2756.201 668.627 2643.701 668.627 M 1276.041 835.827 1654.576 835.827 1687.45 868.701 2487.451 868.701 2643.701 712.451 2643.701 668.627 M 1651.329 668.627 1762.451 668.627 1762.451 778.189 1771.654 787.391 M 1401.238 735.827 1584.13 735.827 1651.329 668.627 M 787.402 787.396 787.402 760.311 874.951 672.761 985.261 672.761 987.45 674.95 M 787.402 984.247 787.402 787.396 M 1276.041 635.827 1276.041 637.45 1143.701 637.45 1106.201 674.95 987.45 674.95" fill="none" stroke-width="12"/><path d="M 984.252 787.396 984.252 984.247 1115.496 984.247 1167.076 1035.827 1276.041 1035.827 1443.701 1035.827 M 3937.008 984.247 3937.008 787.396" fill="none" stroke-width="22"/><use xlink:href="#KBzsiXHiZS4rtGbEfOLN_pad-35" x="1443.701" y="1035.827"/><path d="M 644.94 1313.025 4079.474 1313.025 M 644.94 1288.156 4079.474 1288.156 M 644.94 1263.287 4079.474 1263.287 M 644.94 1238.419 4079.474 1238.419 M 644.94 1213.55 4079.474 1213.55 M 644.94 1188.681 4079.474 1188.681 M 644.94 1163.812 1309.646 1163.812 M 1492.811 1163.812 4079.474 1163.812 M 644.94 1138.944 1309.646 1138.944 M 1492.811 1138.944 4079.474 1138.944 M 644.94 1114.075 1309.646 1114.075 M 1492.811 1114.075 4079.474 1114.075 M 644.94 1089.206 1309.646 1089.206 M 1492.811 1089.206 4079.474 1089.206 M 644.94 1064.337 1140.236 1064.337 M 1482.942 1064.337 4079.474 1064.337 M 644.94 1039.469 747.879 1039.469 M 826.908 1039.469 944.739 1039.469 M 1023.769 1039.469 1115.189 1039.469 M 1492.559 1039.469 1732.146 1039.469 M 1811.176 1039.469 1929.007 1039.469 M 2008 1039.469 2716.413 1039.469 M 2795.407 1039.469 2913.239 1039.469 M 2992.268 1039.469 3700.644 1039.469 M 3779.675 1039.469 3897.505 1039.469 M 3976.499 1039.469 4079.474 1039.469 M 644.94 1014.6 725.739 1014.6 M 849.049 1014.6 922.598 1014.6 M 1487.572 1014.6 1710.005 1014.6 M 1833.316 1014.6 1906.866 1014.6 M 2030.14 1014.6 2694.273 1014.6 M 2817.547 1014.6 2891.097 1014.6 M 3014.408 1014.6 3678.504 1014.6 M 3801.815 1014.6 3875.365 1014.6 M 3998.639 1014.6 4079.474 1014.6 M 644.94 989.731 718.634 989.731 M 856.154 989.731 915.493 989.731 M 1367.647 989.731 1435.133 989.731 M 1452.264 989.731 1702.9 989.731 M 1840.421 989.731 1899.726 989.731 M 2037.282 989.731 2687.133 989.731 M 2824.652 989.731 2883.992 989.731 M 3021.513 989.731 3671.399 989.731 M 3808.92 989.731 3868.26 989.731 M 4005.781 989.731 4079.474 989.731 M 644.94 964.862 721.289 964.862 M 853.499 964.862 918.15 964.862 M 1674.923 964.862 1705.556 964.862 M 1837.765 964.862 1902.381 964.862 M 2034.626 964.862 2689.787 964.862 M 2822.033 964.862 2886.648 964.862 M 3018.857 964.862 3674.055 964.862 M 3806.264 964.862 3870.916 964.862 M 4003.125 964.862 4079.474 964.862 M 644.94 939.993 735.248 939.993 M 839.539 939.993 932.108 939.993 M 1702.123 939.993 1719.514 939.993 M 1823.807 939.993 1916.375 939.993 M 2020.667 939.993 2703.747 939.993 M 2808.038 939.993 2900.608 939.993 M 3004.899 939.993 3688.013 939.993 M 3792.306 939.993 3884.874 939.993 M 3989.165 939.993 4079.474 939.993 M 644.94 915.125 752.4 915.125 M 822.387 915.125 944.273 915.125 M 3464.467 915.125 3705.167 915.125 M 3775.152 915.125 3897.003 915.125 M 3977.001 915.125 4079.474 915.125 M 644.94 890.256 752.4 890.256 M 822.387 890.256 944.273 890.256 M 3489.335 890.256 3705.167 890.256 M 3775.152 890.256 3897.003 890.256 M 3977.001 890.256 4079.474 890.256 M 644.94 865.387 752.4 865.387 M 822.387 865.387 944.273 865.387 M 2539.23 865.387 3417.303 865.387 M 3514.203 865.387 3705.167 865.387 M 3775.152 865.387 3897.003 865.387 M 3977.001 865.387 4079.474 865.387 M 644.94 840.518 744.936 840.518 M 829.85 840.518 941.797 840.518 M 2564.097 840.518 2713.436 840.518 M 2798.385 840.518 2910.295 840.518 M 2995.21 840.518 3442.171 840.518 M 3539.071 840.518 3697.702 840.518 M 3782.617 840.518 3894.563 840.518 M 3979.478 840.518 4079.474 840.518 M 644.94 815.65 724.734 815.65 M 850.089 815.65 921.558 815.65 M 1834.32 815.65 1905.825 815.65 M 2031.181 815.65 2492.066 815.65 M 2588.965 815.65 2693.232 815.65 M 2818.588 815.65 2890.058 815.65 M 3015.449 815.65 3467.039 815.65 M 3563.938 815.65 3677.463 815.65 M 3802.856 815.65 3874.324 815.65 M 3999.68 815.65 4079.474 815.65 M 644.94 790.781 718.49 790.781 M 856.297 790.781 915.35 790.781 M 1840.564 790.781 1899.581 790.781 M 2037.425 790.781 2516.933 790.781 M 2613.833 790.781 2686.988 790.781 M 2824.795 790.781 2883.849 790.781 M 3021.656 790.781 3491.907 790.781 M 3588.806 790.781 3671.256 790.781 M 3809.063 790.781 3868.117 790.781 M 4005.924 790.781 4079.474 790.781 M 644.94 765.912 721.97 765.912 M 852.852 765.912 918.831 765.912 M 1837.084 765.912 1903.063 765.912 M 2033.945 765.912 2541.801 765.912 M 2638.701 765.912 2690.47 765.912 M 2821.35 765.912 2887.329 765.912 M 3018.176 765.912 3516.774 765.912 M 3613.673 765.912 3674.736 765.912 M 3805.583 765.912 3871.562 765.912 M 4002.444 765.912 4079.474 765.912 M 644.94 741.043 737.222 741.043 M 855.113 741.043 934.046 741.043 M 1821.833 741.043 1918.314 741.043 M 2018.693 741.043 2566.669 741.043 M 2663.568 741.043 2705.72 741.043 M 2806.1 741.043 2902.58 741.043 M 3002.961 741.043 3541.642 741.043 M 3638.577 741.043 3689.951 741.043 M 3790.367 741.043 3886.812 741.043 M 3987.193 741.043 4079.474 741.043 M 644.94 716.175 783.081 716.175 M 1826.892 716.175 2579.264 716.175 M 2820.634 716.175 3560.517 716.175 M 3801.886 716.175 4079.474 716.175 M 644.94 691.306 807.949 691.306 M 1492.811 691.306 1580.213 691.306 M 1826.892 691.306 2579.264 691.306 M 2820.634 691.306 3560.517 691.306 M 3801.886 691.306 4079.474 691.306 M 644.94 666.437 810.533 666.437 M 1367.647 666.437 1586.887 666.437 M 1826.892 666.437 2579.264 666.437 M 2820.634 666.437 3560.517 666.437 M 3801.886 666.437 4079.474 666.437 M 644.94 641.568 810.533 641.568 M 1051.866 641.568 1091.147 641.568 M 1367.647 641.568 1586.887 641.568 M 1826.892 641.568 2579.264 641.568 M 2820.634 641.568 3560.517 641.568 M 3801.886 641.568 4079.474 641.568 M 644.94 616.699 810.533 616.699 M 1051.866 616.699 1116.014 616.699 M 1367.647 616.699 1586.887 616.699 M 1826.892 616.699 2579.264 616.699 M 2820.634 616.699 3560.517 616.699 M 3801.886 616.699 4079.474 616.699 M 644.94 591.831 810.533 591.831 M 1051.866 591.831 1184.446 591.831 M 1367.647 591.831 1586.887 591.831 M 1826.892 591.831 2579.264 591.831 M 2820.634 591.831 3560.517 591.831 M 3801.886 591.831 4079.474 591.831 M 644.94 566.962 810.533 566.962 M 1051.866 566.962 1586.887 566.962 M 1826.892 566.962 2579.264 566.962 M 2820.634 566.962 3560.517 566.962 M 3801.886 566.962 4079.474 566.962 M 644.94 542.093 810.533 542.093 M 1051.866 542.093 1586.887 542.093 M 1826.892 542.093 2579.264 542.093 M 2820.634 542.093 3560.517 542.093 M 3801.886 542.093 4079.474 542.093 M 644.94 517.224 810.533 517.224 M 1051.866 517.224 1586.887 517.224 M 1826.892 517.224 2579.264 517.224 M 2820.634 517.224 3560.517 517.224 M 3801.886 517.224 4079.474 517.224 M 644.94 492.356 4079.474 492.356 M 644.94 467.487 4079.474 467.487 M 644.94 442.618 4079.474 442.618 M 1365.131 684.34 1365.131 584.335 1186.95 584.335 1186.95 604.969 1141.151 605.058 1136.115 605.856 1131.266 607.432 1126.723 609.745 1122.598 612.743 1092.738 642.462 1049.396 642.458 1049.375 506.726 936.877 506.602 936.877 504.537 813.026 504.537 813.001 688.76 780.497 721.264 771.879 722.72 761.957 725.945 752.66 730.681 744.218 736.814 736.841 744.192 730.707 752.633 725.971 761.929 722.747 771.853 721.114 782.157 721.114 792.592 722.747 802.898 725.971 812.82 730.707 822.117 736.841 830.558 744.218 837.936 752.66 844.068 754.92 845.335 754.909 926.232 748.319 930.432 740.385 937.209 733.609 945.142 728.156 954.038 724.164 963.678 721.728 973.824 720.909 984.226 721.728 994.627 724.164 1004.773 728.156 1014.412 733.609 1023.308 740.385 1031.243 748.319 1038.018 757.215 1043.47 766.854 1047.463 777 1049.899 787.402 1050.718 797.803 1049.899 807.949 1047.463 817.588 1043.47 826.484 1038.018 834.419 1031.243 841.194 1023.308 846.647 1014.412 850.639 1004.773 853.075 994.627 853.894 984.226 853.075 973.824 850.639 963.678 846.647 954.038 841.194 945.142 834.419 937.209 826.484 930.432 819.883 926.266 819.894 845.411 826.484 841.168 834.419 834.392 841.194 826.458 846.647 817.562 850.639 807.923 853.075 797.777 853.894 787.375 853.075 776.974 850.639 766.828 846.647 757.188 842.861 750.785 862.927 730.738 925.524 730.749 925.525 732.938 946.087 732.938 941.068 736.814 933.692 744.192 927.558 752.633 922.822 761.929 919.597 771.853 917.965 782.157 917.965 792.592 919.597 802.898 922.822 812.82 927.558 822.117 933.692 830.558 941.068 837.936 946.745 842.222 946.76 929.319 941.068 933.664 933.692 941.042 927.558 949.483 922.822 958.78 919.597 968.703 917.965 979.008 917.965 989.442 919.597 999.748 922.822 1009.671 927.558 1018.967 933.692 1027.408 941.068 1034.786 949.51 1040.919 958.807 1045.656 968.73 1048.881 979.035 1050.513 989.469 1050.513 999.774 1048.881 1009.697 1045.656 1018.993 1040.919 1027.436 1034.786 1034.812 1027.408 1039.098 1021.731 1099.979 1021.739 1142.727 1064.336 1147.487 1067.794 1152.728 1070.465 1158.324 1072.283 1164.134 1073.203 1186.92 1073.319 1186.95 1087.319 1312.15 1087.319 1312.147 1187.319 1490.328 1187.319 1490.328 1084.335 1365.129 1084.335 1365.131 1073.289 1416.374 1073.44 1422.593 1077.252 1429.333 1080.043 1436.428 1081.747 1443.701 1082.319 1450.974 1081.747 1458.068 1080.043 1464.808 1077.252 1471.028 1073.44 1476.576 1068.702 1481.314 1063.154 1485.126 1056.934 1487.917 1050.194 1489.621 1043.1 1490.193 1035.827 1489.621 1028.554 1487.917 1021.459 1485.126 1014.719 1481.314 1008.5 1476.576 1002.951 1471.028 998.214 1464.808 994.402 1458.068 991.61 1450.974 989.907 1443.701 989.335 1436.428 989.907 1429.333 991.61 1422.593 994.402 1416.142 998.335 1365.151 998.335 1365.131 987.31 1490.328 987.319 1490.328 968.336 1660.374 968.219 1665.409 967.421 1670.259 965.845 1674.802 963.531 1678.927 960.534 1700.921 938.681 1723.227 938.693 1717.861 945.142 1712.408 954.038 1708.416 963.678 1705.98 973.824 1705.161 984.226 1705.98 994.627 1708.416 1004.773 1712.408 1014.412 1717.861 1023.308 1724.636 1031.243 1732.571 1038.018 1741.467 1043.47 1751.106 1047.463 1761.252 1049.899 1771.654 1050.718 1782.055 1049.899 1792.201 1047.463 1801.84 1043.47 1810.736 1038.018 1818.671 1031.243 1825.446 1023.308 1830.899 1014.412 1834.891 1004.773 1837.327 994.627 1838.146 984.226 1837.327 973.824 1834.891 963.678 1830.899 954.038 1825.446 945.142 1820.041 938.692 1920.016 938.693 1914.711 945.142 1909.259 954.038 1905.266 963.678 1902.831 973.824 1902.012 984.226 1902.831 994.627 1905.266 1004.773 1909.259 1014.412 1914.711 1023.308 1921.487 1031.243 1929.421 1038.018 1938.318 1043.47 1947.957 1047.463 1958.102 1049.899 1968.504 1050.718 1978.906 1049.899 1989.051 1047.463 1998.69 1043.47 2007.587 1038.018 2015.521 1031.243 2022.297 1023.308 2027.749 1014.412 2031.741 1004.773 2034.177 994.627 2034.996 984.226 2034.177 973.824 2031.741 963.678 2027.749 954.038 2022.297 945.142 2016.891 938.692 2707.458 938.693 2702.113 945.142 2696.66 954.038 2692.668 963.678 2690.232 973.824 2689.413 984.226 2690.232 994.627 2692.668 1004.773 2696.66 1014.412 2702.113 1023.308 2708.888 1031.243 2716.823 1038.018 2725.719 1043.47 2735.358 1047.463 2745.504 1049.899 2755.906 1050.718 2766.307 1049.899 2776.453 1047.463 2786.092 1043.47 2794.988 1038.018 2802.923 1031.243 2809.698 1023.308 2815.151 1014.412 2819.143 1004.773 2821.579 994.627 2822.398 984.226 2821.579 973.824 2819.143 963.678 2815.151 954.038 2809.698 945.142 2804.293 938.692 2904.319 938.693 2898.963 945.142 2893.51 954.038 2889.518 963.678 2887.083 973.824 2886.264 984.226 2887.083 994.627 2889.518 1004.773 2893.51 1014.412 2898.963 1023.308 2905.739 1031.243 2913.673 1038.018 2922.57 1043.47 2932.209 1047.463 2942.354 1049.899 2952.756 1050.718 2963.157 1049.899 2973.303 1047.463 2982.942 1043.47 2991.839 1038.018 2999.773 1031.243 3006.549 1023.308 3012.001 1014.412 3015.993 1004.773 3018.429 994.627 3019.248 984.226 3018.429 973.824 3015.993 963.678 3012.001 954.038 3006.549 945.142 3001.143 938.692 3427.501 938.593 3432.537 937.795 3437.386 936.219 3441.929 933.906 3446.054 930.908 3493.398 883.706 3643.408 733.554 3646.406 729.429 3647.656 727.193 3654.89 726.615 3707.642 726.615 3705.416 730.681 3696.974 736.814 3689.597 744.192 3683.463 752.633 3678.727 761.929 3675.503 771.853 3673.87 782.157 3673.87 792.592 3675.503 802.898 3678.727 812.82 3683.463 822.117 3689.597 830.558 3696.974 837.936 3705.416 844.068 3707.676 845.335 3707.665 926.227 3701.075 930.432 3693.14 937.209 3686.365 945.142 3680.912 954.038 3676.92 963.678 3674.484 973.824 3673.665 984.226 3674.484 994.627 3676.92 1004.773 3680.912 1014.412 3686.365 1023.308 3693.14 1031.243 3701.075 1038.018 3709.971 1043.47 3719.61 1047.463 3729.756 1049.899 3740.157 1050.718 3750.559 1049.899 3760.705 1047.463 3770.344 1043.47 3779.24 1038.018 3787.175 1031.243 3793.95 1023.308 3799.403 1014.412 3803.395 1004.773 3805.831 994.627 3806.65 984.226 3805.831 973.824 3803.395 963.678 3799.403 954.038 3793.95 945.142 3787.175 937.209 3779.24 930.432 3772.639 926.266 3772.65 845.406 3779.24 841.168 3787.175 834.392 3793.95 826.458 3799.403 817.562 3803.395 807.923 3805.831 797.777 3806.65 787.375 3805.831 776.974 3803.395 766.828 3799.403 757.188 3793.95 748.291 3787.175 740.358 3779.24 733.581 3772.639 729.416 3776.575 726.615 3799.375 726.615 3799.375 500.403 3563.026 500.403 3563.026 722.154 3411.486 873.717 2528.385 873.709 2668.408 733.554 2671.406 729.429 2672.656 727.194 2673.639 726.615 2723.378 726.615 2721.164 730.681 2712.722 736.814 2705.345 744.192 2699.211 752.633 2694.475 761.929 2691.251 771.853 2689.618 782.157 2689.618 792.592 2691.251 802.898 2694.475 812.82 2699.211 822.117 2705.345 830.558 2712.722 837.936 2721.164 844.068 2730.461 848.806 2740.383 852.03 2750.689 853.663 2761.122 853.663 2771.428 852.03 2781.35 848.806 2790.647 844.068 2799.089 837.936 2806.466 830.558 2812.6 822.117 2817.336 812.82 2820.56 802.898 2822.193 792.592 2822.193 782.157 2820.56 771.853 2817.336 761.929 2812.6 752.633 2806.466 744.192 2799.089 736.814 2790.647 730.681 2788.387 729.416 2795.325 726.615 2818.126 726.615 2818.126 500.403 2581.776 500.403 2581.776 726.615 2583.606 726.615 2473.988 836.214 2013.601 836.209 2019.064 830.558 2025.198 822.117 2029.934 812.82 2033.159 802.898 2034.791 792.592 2034.791 782.157 2033.159 771.853 2029.934 761.929 2025.198 752.633 2019.064 744.192 2011.688 736.814 2003.245 730.681 1993.949 725.945 1984.026 722.72 1973.72 721.088 1963.287 721.088 1952.982 722.72 1943.059 725.945 1933.762 730.681 1925.32 736.814 1917.944 744.192 1911.81 752.633 1907.073 761.929 1903.849 771.853 1902.217 782.157 1902.217 792.592 1903.849 802.898 1907.073 812.82 1911.81 822.117 1917.944 830.558 1923.449 836.206 1816.812 836.209 1822.214 830.558 1828.348 822.117 1833.084 812.82 1836.308 802.898 1837.941 792.592 1837.941 782.157 1836.308 771.853 1833.084 761.929 1828.348 752.633 1822.214 744.192 1814.837 736.814 1806.395 730.681 1798.562 726.619 1824.377 726.615 1824.377 500.403 1589.404 500.403 1589.379 684.626 1570.678 703.327 1490.293 703.335 1490.328 684.335 1365.129 684.335 M 4003.295 979.008 4001.663 968.703 3998.438 958.78 3993.702 949.483 3987.568 941.042 3980.192 933.664 3974.514 929.378 3974.5 842.253 3980.192 837.936 3987.568 830.558 3993.702 822.117 3998.438 812.82 4001.663 802.898 4003.295 792.592 4003.295 782.157 4001.663 771.853 3998.438 761.929 3993.702 752.633 3987.568 744.192 3980.192 736.814 3971.749 730.681 3962.453 725.945 3952.53 722.72 3942.224 721.088 3931.791 721.088 3921.486 722.72 3911.563 725.945 3902.266 730.681 3893.824 736.814 3886.448 744.192 3880.314 752.633 3875.577 761.929 3872.353 771.853 3870.72 782.157 3870.72 792.592 3872.353 802.898 3875.577 812.82 3880.314 822.117 3886.448 830.558 3893.824 837.936 3899.501 842.222 3899.516 929.319 3893.824 933.664 3886.448 941.042 3880.314 949.483 3875.577 958.78 3872.353 968.703 3870.72 979.008 3870.72 989.442 3872.353 999.748 3875.577 1009.671 3880.314 1018.967 3886.448 1027.408 3893.824 1034.786 3902.266 1040.919 3911.563 1045.656 3921.486 1048.881 3931.791 1050.513 3942.224 1050.513 3952.53 1048.881 3962.453 1045.656 3971.749 1040.919 3980.192 1034.786 3987.568 1027.408 3993.702 1018.967 3998.438 1009.671 4001.663 999.748 4003.295 989.442 4003.295 979.008 M 3019.043 782.157 3017.411 771.853 3014.186 761.929 3009.45 752.633 3003.316 744.192 2995.94 736.814 2987.497 730.681 2978.201 725.945 2968.278 722.72 2957.972 721.088 2947.539 721.088 2937.234 722.72 2927.311 725.945 2918.014 730.681 2909.572 736.814 2902.196 744.192 2896.062 752.633 2891.325 761.929 2888.101 771.853 2886.469 782.157 2886.469 792.592 2888.101 802.898 2891.325 812.82 2896.062 822.117 2902.196 830.558 2909.572 837.936 2918.014 844.068 2927.311 848.806 2937.234 852.03 2947.539 853.663 2957.972 853.663 2968.278 852.03 2978.201 848.806 2987.497 844.068 2995.94 837.936 3003.316 830.558 3009.45 822.117 3014.186 812.82 3017.411 802.898 3019.043 792.592 3019.043 782.157 M 642.445 433.76 4082.016 433.76 4081.988 1337.921 642.394 1337.894 642.421 433.732" fill="none" stroke-width="25"/><path d="M 1401.238 1187.283 1401.238 1084.37 M 1312.182 1135.827 1490.293 1135.827 M 3624.951 558.391 3624.951 500.438 M 3563.062 558.391 3624.951 558.391 M 3737.45 558.391 3737.45 500.438 M 3737.45 558.391 3799.34 558.391 M 2643.701 558.391 2643.701 500.438 M 2581.811 558.391 2643.701 558.391 M 2756.201 558.391 2756.201 500.438 M 2756.201 558.391 2818.091 558.391 M 1651.329 558.391 1651.329 500.438 M 1589.441 558.391 1651.329 558.391 M 1762.451 558.391 1762.451 500.438 M 1762.451 558.391 1824.341 558.391 M 874.951 562.525 874.951 504.572 M 813.063 562.525 874.951 562.525 M 987.45 564.714 987.45 506.761 M 987.45 564.714 1049.34 564.714" fill="none" stroke-width="20"/><use xlink:href="#KBzsiXHiZS4rtGbEfOLN_pad-17" x="3737.45" y="668.627"/><use xlink:href="#KBzsiXHiZS4rtGbEfOLN_pad-17" x="3737.45" y="558.391"/><use xlink:href="#KBzsiXHiZS4rtGbEfOLN_pad-17" x="2756.201" y="668.627"/><use xlink:href="#KBzsiXHiZS4rtGbEfOLN_pad-17" x="2756.201" y="558.391"/><use xlink:href="#KBzsiXHiZS4rtGbEfOLN_pad-17" x="1762.451" y="668.627"/><use xlink:href="#KBzsiXHiZS4rtGbEfOLN_pad-17" x="1762.451" y="558.391"/><use xlink:href="#KBzsiXHiZS4rtGbEfOLN_pad-17" x="987.45" y="674.95"/><use xlink:href="#KBzsiXHiZS4rtGbEfOLN_pad-17" x="987.45" y="564.714"/><use xlink:href="#KBzsiXHiZS4rtGbEfOLN_pad-17" x="3624.951" y="558.391"/><use xlink:href="#KBzsiXHiZS4rtGbEfOLN_pad-17" x="3624.951" y="668.627"/><use xlink:href="#KBzsiXHiZS4rtGbEfOLN_pad-17" x="2643.701" y="558.391"/><use xlink:href="#KBzsiXHiZS4rtGbEfOLN_pad-17" x="2643.701" y="668.627"/><use xlink:href="#KBzsiXHiZS4rtGbEfOLN_pad-17" x="1651.329" y="558.391"/><use xlink:href="#KBzsiXHiZS4rtGbEfOLN_pad-17" x="1651.329" y="668.627"/><use xlink:href="#KBzsiXHiZS4rtGbEfOLN_pad-17" x="874.951" y="562.525"/><use xlink:href="#KBzsiXHiZS4rtGbEfOLN_pad-17" x="874.951" y="672.761"/><use xlink:href="#KBzsiXHiZS4rtGbEfOLN_pad-19" x="1276.041" y="635.827"/><use xlink:href="#KBzsiXHiZS4rtGbEfOLN_pad-19" x="1401.238" y="735.827"/><use xlink:href="#KBzsiXHiZS4rtGbEfOLN_pad-19" x="1276.041" y="835.827"/><use xlink:href="#KBzsiXHiZS4rtGbEfOLN_pad-19" x="1401.238" y="935.827"/><use xlink:href="#KBzsiXHiZS4rtGbEfOLN_pad-19" x="1276.041" y="1035.827"/><use xlink:href="#KBzsiXHiZS4rtGbEfOLN_pad-19" x="1401.238" y="1135.827"/><use xlink:href="#KBzsiXHiZS4rtGbEfOLN_pad-34" x="3937.008" y="984.215"/><use xlink:href="#KBzsiXHiZS4rtGbEfOLN_pad-34" x="3937.008" y="787.364"/><use xlink:href="#KBzsiXHiZS4rtGbEfOLN_pad-34" x="3740.157" y="787.364"/><use xlink:href="#KBzsiXHiZS4rtGbEfOLN_pad-34" x="3740.157" y="984.215"/><use xlink:href="#KBzsiXHiZS4rtGbEfOLN_pad-34" x="2952.756" y="984.215"/><use xlink:href="#KBzsiXHiZS4rtGbEfOLN_pad-34" x="2952.756" y="787.364"/><use xlink:href="#KBzsiXHiZS4rtGbEfOLN_pad-34" x="2755.906" y="787.364"/><use xlink:href="#KBzsiXHiZS4rtGbEfOLN_pad-34" x="2755.906" y="984.215"/><use xlink:href="#KBzsiXHiZS4rtGbEfOLN_pad-34" x="1968.504" y="984.215"/><use xlink:href="#KBzsiXHiZS4rtGbEfOLN_pad-34" x="1968.504" y="787.364"/><use xlink:href="#KBzsiXHiZS4rtGbEfOLN_pad-34" x="1771.654" y="787.364"/><use xlink:href="#KBzsiXHiZS4rtGbEfOLN_pad-34" x="1771.654" y="984.215"/><use xlink:href="#KBzsiXHiZS4rtGbEfOLN_pad-34" x="984.252" y="984.215"/><use xlink:href="#KBzsiXHiZS4rtGbEfOLN_pad-34" x="984.252" y="787.364"/><use xlink:href="#KBzsiXHiZS4rtGbEfOLN_pad-34" x="787.402" y="787.364"/><use xlink:href="#KBzsiXHiZS4rtGbEfOLN_pad-34" x="787.402" y="984.215"/></g><g id="gBYkD8xLMYlWk6MH-HrE_top_silkscreen"><path d="M 3782.45 709.509 3692.45 709.509 3692.45 517.509 3782.45 517.509 3782.45 709.509 M 2801.201 709.509 2711.201 709.509 2711.201 517.509 2801.201 517.509 2801.201 709.509 M 1807.451 709.509 1717.451 709.509 1717.451 517.509 1807.451 517.509 1807.451 709.509 M 1032.45 715.832 942.45 715.832 942.45 523.832 1032.45 523.832 1032.45 715.832 M 3579.951 517.509 3669.951 517.509 3669.951 709.509 3579.951 709.509 3579.951 517.509 M 2598.701 517.509 2688.701 517.509 2688.701 709.509 2598.701 709.509 2598.701 517.509 M 1606.329 517.509 1696.329 517.509 1696.329 709.509 1606.329 709.509 1606.329 517.509 M 829.951 521.643 919.951 521.643 919.951 713.643 829.951 713.643 829.951 521.643" fill="none" stroke-width="9.843"/><use xlink:href="#kuexVh0djgNJGNmqkwB0_pad-18" x="1435.967" y="1213.958"/><path d="M 1289.612 680.238 1289.612 790.524 M 1289.612 585.94 1289.612 593.673 M 1289.612 585.94 1387.666 585.94 1387.666 692.131 M 1387.666 778.696 1387.666 892.816 M 1289.612 880.274 1289.612 990.559 M 1387.666 978.666 1387.666 1092.852 M 1289.612 1080.374 1289.612 1185.85 M 1387.666 1178.832 1387.666 1185.85 1289.612 1185.85" fill="none" stroke-width="9.843"/><path d="M 885.913 1320.901 912.43 1320.901 917.103 1289.703 935.833 1281.899 960.793 1302.189 981.06 1281.899 960.793 1256.945 968.6 1239.776 999.79 1235.094 999.79 1207.018 968.6 1203.896 960.793 1185.185 979.503 1160.212 960.793 1141.501 935.833 1160.212 924.91 1155.548 909.315 1192.989 920.238 1202.335 928.025 1213.261 928.025 1225.747 924.91 1236.655 915.545 1244.458 904.623 1249.141 892.143 1249.141 881.22 1242.898 874.99 1233.533 871.875 1221.065 874.99 1208.578 882.798 1197.653 890.585 1192.989 874.99 1155.548 864.068 1160.212 839.108 1141.501 820.398 1160.212 839.108 1186.745 831.3 1203.896 800.11 1207.018 800.11 1235.094 832.878 1238.215 839.108 1256.945 818.84 1281.899 839.108 1300.629 864.068 1281.899 882.798 1288.142 885.913 1320.901"/><use xlink:href="#kuexVh0djgNJGNmqkwB0_pad-20" x="3159.05" y="1033.347"/><path d="M 2992.126 1062.987 3076.484 1206.753 3142.112 1062.987 2992.126 1062.987"/><path d="M 3155.94 1200.262 3215.203 1200.262 3223.032 1198.712 3233.933 1194.038 3241.762 1189.363 3249.517 1183.117 3254.2 1176.87 3258.882 1167.522 3260.419 1159.702 3262.028 1148.803 3260.419 1139.433 3255.736 1128.512 3249.517 1122.265 3241.762 1116.04 3232.397 1111.344 3224.568 1108.243 3272.93 1062.987 3155.94 1062.987 3155.94 1200.262"/><path d="M 3254.2 1200.262 3397.747 1200.262 3377.481 1161.275 3349.386 1156.601 3340.021 1064.559 3313.462 1064.559 3304.097 1156.601 3276.076 1161.275 3254.2 1200.262"/><path d="M 3411.795 1142.556 3432.061 1142.556 3452.328 1062.987 3393.065 1062.987 3411.795 1142.556"/><path d="M 3569.317 1089.502 3500.689 1126.961 3569.317 1162.825 3559.952 1173.746 3550.587 1179.993 3538.149 1186.24 3525.638 1189.363 3511.591 1189.363 3499.153 1186.24 3486.642 1181.544 3475.74 1173.746 3466.375 1162.825 3460.156 1151.905 3457.01 1139.433 3455.474 1126.961 3457.01 1112.917 3460.156 1100.423 3467.912 1087.952 3477.277 1078.604 3488.178 1070.784 3500.689 1066.11 3511.591 1062.987 3525.638 1062.987 3538.149 1066.11 3552.197 1072.357 3569.317 1089.502"/><path d="M 3570.854 1064.559 3634.872 1209.633 3723.766 1062.987 3570.854 1064.559"/><use xlink:href="#kuexVh0djgNJGNmqkwB0_pad-21" x="3421.892" y="1185.454"/><path d="M 3074.801 1033.347 3087.312 1033.347 3087.312 995.91 3074.801 995.91 3074.801 1033.347"/><use xlink:href="#kuexVh0djgNJGNmqkwB0_pad-22" x="3081.057" y="1034.909"/><use xlink:href="#kuexVh0djgNJGNmqkwB0_pad-23" x="3081.057" y="995.91"/><path d="M 3091.995 1033.347 3104.433 1033.347 3104.433 995.91 3091.995 995.91 3091.995 1033.347"/><use xlink:href="#kuexVh0djgNJGNmqkwB0_pad-24" x="3098.214" y="1034.909"/><use xlink:href="#kuexVh0djgNJGNmqkwB0_pad-25" x="3098.214" y="995.91"/><path d="M 3132.528 1033.347 3145.039 1033.347 3145.039 995.91 3132.528 995.91 3132.528 1033.347"/><use xlink:href="#kuexVh0djgNJGNmqkwB0_pad-22" x="3138.783" y="1034.909"/><use xlink:href="#kuexVh0djgNJGNmqkwB0_pad-23" x="3138.783" y="995.91"/><path d="M 3224.568 1031.797 3237.079 1031.797 3237.079 994.36 3224.568 994.36 3224.568 1031.797"/><use xlink:href="#kuexVh0djgNJGNmqkwB0_pad-22" x="3230.824" y="1033.358"/><use xlink:href="#kuexVh0djgNJGNmqkwB0_pad-22" x="3230.824" y="994.349"/><use xlink:href="#kuexVh0djgNJGNmqkwB0_pad-26" x="3195.705" y="1015.404"/><use xlink:href="#kuexVh0djgNJGNmqkwB0_pad-27" x="3194.9" y="998.258"/><use xlink:href="#kuexVh0djgNJGNmqkwB0_pad-20" x="3605.204" y="1033.347"/><path d="M 3212.057 1041.145 3249.517 1041.145 3249.517 1028.673 3212.057 1028.673 3212.057 1041.145"/><use xlink:href="#kuexVh0djgNJGNmqkwB0_pad-22" x="3213.63" y="1034.909"/><use xlink:href="#kuexVh0djgNJGNmqkwB0_pad-24" x="3247.981" y="1034.909"/><path d="M 3262.028 1033.347 3274.466 1033.347 3274.466 995.91 3262.028 995.91 3262.028 1033.347"/><use xlink:href="#kuexVh0djgNJGNmqkwB0_pad-24" x="3268.247" y="1034.909"/><use xlink:href="#kuexVh0djgNJGNmqkwB0_pad-25" x="3268.247" y="995.91"/><path d="M 3316.609 1033.347 3329.12 1033.347 3329.12 1014.629 3316.609 1014.629 3316.609 1033.347"/><use xlink:href="#kuexVh0djgNJGNmqkwB0_pad-22" x="3322.864" y="1034.909"/><path d="M 3268.247 1041.145 3302.561 1041.145 3302.561 1008.382 3268.247 1008.382 3268.247 1041.145"/><path d="M 3357.141 1033.347 3369.652 1033.347 3369.652 1019.303 3357.141 1019.303 3357.141 1033.347"/><use xlink:href="#kuexVh0djgNJGNmqkwB0_pad-22" x="3363.397" y="1034.909"/><use xlink:href="#kuexVh0djgNJGNmqkwB0_pad-28" x="3300.22" y="1024.763"/><path d="M 3563.098 1031.797 3575.536 1031.797 3575.536 994.36 3563.098 994.36 3563.098 1031.797"/><use xlink:href="#kuexVh0djgNJGNmqkwB0_pad-24" x="3569.317" y="1033.358"/><use xlink:href="#kuexVh0djgNJGNmqkwB0_pad-24" x="3569.317" y="994.349"/><path d="M 3550.587 1041.145 3588.047 1041.145 3588.047 1028.673 3550.587 1028.673 3550.587 1041.145"/><use xlink:href="#kuexVh0djgNJGNmqkwB0_pad-22" x="3552.16" y="1034.909"/><use xlink:href="#kuexVh0djgNJGNmqkwB0_pad-22" x="3586.474" y="1034.909"/><path d="M 3430.452 1033.347 3442.963 1033.347 3442.963 995.91 3430.452 995.91 3430.452 1033.347"/><use xlink:href="#kuexVh0djgNJGNmqkwB0_pad-22" x="3436.707" y="1034.909"/><use xlink:href="#kuexVh0djgNJGNmqkwB0_pad-23" x="3436.707" y="995.91"/><path d="M 3413.331 1033.347 3425.842 1033.347 3425.842 995.91 3413.331 995.91 3413.331 1033.347"/><use xlink:href="#kuexVh0djgNJGNmqkwB0_pad-22" x="3419.587" y="1034.909"/><use xlink:href="#kuexVh0djgNJGNmqkwB0_pad-23" x="3419.587" y="995.91"/><path d="M 3372.798 1033.347 3385.236 1033.347 3385.236 995.91 3372.798 995.91 3372.798 1033.347"/><use xlink:href="#kuexVh0djgNJGNmqkwB0_pad-24" x="3379.017" y="1034.909"/><use xlink:href="#kuexVh0djgNJGNmqkwB0_pad-25" x="3379.017" y="995.91"/><path d="M 3319.755 1017.752 3329.12 1017.752 3329.12 1008.382 3319.755 1008.382 3319.755 1017.752"/><use xlink:href="#kuexVh0djgNJGNmqkwB0_pad-29" x="3398.516" y="1009.955"/><use xlink:href="#kuexVh0djgNJGNmqkwB0_pad-30" x="3641.896" y="1015.404"/><use xlink:href="#kuexVh0djgNJGNmqkwB0_pad-31" x="3641.091" y="998.258"/><path d="M 3606.777 1041.145 3644.237 1041.145 3644.237 1028.673 3606.777 1028.673 3606.777 1041.145"/><use xlink:href="#kuexVh0djgNJGNmqkwB0_pad-24" x="3608.314" y="1034.909"/><use xlink:href="#kuexVh0djgNJGNmqkwB0_pad-22" x="3642.664" y="1034.909"/><path d="M 3602.095 1022.426 3639.555 1022.426 3639.555 1011.505 3602.095 1011.505 3602.095 1022.426"/><use xlink:href="#kuexVh0djgNJGNmqkwB0_pad-32" x="3603.631" y="1018.528"/><path d="M 3602.095 1002.157 3639.555 1002.157 3639.555 991.236 3602.095 991.236 3602.095 1002.157"/><path d="M 3098.214 1041.145 3141.893 1002.157 3140.356 989.663 3134.064 992.787 3098.214 1023.999 3098.214 1041.145"/><path d="M 3486.642 1033.347 3499.153 1033.347 3499.153 995.91 3486.642 995.91 3486.642 1033.347"/><use xlink:href="#kuexVh0djgNJGNmqkwB0_pad-22" x="3492.897" y="1034.909"/><use xlink:href="#kuexVh0djgNJGNmqkwB0_pad-23" x="3492.897" y="995.91"/><path d="M 3527.175 1033.347 3539.686 1033.347 3539.686 995.91 3527.175 995.91 3527.175 1033.347"/><use xlink:href="#kuexVh0djgNJGNmqkwB0_pad-22" x="3533.43" y="1034.909"/><use xlink:href="#kuexVh0djgNJGNmqkwB0_pad-23" x="3533.43" y="995.91"/><path d="M 3492.861 1041.145 3536.54 1002.157 3535.003 989.663 3528.784 992.787 3492.861 1023.999 3492.861 1041.145"/><path d="M 3160.623 1041.145 3198.01 1041.145 3198.01 1028.673 3160.623 1028.673 3160.623 1041.145"/><use xlink:href="#kuexVh0djgNJGNmqkwB0_pad-24" x="3162.159" y="1034.909"/><use xlink:href="#kuexVh0djgNJGNmqkwB0_pad-24" x="3196.473" y="1034.909"/><path d="M 3155.94 1022.426 3193.4 1022.426 3193.4 1011.505 3155.94 1011.505 3155.94 1022.426"/><use xlink:href="#kuexVh0djgNJGNmqkwB0_pad-32" x="3157.477" y="1018.528"/><use xlink:href="#kuexVh0djgNJGNmqkwB0_pad-33" x="3602.095" y="996.697"/><path d="M 3155.94 1002.157 3193.4 1002.157 3193.4 991.236 3155.94 991.236 3155.94 1002.157"/><use xlink:href="#kuexVh0djgNJGNmqkwB0_pad-33" x="3155.94" y="996.697"/><use xlink:href="#kuexVh0djgNJGNmqkwB0_pad-24" x="3191.791" y="997.472"/><use xlink:href="#kuexVh0djgNJGNmqkwB0_pad-23" x="3305.67" y="995.91"/><path d="M 3280.758 1009.955 3301.025 991.236 3310.39 1000.584 3297.879 1013.078 3280.758 1009.955"/><path d="M 3341.557 989.663 3352.459 989.663 3363.433 997.483 3368.116 1008.382 3369.652 1020.876 3357.141 1022.426 3355.605 1009.955 3341.557 989.663"/><path d="M 3316.609 1020.876 3316.609 1005.281 3327.51 991.236 3344.704 989.663 3358.751 999.034 3350.922 1003.708 3344.704 1000.584 3335.339 1002.157 3316.609 1020.876"/><path d="M 3380.554 1041.145 3399.284 1023.999 3416.477 1039.594 3422.696 1030.224 3402.43 1009.955 3394.601 1009.955 3380.554 1023.999 3380.554 1041.145"/><path d="M 3151.258 1031.797 3163.696 1031.797 3163.696 1019.303 3151.258 1019.303 3151.258 1031.797"/><path d="M 3191.791 1013.078 3202.692 1013.078 3202.692 999.034 3191.791 999.034 3191.791 1013.078"/><path d="M 3436.744 1042.717 3474.131 1042.717 3474.131 1030.224 3436.744 1030.224 3436.744 1042.717"/><use xlink:href="#kuexVh0djgNJGNmqkwB0_pad-25" x="3438.28" y="1036.471"/><use xlink:href="#kuexVh0djgNJGNmqkwB0_pad-25" x="3472.594" y="1036.471"/><path d="M 3435.134 1022.426 3472.594 1022.426 3472.594 1009.955 3435.134 1009.955 3435.134 1022.426"/><use xlink:href="#kuexVh0djgNJGNmqkwB0_pad-22" x="3436.707" y="1016.19"/><use xlink:href="#kuexVh0djgNJGNmqkwB0_pad-24" x="3471.058" y="1016.19"/><path d="M 3436.744 1002.157 3474.131 1002.157 3474.131 989.663 3436.744 989.663 3436.744 1002.157"/><use xlink:href="#kuexVh0djgNJGNmqkwB0_pad-25" x="3438.28" y="995.91"/><use xlink:href="#kuexVh0djgNJGNmqkwB0_pad-25" x="3472.594" y="995.91"/><use xlink:href="#kuexVh0djgNJGNmqkwB0_pad-22" x="3637.982" y="997.472"/><path d="M 3597.412 1031.797 3609.85 1031.797 3609.85 1019.303 3597.412 1019.303 3597.412 1031.797"/><path d="M 3637.945 1013.078 3648.92 1013.078 3648.92 999.034 3637.945 999.034 3637.945 1013.078"/><path d="M 3689.813 501.564 3692.698 503.023 3697.009 507.301 3697.009 477.19 M 3714.894 507.301 3710.583 505.875 3707.698 501.564 3706.272 494.401 3706.272 490.09 3707.698 482.927 3710.583 478.616 3714.894 477.19 3717.746 477.19 3722.057 478.616 3724.909 482.927 3726.368 490.09 3726.368 494.401 3724.909 501.564 3722.057 505.875 3717.746 507.301 3714.894 507.301 M 3724.909 501.564 3707.698 482.927 M 3744.254 507.301 3739.943 505.875 3737.058 501.564 3735.632 494.401 3735.632 490.09 3737.058 482.927 3739.943 478.616 3744.254 477.19 3747.106 477.19 3751.417 478.616 3754.269 482.927 3755.728 490.09 3755.728 494.401 3754.269 501.564 3751.417 505.875 3747.106 507.301 3744.254 507.301 M 3754.269 501.564 3737.058 482.927 M 3785.088 507.334 3785.088 477.19 3764.992 507.334 3764.992 477.19 M 2708.563 501.564 2711.448 503.023 2715.76 507.301 2715.76 477.19 M 2733.645 507.301 2729.334 505.875 2726.449 501.564 2725.023 494.401 2725.023 490.09 2726.449 482.927 2729.334 478.616 2733.645 477.19 2736.497 477.19 2740.808 478.616 2743.66 482.927 2745.119 490.09 2745.119 494.401 2743.66 501.564 2740.808 505.875 2736.497 507.301 2733.645 507.301 M 2743.66 501.564 2726.449 482.927 M 2763.005 507.301 2758.694 505.875 2755.809 501.564 2754.383 494.401 2754.383 490.09 2755.809 482.927 2758.694 478.616 2763.005 477.19 2765.857 477.19 2770.168 478.616 2773.019 482.927 2774.479 490.09 2774.479 494.401 2773.019 501.564 2770.168 505.875 2765.857 507.301 2763.005 507.301 M 2773.019 501.564 2755.809 482.927 M 2803.838 507.334 2803.838 477.19 2783.742 507.334 2783.742 477.19 M 1714.814 501.564 1717.699 503.023 1722.01 507.301 1722.01 477.19 M 1739.896 507.301 1735.585 505.875 1732.7 501.564 1731.274 494.401 1731.274 490.09 1732.7 482.927 1735.585 478.616 1739.896 477.19 1742.748 477.19 1747.059 478.616 1749.911 482.927 1751.37 490.09 1751.37 494.401 1749.911 501.564 1747.059 505.875 1742.748 507.301 1739.896 507.301 M 1749.911 501.564 1732.7 482.927 M 1769.255 507.301 1764.944 505.875 1762.059 501.564 1760.633 494.401 1760.633 490.09 1762.059 482.927 1764.944 478.616 1769.255 477.19 1772.107 477.19 1776.418 478.616 1779.27 482.927 1780.729 490.09 1780.729 494.401 1779.27 501.564 1776.418 505.875 1772.107 507.301 1769.255 507.301 M 1779.27 501.564 1762.059 482.927 M 1810.089 507.334 1810.089 477.19 1789.993 507.334 1789.993 477.19 M 939.813 507.887 942.698 509.346 947.009 513.624 947.009 483.513 M 964.894 513.624 960.583 512.198 957.698 507.887 956.272 500.724 956.272 496.413 957.698 489.25 960.583 484.939 964.894 483.513 967.746 483.513 972.057 484.939 974.909 489.25 976.368 496.413 976.368 500.724 974.909 507.887 972.057 512.198 967.746 513.624 964.894 513.624 M 974.909 507.887 957.698 489.25 M 994.254 513.624 989.943 512.198 987.058 507.887 985.632 500.724 985.632 496.413 987.058 489.25 989.943 484.939 994.254 483.513 997.106 483.513 1001.417 484.939 1004.269 489.25 1005.728 496.413 1005.728 500.724 1004.269 507.887 1001.417 512.198 997.106 513.624 994.254 513.624 M 1004.269 507.887 987.058 489.25 M 1035.088 513.657 1035.088 483.513 1014.992 513.657 1014.992 483.513 M 3591.994 501.564 3594.879 503.023 3599.19 507.301 3599.19 477.19 M 3617.076 507.301 3612.765 505.875 3609.879 501.564 3608.453 494.401 3608.453 490.09 3609.879 482.927 3612.765 478.616 3617.076 477.19 3619.927 477.19 3624.238 478.616 3627.09 482.927 3628.549 490.09 3628.549 494.401 3627.09 501.564 3624.238 505.875 3619.927 507.301 3617.076 507.301 M 3627.09 501.564 3609.879 482.927 M 3637.813 507.334 3637.813 477.19 M 3657.909 507.334 3637.813 487.238 M 3644.976 494.434 3657.909 477.19 M 2610.743 501.564 2613.628 503.023 2617.939 507.301 2617.939 477.19 M 2635.825 507.301 2631.514 505.875 2628.629 501.564 2627.203 494.401 2627.203 490.09 2628.629 482.927 2631.514 478.616 2635.825 477.19 2638.677 477.19 2642.988 478.616 2645.84 482.927 2647.299 490.09 2647.299 494.401 2645.84 501.564 2642.988 505.875 2638.677 507.301 2635.825 507.301 M 2645.84 501.564 2628.629 482.927 M 2656.562 507.334 2656.562 477.19 M 2676.658 507.334 2656.562 487.238 M 2663.725 494.434 2676.658 477.19 M 1618.372 501.564 1621.257 503.023 1625.568 507.301 1625.568 477.19 M 1643.453 507.301 1639.142 505.875 1636.257 501.564 1634.831 494.401 1634.831 490.09 1636.257 482.927 1639.142 478.616 1643.453 477.19 1646.305 477.19 1650.616 478.616 1653.468 482.927 1654.927 490.09 1654.927 494.401 1653.468 501.564 1650.616 505.875 1646.305 507.301 1643.453 507.301 M 1653.468 501.564 1636.257 482.927 M 1664.191 507.334 1664.191 477.19 M 1684.287 507.334 1664.191 487.238 M 1671.354 494.434 1684.287 477.19 M 841.994 505.698 844.879 507.157 849.19 511.435 849.19 481.324 M 867.076 511.435 862.765 510.009 859.879 505.698 858.453 498.535 858.453 494.224 859.879 487.061 862.765 482.75 867.076 481.324 869.927 481.324 874.238 482.75 877.09 487.061 878.549 494.224 878.549 498.535 877.09 505.698 874.238 510.009 869.927 511.435 867.076 511.435 M 877.09 505.698 859.879 487.061 M 887.813 511.468 887.813 481.324 M 907.909 511.468 887.813 491.372 M 894.976 498.568 907.909 481.324" fill="none" stroke-width="4.632"/><path d="M 1499.263 747.927 1499.263 750.779 1502.115 756.549 1504.966 759.401 1510.737 762.253 1522.211 762.253 1527.914 759.401 1530.766 756.549 1533.684 750.779 1533.684 745.075 1530.766 739.305 1525.062 730.749 1496.344 702.031 1536.536 702.031 M 1499.86 1138.394 1533.022 1138.394 M 1516.408 1064.228 1516.408 1012.562 M 1490.608 1038.362 1542.274 1038.362 M 1523.637 908.283 1523.637 968.505 1494.919 928.379 1537.963 928.379 M 1502.115 868.507 1533.618 868.507 1516.44 845.559 1525.062 845.559 1530.766 842.707 1533.618 839.855 1536.536 831.233 1536.536 825.53 1533.618 816.907 1527.914 811.137 1519.292 808.285 1510.67 808.285 1502.115 811.137 1499.263 814.056 1496.344 819.759 M 1502.995 644.531 1508.765 647.449 1517.387 656.005 1517.387 595.783 M 884.363 907.031 890.133 909.949 898.755 918.505 898.755 858.283" fill="none" stroke-width="9.264"/><path d="M 3037.857 954.168 3039.758 952.267 3041.704 954.168 3039.758 956.113 3037.857 954.168 M 3039.758 940.771 3039.758 913.976 M 3054.055 940.771 3054.055 913.976 M 3054.055 933.121 3059.803 938.869 3063.65 940.771 3069.354 940.771 3073.2 938.869 3075.102 933.121 3075.102 913.976 M 3108.5 935.023 3106.598 938.869 3100.85 940.771 3095.102 940.771 3089.354 938.869 3087.453 935.023 3089.354 931.22 3093.201 929.275 3102.752 927.373 3106.598 925.472 3108.5 921.625 3108.5 919.724 3106.598 915.921 3100.85 913.976 3095.102 913.976 3089.354 915.921 3087.453 919.724 M 3126.599 954.168 3126.599 921.625 3128.5 915.921 3132.347 913.976 3136.15 913.976 M 3120.851 940.771 3134.248 940.771 M 3148.501 940.771 3148.501 913.976 M 3148.501 929.275 3150.447 935.023 3154.249 938.869 3158.096 940.771 3163.844 940.771 M 3176.195 940.771 3176.195 921.625 3178.097 915.921 3181.943 913.976 3187.691 913.976 3191.494 915.921 3197.242 921.625 M 3197.242 940.771 3197.242 913.976 M 3209.593 940.771 3209.593 913.976 M 3209.593 933.121 3215.341 938.869 3219.188 940.771 3224.892 940.771 3228.739 938.869 3230.64 933.121 3230.64 913.976 M 3230.64 933.121 3236.388 938.869 3240.235 940.771 3245.939 940.771 3249.785 938.869 3251.731 933.121 3251.731 913.976 M 3264.082 929.275 3287.03 929.275 3287.03 933.121 3285.129 936.968 3283.228 938.869 3279.381 940.771 3273.633 940.771 3269.83 938.869 3265.984 935.023 3264.082 929.275 3264.082 925.472 3265.984 919.724 3269.83 915.921 3273.633 913.976 3279.381 913.976 3283.228 915.921 3287.03 919.724 M 3299.382 940.771 3299.382 913.976 M 3299.382 933.121 3305.13 938.869 3308.976 940.771 3314.68 940.771 3318.527 938.869 3320.428 933.121 3320.428 913.976 M 3338.528 954.168 3338.528 921.625 3340.429 915.921 3344.276 913.976 3348.078 913.976 M 3332.78 940.771 3346.177 940.771 M 3381.476 935.023 3379.575 938.869 3373.827 940.771 3368.079 940.771 3362.331 938.869 3360.43 935.023 3362.331 931.22 3366.178 929.275 3375.728 927.373 3379.575 925.472 3381.476 921.625 3381.476 919.724 3379.575 915.921 3373.827 913.976 3368.079 913.976 3362.331 915.921 3360.43 919.724 M 3395.729 917.823 3393.828 915.877 3395.729 913.976 3397.674 915.877 3395.729 917.823 M 3432.974 940.771 3432.974 913.976 M 3432.974 935.023 3429.171 938.869 3425.324 940.771 3419.621 940.771 3415.774 938.869 3411.971 935.023 3410.026 929.275 3410.026 925.472 3411.971 919.724 3415.774 915.921 3419.621 913.976 3425.324 913.976 3429.171 915.921 3432.974 919.724 M 3445.325 940.771 3445.325 913.976 M 3445.325 929.275 3447.271 935.023 3451.073 938.869 3454.92 940.771 3460.668 940.771 M 3478.767 954.168 3478.767 921.625 3480.669 915.921 3484.515 913.976 3488.318 913.976 M 3473.019 940.771 3486.417 940.771 M 3500.669 954.168 3502.571 952.267 3504.516 954.168 3502.571 956.113 3500.669 954.168 M 3502.571 940.771 3502.571 913.976 M 3539.86 935.023 3536.013 938.869 3532.166 940.771 3526.462 940.771 3522.616 938.869 3518.813 935.023 3516.867 929.275 3516.867 925.472 3518.813 919.724 3522.616 915.921 3526.462 913.976 3532.166 913.976 3536.013 915.921 3539.86 919.724 M 3575.159 940.771 3575.159 913.976 M 3575.159 935.023 3571.356 938.869 3567.51 940.771 3561.806 940.771 3557.959 938.869 3554.156 935.023 3552.211 929.275 3552.211 925.472 3554.156 919.724 3557.959 915.921 3561.806 913.976 3567.51 913.976 3571.356 915.921 3575.159 919.724 M 3589.412 917.823 3587.51 915.877 3589.412 913.976 3591.357 915.877 3589.412 917.823 M 3626.701 935.023 3622.854 938.869 3619.007 940.771 3613.303 940.771 3609.457 938.869 3605.654 935.023 3603.708 929.275 3603.708 925.472 3605.654 919.724 3609.457 915.921 3613.303 913.976 3619.007 913.976 3622.854 915.921 3626.701 919.724 M 3662.044 935.023 3658.197 938.869 3654.351 940.771 3648.647 940.771 3644.8 938.869 3640.997 935.023 3639.052 929.275 3639.052 925.472 3640.997 919.724 3644.8 915.921 3648.647 913.976 3654.351 913.976 3658.197 915.921 3662.044 919.724" fill="none" stroke-width="6.176"/><path d="M 2833.884 899.754 2865.387 899.754 2848.209 876.806 2856.831 876.806 2862.535 873.954 2865.387 871.102 2868.305 862.48 2868.305 856.776 2865.387 848.154 2859.683 842.384 2851.061 839.532 2842.439 839.532 2833.884 842.384 2831.032 845.302 2828.113 851.006 M 3844.333 852.032 3844.333 912.254 3815.615 872.128 3858.659 872.128" fill="none" stroke-width="9.264"/><path d="M 771.497 1087.897 770.071 1090.749 767.186 1093.634 764.334 1095.06 758.597 1095.06 755.712 1093.634 752.86 1090.749 751.401 1087.897 749.975 1083.586 749.975 1076.39 751.401 1072.112 752.86 1069.227 755.712 1066.375 758.597 1064.916 764.334 1064.916 767.186 1066.375 770.071 1069.227 771.497 1072.112 M 802.282 1087.897 800.856 1090.749 797.971 1093.634 795.119 1095.06 789.382 1095.06 786.497 1093.634 783.645 1090.749 782.186 1087.897 780.76 1083.586 780.76 1076.39 782.186 1072.112 783.645 1069.227 786.497 1066.375 789.382 1064.916 795.119 1064.916 797.971 1066.375 800.856 1069.227 802.282 1072.112 M 840.706 1095.06 840.706 1064.916 853.639 1064.916 857.95 1066.375 859.376 1067.801 860.802 1070.653 860.802 1074.964 859.376 1077.849 857.95 1079.275 853.639 1080.701 857.95 1082.16 859.376 1083.586 860.802 1086.438 860.802 1089.323 859.376 1092.175 857.95 1093.634 853.639 1095.06 840.706 1095.06 M 840.706 1080.701 853.639 1080.701 M 870.066 1095.06 881.54 1080.701 881.54 1064.916 M 893.014 1095.06 881.54 1080.701 M 902.277 1079.971 918.858 1079.971 M 948.218 1090.749 945.366 1093.634 941.055 1095.06 935.318 1095.06 931.007 1093.634 928.122 1090.749 928.122 1087.897 929.581 1085.012 931.007 1083.586 933.859 1082.16 942.481 1079.275 945.366 1077.849 946.792 1076.39 948.218 1073.538 948.218 1069.227 945.366 1066.375 941.055 1064.916 935.318 1064.916 931.007 1066.375 928.122 1069.227 M 980.462 1064.916 968.955 1095.06 957.481 1064.916 M 961.792 1074.964 976.151 1074.964 M 1033.245 1064.916 1033.245 1095.027 1018.886 1074.964 1040.408 1074.964 M 1051.098 1067.801 1049.672 1066.342 1051.098 1064.916 1052.557 1066.342 1051.098 1067.801 M 1070.443 1095.027 1066.132 1093.601 1063.247 1089.29 1061.821 1082.127 1061.821 1077.816 1063.247 1070.653 1066.132 1066.342 1070.443 1064.916 1073.295 1064.916 1077.606 1066.342 1080.457 1070.653 1081.917 1077.816 1081.917 1082.127 1080.457 1089.29 1077.606 1093.601 1073.295 1095.027 1070.443 1095.027 M 1080.457 1089.29 1063.247 1070.653" fill="none" stroke-width="4.632"/><path d="M 2018.084 545.604 2018.084 1268.264 1673.467 786.756 2189.994 786.756 M 2154.716 1269.06 2154.716 545.604 2465.11 545.604 2568.575 580.623 2602.798 614.846 2637.021 683.291 2637.021 786.756 2602.798 855.998 2568.575 890.22 2465.11 924.443 2568.575 959.462 2602.798 993.685 2637.021 1062.131 2637.021 1131.372 2602.798 1199.818 2568.575 1234.837 2465.11 1269.06 2154.716 1269.06 M 2154.716 924.443 2465.11 924.443" fill="none" stroke-width="111.163"/><path d="M 2245.32 1174.454 2256.816 1147.66 2268.268 1174.454 M 2280.619 1180.158 2284.466 1182.104 2290.214 1187.807 2290.214 1147.66 M 2304.467 1151.506 2302.566 1149.561 2304.467 1147.66 2306.412 1149.561 2304.467 1151.506 M 2330.26 1187.807 2324.512 1185.906 2320.665 1180.158 2318.764 1170.608 2318.764 1164.86 2320.665 1155.309 2324.512 1149.561 2330.26 1147.66 2334.062 1147.66 2339.81 1149.561 2343.613 1155.309 2345.558 1164.86 2345.558 1170.608 2343.613 1180.158 2339.81 1185.906 2334.062 1187.807 2330.26 1187.807 M 2343.613 1180.158 2320.665 1155.309" fill="none" stroke-width="6.176"/><path d="M 3090.126 664.787 3082.521 679.997 3059.529 687.603 3044.319 687.603 3021.326 679.997 3005.939 657.005 2998.334 618.803 2998.334 580.601 3005.939 550.004 3021.326 534.617 3044.319 527.011 3051.924 527.011 3074.739 534.617 3090.126 550.004 3097.731 572.996 3097.731 580.601 3090.126 603.593 3074.739 618.803 3051.924 626.408 3044.319 626.408 3021.326 618.803 3005.939 603.593 2998.334 580.601 M 3147.137 611.198 3215.936 611.198 3238.928 618.98 3246.71 626.585 3254.315 641.795 3254.315 657.182 3246.71 672.392 3238.928 680.174 3215.936 687.779 3147.137 687.779 3147.137 527.011 M 3200.726 611.198 3254.315 527.011" fill="none" stroke-width="24.703"/><path d="M 2732.449 999.059 2732.449 556.947 2879.82 556.947 2943.048 578.347 2985.363 620.175 3006.277 662.489 3027.191 725.231 3027.191 830.774 3006.277 894.002 2985.363 935.83 2943.048 978.145 2879.82 999.059 2732.449 999.059" fill="none" stroke-width="67.933"/><path d="M 2212.489 677.946 2212.489 634.902 2215.341 626.28 2221.111 620.576 2229.733 617.658 2235.437 617.658 2244.059 620.576 2249.829 626.28 2252.681 634.902 2252.681 677.946 M 2291.304 677.946 2291.304 617.658 M 2271.208 677.946 2311.4 677.946 M 2350.023 677.946 2350.023 617.658 M 2329.927 677.946 2370.119 677.946 M 2405.89 677.946 2400.12 675.094 2394.416 669.324 2391.498 663.62 2388.646 654.998 2388.646 640.606 2391.498 632.05 2394.416 626.28 2400.12 620.576 2405.89 617.658 2417.364 617.658 2423.068 620.576 2428.838 626.28 2431.69 632.05 2434.542 640.606 2434.542 654.998 2431.69 663.62 2428.838 669.324 2423.068 675.094 2417.364 677.946 2405.89 677.946 M 2493.261 677.946 2493.261 617.658 2453.069 677.946 2453.069 617.658 M 1856.032 897.928 1856.032 900.78 1858.884 906.55 1861.735 909.402 1867.506 912.254 1878.98 912.254 1884.683 909.402 1887.535 906.55 1890.453 900.78 1890.453 895.076 1887.535 889.306 1881.831 880.75 1853.113 852.032 1893.305 852.032" fill="none" stroke-width="9.264"/></g><g id="gBYkD8xLMYlWk6MH-HrE_top_soldermask"><use xlink:href="#uvCcsOucWeo4dcDbl7n7_pad-45" x="3737.45" y="668.627"/><use xlink:href="#uvCcsOucWeo4dcDbl7n7_pad-45" x="3737.45" y="558.391"/><use xlink:href="#uvCcsOucWeo4dcDbl7n7_pad-45" x="2756.201" y="668.627"/><use xlink:href="#uvCcsOucWeo4dcDbl7n7_pad-45" x="2756.201" y="558.391"/><use xlink:href="#uvCcsOucWeo4dcDbl7n7_pad-45" x="1762.451" y="668.627"/><use xlink:href="#uvCcsOucWeo4dcDbl7n7_pad-45" x="1762.451" y="558.391"/><use xlink:href="#uvCcsOucWeo4dcDbl7n7_pad-45" x="987.45" y="674.95"/><use xlink:href="#uvCcsOucWeo4dcDbl7n7_pad-45" x="987.45" y="564.714"/><use xlink:href="#uvCcsOucWeo4dcDbl7n7_pad-37" x="511.811" y="511.811"/><use xlink:href="#uvCcsOucWeo4dcDbl7n7_pad-37" x="511.811" y="1259.843"/><use xlink:href="#uvCcsOucWeo4dcDbl7n7_pad-37" x="4212.598" y="1259.843"/><use xlink:href="#uvCcsOucWeo4dcDbl7n7_pad-37" x="4212.598" y="511.811"/><use xlink:href="#uvCcsOucWeo4dcDbl7n7_pad-45" x="3624.951" y="558.391"/><use xlink:href="#uvCcsOucWeo4dcDbl7n7_pad-45" x="3624.951" y="668.627"/><use xlink:href="#uvCcsOucWeo4dcDbl7n7_pad-45" x="2643.701" y="558.391"/><use xlink:href="#uvCcsOucWeo4dcDbl7n7_pad-45" x="2643.701" y="668.627"/><use xlink:href="#uvCcsOucWeo4dcDbl7n7_pad-45" x="1651.329" y="558.391"/><use xlink:href="#uvCcsOucWeo4dcDbl7n7_pad-45" x="1651.329" y="668.627"/><use xlink:href="#uvCcsOucWeo4dcDbl7n7_pad-45" x="874.951" y="562.525"/><use xlink:href="#uvCcsOucWeo4dcDbl7n7_pad-45" x="874.951" y="672.761"/><use xlink:href="#uvCcsOucWeo4dcDbl7n7_pad-43" x="1276.041" y="635.827"/><use xlink:href="#uvCcsOucWeo4dcDbl7n7_pad-43" x="1401.238" y="735.827"/><use xlink:href="#uvCcsOucWeo4dcDbl7n7_pad-43" x="1276.041" y="835.827"/><use xlink:href="#uvCcsOucWeo4dcDbl7n7_pad-43" x="1401.238" y="935.827"/><use xlink:href="#uvCcsOucWeo4dcDbl7n7_pad-43" x="1276.041" y="1035.827"/><use xlink:href="#uvCcsOucWeo4dcDbl7n7_pad-43" x="1401.238" y="1135.827"/><use xlink:href="#uvCcsOucWeo4dcDbl7n7_pad-41" x="3937.008" y="984.215"/><use xlink:href="#uvCcsOucWeo4dcDbl7n7_pad-41" x="3937.008" y="787.364"/><use xlink:href="#uvCcsOucWeo4dcDbl7n7_pad-41" x="3740.157" y="787.364"/><use xlink:href="#uvCcsOucWeo4dcDbl7n7_pad-41" x="3740.157" y="984.215"/><use xlink:href="#uvCcsOucWeo4dcDbl7n7_pad-41" x="2952.756" y="984.215"/><use xlink:href="#uvCcsOucWeo4dcDbl7n7_pad-41" x="2952.756" y="787.364"/><use xlink:href="#uvCcsOucWeo4dcDbl7n7_pad-41" x="2755.906" y="787.364"/><use xlink:href="#uvCcsOucWeo4dcDbl7n7_pad-41" x="2755.906" y="984.215"/><use xlink:href="#uvCcsOucWeo4dcDbl7n7_pad-41" x="1968.504" y="984.215"/><use xlink:href="#uvCcsOucWeo4dcDbl7n7_pad-41" x="1968.504" y="787.364"/><use xlink:href="#uvCcsOucWeo4dcDbl7n7_pad-41" x="1771.654" y="787.364"/><use xlink:href="#uvCcsOucWeo4dcDbl7n7_pad-41" x="1771.654" y="984.215"/><use xlink:href="#uvCcsOucWeo4dcDbl7n7_pad-41" x="984.252" y="984.215"/><use xlink:href="#uvCcsOucWeo4dcDbl7n7_pad-41" x="984.252" y="787.364"/><use xlink:href="#uvCcsOucWeo4dcDbl7n7_pad-41" x="787.402" y="787.364"/><use xlink:href="#uvCcsOucWeo4dcDbl7n7_pad-41" x="787.402" y="984.215"/></g><g id="gBYkD8xLMYlWk6MH-HrE_top_drill1"><use xlink:href="#UKAtd4igKmoA9jsS6rAi_pad-1" x="1443.7" y="1035.8"/><use xlink:href="#UKAtd4igKmoA9jsS6rAi_pad-2" x="3937" y="984.2"/><use xlink:href="#UKAtd4igKmoA9jsS6rAi_pad-2" x="3937" y="787.4"/><use xlink:href="#UKAtd4igKmoA9jsS6rAi_pad-2" x="3740.2" y="787.4"/><use xlink:href="#UKAtd4igKmoA9jsS6rAi_pad-2" x="3740.2" y="984.2"/><use xlink:href="#UKAtd4igKmoA9jsS6rAi_pad-2" x="2952.8" y="984.2"/><use xlink:href="#UKAtd4igKmoA9jsS6rAi_pad-2" x="2952.8" y="787.4"/><use xlink:href="#UKAtd4igKmoA9jsS6rAi_pad-2" x="2755.9" y="787.4"/><use xlink:href="#UKAtd4igKmoA9jsS6rAi_pad-2" x="2755.9" y="984.2"/><use xlink:href="#UKAtd4igKmoA9jsS6rAi_pad-2" x="1968.5" y="984.2"/><use xlink:href="#UKAtd4igKmoA9jsS6rAi_pad-2" x="1968.5" y="787.4"/><use xlink:href="#UKAtd4igKmoA9jsS6rAi_pad-2" x="1771.7" y="787.4"/><use xlink:href="#UKAtd4igKmoA9jsS6rAi_pad-2" x="1771.7" y="984.2"/><use xlink:href="#UKAtd4igKmoA9jsS6rAi_pad-2" x="984.3" y="984.2"/><use xlink:href="#UKAtd4igKmoA9jsS6rAi_pad-2" x="984.3" y="787.4"/><use xlink:href="#UKAtd4igKmoA9jsS6rAi_pad-2" x="787.4" y="787.4"/><use xlink:href="#UKAtd4igKmoA9jsS6rAi_pad-2" x="787.4" y="984.2"/><use xlink:href="#UKAtd4igKmoA9jsS6rAi_pad-3" x="511.8" y="511.8"/><use xlink:href="#UKAtd4igKmoA9jsS6rAi_pad-3" x="511.8" y="1259.8"/><use xlink:href="#UKAtd4igKmoA9jsS6rAi_pad-3" x="4212.6" y="1259.8"/><use xlink:href="#UKAtd4igKmoA9jsS6rAi_pad-3" x="4212.6" y="511.8"/></g><clipPath id="gBYkD8xLMYlWk6MH-HrE_top_outline"><path d="M 393.701 393.701 4330.709 393.701 4330.709 1377.953 393.701 1377.953 393.701 393.701" fill="none" stroke-width="5.512"/></clipPath><mask id="gBYkD8xLMYlWk6MH-HrE_top_mech-mask"><g fill="#000" stroke="#000"><rect x="393.701" y="393.701" width="3937.008" height="984.252" fill="#fff"/><use xlink:href="#gBYkD8xLMYlWk6MH-HrE_top_drill1"/></g></mask><mask id="gBYkD8xLMYlWk6MH-HrE_top_cf-mask"><g fill="#fff" stroke="#fff"><use xlink:href="#gBYkD8xLMYlWk6MH-HrE_top_soldermask"/></g></mask><mask id="gBYkD8xLMYlWk6MH-HrE_top_sm-mask"><g fill="#000" stroke="#000"><rect x="393.701" y="393.701" width="3937.008" height="984.252" fill="#fff"/><use xlink:href="#gBYkD8xLMYlWk6MH-HrE_top_soldermask"/></g></mask></defs><g transform="translate(0,1771.654) scale(1,-1)"><g mask="url(#gBYkD8xLMYlWk6MH-HrE_top_mech-mask)" clip-path="url(#gBYkD8xLMYlWk6MH-HrE_top_outline)"><rect x="393.701" y="393.701" width="3937.008" height="984.252" fill="currentColor" class="gBYkD8xLMYlWk6MH-HrE_fr4"/><use xlink:href="#gBYkD8xLMYlWk6MH-HrE_top_copper" fill="currentColor" stroke="currentColor" class="gBYkD8xLMYlWk6MH-HrE_cu"/><use xlink:href="#gBYkD8xLMYlWk6MH-HrE_top_copper" fill="currentColor" stroke="currentColor" class="gBYkD8xLMYlWk6MH-HrE_cf" mask="url(#gBYkD8xLMYlWk6MH-HrE_top_cf-mask)"/><g mask="url(#gBYkD8xLMYlWk6MH-HrE_top_sm-mask)"><rect x="393.701" y="393.701" width="3937.008" height="984.252" fill="currentColor" class="gBYkD8xLMYlWk6MH-HrE_sm"/><use xlink:href="#gBYkD8xLMYlWk6MH-HrE_top_silkscreen" fill="currentColor" stroke="currentColor" class="gBYkD8xLMYlWk6MH-HrE_ss"/></g></g></g></svg>