<svg version="1.1" xmlns="http://www.w3.org/2000/svg" xmlns:xlink="http://www.w3.org/1999/xlink" stroke-linecap="round" stroke-linejoin="round" stroke-width="0" fill-rule="evenodd" width="3.464622in" height="0.9291889999999999in" viewBox="629.894 421.232 3464.622 929.189" id="KBzsiXHiZS4rtGbEfOLN"><defs><circle cx="0" cy="0" r="20" id="KBzsiXHiZS4rtGbEfOLN_pad-35"/><rect x="-35.433" y="-31.496" width="70.866" height="62.992" id="KBzsiXHiZS4rtGbEfOLN_pad-17"/><rect x="-62.5985" y="-25" width="125.197" height="50" id="KBzsiXHiZS4rtGbEfOLN_pad-19"/><circle cx="0" cy="0" r="40" id="KBzsiXHiZS4rtGbEfOLN_pad-34"/></defs><g transform="translate(0,1771.653) scale(1,-1)" fill="currentColor" stroke="currentColor"><path d="M 3740.157 984.241 3740.157 787.391 3740.157 671.335 3737.45 668.627 3624.951 668.627 M 1401.238 935.827 1657.824 935.827 1687.45 906.201 3424.951 906.201 3618.701 712.451 3618.701 668.627 3624.951 668.627 M 2755.906 787.391 2755.906 668.923 2756.201 668.627 2643.701 668.627 M 1276.041 835.827 1654.576 835.827 1687.45 868.701 2487.451 868.701 2643.701 712.451 2643.701 668.627 M 1651.329 668.627 1762.451 668.627 1762.451 778.189 1771.654 787.391 M 1401.238 735.827 1584.13 735.827 1651.329 668.627 M 787.402 787.396 787.402 760.311 874.951 672.761 985.261 672.761 987.45 674.95 M 787.402 984.247 787.402 787.396 M 1276.041 635.827 1276.041 637.45 1143.701 637.45 1106.201 674.95 987.45 674.95" fill="none" stroke-width="12"/><path d="M 984.252 787.396 984.252 984.247 1115.496 984.247 1167.076 1035.827 1276.041 1035.827 1443.701 1035.827 M 3937.008 984.247 3937.008 787.396" fill="none" stroke-width="22"/><use xlink:href="#KBzsiXHiZS4rtGbEfOLN_pad-35" x="1443.701" y="1035.827"/><path d="M 644.94 1313.025 4079.474 1313.025 M 644.94 1288.156 4079.474 1288.156 M 644.94 1263.287 4079.474 1263.287 M 644.94 1238.419 4079.474 1238.419 M 644.94 1213.55 4079.474 1213.55 M 644.94 1188.681 4079.474 1188.681 M 644.94 1163.812 1309.646 1163.812 M 1492.811 1163.812 4079.474 1163.812 M 644.94 1138.944 1309.646 1138.944 M 1492.811 1138.944 4079.474 1138.944 M 644.94 1114.075 1309.646 1114.075 M 1492.811 1114.075 4079.474 1114.075 M 644.94 1089.206 1309.646 1089.206 M 1492.811 1089.206 4079.474 1089.206 M 644.94 1064.337 1140.236 1064.337 M 1482.942 1064.337 4079.474 1064.337 M 644.94 1039.469 747.879 1039.469 M 826.908 1039.469 944.739 1039.469 M 1023.769 1039.469 1115.189 1039.469 M 1492.559 1039.469 1732.146 1039.469 M 1811.176 1039.469 1929.007 1039.469 M 2008 1039.469 2716.413 1039.469 M 2795.407 1039.469 2913.239 1039.469 M 2992.268 1039.469 3700.644 1039.469 M 3779.675 1039.469 3897.505 1039.469 M 3976.499 1039.469 4079.474 1039.469 M 644.94 1014.6 725.739 1014.6 M 849.049 1014.6 922.598 1014.6 M 1487.572 1014.6 1710.005 1014.6 M 1833.316 1014.6 1906.866 1014.6 M 2030.14 1014.6 2694.273 1014.6 M 2817.547 1014.6 2891.097 1014.6 M 3014.408 1014.6 3678.504 1014.6 M 3801.815 1014.6 3875.365 1014.6 M 3998.639 1014.6 4079.474 1014.6 M 644.94 989.731 718.634 989.731 M 856.154 989.731 915.493 989.731 M 1367.647 989.731 1435.133 989.731 M 1452.264 989.731 1702.9 989.731 M 1840.421 989.731 1899.726 989.731 M 2037.282 989.731 2687.133 989.731 M 2824.652 989.731 2883.992 989.731 M 3021.513 989.731 3671.399 989.731 M 3808.92 989.731 3868.26 989.731 M 4005.781 989.731 4079.474 989.731 M 644.94 964.862 721.289 964.862 M 853.499 964.862 918.15 964.862 M 1674.923 964.862 1705.556 964.862 M 1837.765 964.862 1902.381 964.862 M 2034.626 964.862 2689.787 964.862 M 2822.033 964.862 2886.648 964.862 M 3018.857 964.862 3674.055 964.862 M 3806.264 964.862 3870.916 964.862 M 4003.125 964.862 4079.474 964.862 M 644.94 939.993 735.248 939.993 M 839.539 939.993 932.108 939.993 M 1702.123 939.993 1719.514 939.993 M 1823.807 939.993 1916.375 939.993 M 2020.667 939.993 2703.747 939.993 M 2808.038 939.993 2900.608 939.993 M 3004.899 939.993 3688.013 939.993 M 3792.306 939.993 3884.874 939.993 M 3989.165 939.993 4079.474 939.993 M 644.94 915.125 752.4 915.125 M 822.387 915.125 944.273 915.125 M 3464.467 915.125 3705.167 915.125 M 3775.152 915.125 3897.003 915.125 M 3977.001 915.125 4079.474 915.125 M 644.94 890.256 752.4 890.256 M 822.387 890.256 944.273 890.256 M 3489.335 890.256 3705.167 890.256 M 3775.152 890.256 3897.003 890.256 M 3977.001 890.256 4079.474 890.256 M 644.94 865.387 752.4 865.387 M 822.387 865.387 944.273 865.387 M 2539.23 865.387 3417.303 865.387 M 3514.203 865.387 3705.167 865.387 M 3775.152 865.387 3897.003 865.387 M 3977.001 865.387 4079.474 865.387 M 644.94 840.518 744.936 840.518 M 829.85 840.518 941.797 840.518 M 2564.097 840.518 2713.436 840.518 M 2798.385 840.518 2910.295 840.518 M 2995.21 840.518 3442.171 840.518 M 3539.071 840.518 3697.702 840.518 M 3782.617 840.518 3894.563 840.518 M 3979.478 840.518 4079.474 840.518 M 644.94 815.65 724.734 815.65 M 850.089 815.65 921.558 815.65 M 1834.32 815.65 1905.825 815.65 M 2031.181 815.65 2492.066 815.65 M 2588.965 815.65 2693.232 815.65 M 2818.588 815.65 2890.058 815.65 M 3015.449 815.65 3467.039 815.65 M 3563.938 815.65 3677.463 815.65 M 3802.856 815.65 3874.324 815.65 M 3999.68 815.65 4079.474 815.65 M 644.94 790.781 718.49 790.781 M 856.297 790.781 915.35 790.781 M 1840.564 790.781 1899.581 790.781 M 2037.425 790.781 2516.933 790.781 M 2613.833 790.781 2686.988 790.781 M 2824.795 790.781 2883.849 790.781 M 3021.656 790.781 3491.907 790.781 M 3588.806 790.781 3671.256 790.781 M 3809.063 790.781 3868.117 790.781 M 4005.924 790.781 4079.474 790.781 M 644.94 765.912 721.97 765.912 M 852.852 765.912 918.831 765.912 M 1837.084 765.912 1903.063 765.912 M 2033.945 765.912 2541.801 765.912 M 2638.701 765.912 2690.47 765.912 M 2821.35 765.912 2887.329 765.912 M 3018.176 765.912 3516.774 765.912 M 3613.673 765.912 3674.736 765.912 M 3805.583 765.912 3871.562 765.912 M 4002.444 765.912 4079.474 765.912 M 644.94 741.043 737.222 741.043 M 855.113 741.043 934.046 741.043 M 1821.833 741.043 1918.314 741.043 M 2018.693 741.043 2566.669 741.043 M 2663.568 741.043 2705.72 741.043 M 2806.1 741.043 2902.58 741.043 M 3002.961 741.043 3541.642 741.043 M 3638.577 741.043 3689.951 741.043 M 3790.367 741.043 3886.812 741.043 M 3987.193 741.043 4079.474 741.043 M 644.94 716.175 783.081 716.175 M 1826.892 716.175 2579.264 716.175 M 2820.634 716.175 3560.517 716.175 M 3801.886 716.175 4079.474 716.175 M 644.94 691.306 807.949 691.306 M 1492.811 691.306 1580.213 691.306 M 1826.892 691.306 2579.264 691.306 M 2820.634 691.306 3560.517 691.306 M 3801.886 691.306 4079.474 691.306 M 644.94 666.437 810.533 666.437 M 1367.647 666.437 1586.887 666.437 M 1826.892 666.437 2579.264 666.437 M 2820.634 666.437 3560.517 666.437 M 3801.886 666.437 4079.474 666.437 M 644.94 641.568 810.533 641.568 M 1051.866 641.568 1091.147 641.568 M 1367.647 641.568 1586.887 641.568 M 1826.892 641.568 2579.264 641.568 M 2820.634 641.568 3560.517 641.568 M 3801.886 641.568 4079.474 641.568 M 644.94 616.699 810.533 616.699 M 1051.866 616.699 1116.014 616.699 M 1367.647 616.699 1586.887 616.699 M 1826.892 616.699 2579.264 616.699 M 2820.634 616.699 3560.517 616.699 M 3801.886 616.699 4079.474 616.699 M 644.94 591.831 810.533 591.831 M 1051.866 591.831 1184.446 591.831 M 1367.647 591.831 1586.887 591.831 M 1826.892 591.831 2579.264 591.831 M 2820.634 591.831 3560.517 591.831 M 3801.886 591.831 4079.474 591.831 M 644.94 566.962 810.533 566.962 M 1051.866 566.962 1586.887 566.962 M 1826.892 566.962 2579.264 566.962 M 2820.634 566.962 3560.517 566.962 M 3801.886 566.962 4079.474 566.962 M 644.94 542.093 810.533 542.093 M 1051.866 542.093 1586.887 542.093 M 1826.892 542.093 2579.264 542.093 M 2820.634 542.093 3560.517 542.093 M 3801.886 542.093 4079.474 542.093 M 644.94 517.224 810.533 517.224 M 1051.866 517.224 1586.887 517.224 M 1826.892 517.224 2579.264 517.224 M 2820.634 517.224 3560.517 517.224 M 3801.886 517.224 4079.474 517.224 M 644.94 492.356 4079.474 492.356 M 644.94 467.487 4079.474 467.487 M 644.94 442.618 4079.474 442.618 M 1365.131 684.34 1365.131 584.335 1186.95 584.335 1186.95 604.969 1141.151 605.058 1136.115 605.856 1131.266 607.432 1126.723 609.745 1122.598 612.743 1092.738 642.462 1049.396 642.458 1049.375 506.726 936.877 506.602 936.877 504.537 813.026 504.537 813.001 688.76 780.497 721.264 771.879 722.72 761.957 725.945 752.66 730.681 744.218 736.814 736.841 744.192 730.707 752.633 725.971 761.929 722.747 771.853 721.114 782.157 721.114 792.592 722.747 802.898 725.971 812.82 730.707 822.117 736.841 830.558 744.218 837.936 752.66 844.068 754.92 845.335 754.909 926.232 748.319 930.432 740.385 937.209 733.609 945.142 728.156 954.038 724.164 963.678 721.728 973.824 720.909 984.226 721.728 994.627 724.164 1004.773 728.156 1014.412 733.609 1023.308 740.385 1031.243 748.319 1038.018 757.215 1043.47 766.854 1047.463 777 1049.899 787.402 1050.718 797.803 1049.899 807.949 1047.463 817.588 1043.47 826.484 1038.018 834.419 1031.243 841.194 1023.308 846.647 1014.412 850.639 1004.773 853.075 994.627 853.894 984.226 853.075 973.824 850.639 963.678 846.647 954.038 841.194 945.142 834.419 937.209 826.484 930.432 819.883 926.266 819.894 845.411 826.484 841.168 834.419 834.392 841.194 826.458 846.647 817.562 850.639 807.923 853.075 797.777 853.894 787.375 853.075 776.974 850.639 766.828 846.647 757.188 842.861 750.785 862.927 730.738 925.524 730.749 925.525 732.938 946.087 732.938 941.068 736.814 933.692 744.192 927.558 752.633 922.822 761.929 919.597 771.853 917.965 782.157 917.965 792.592 919.597 802.898 922.822 812.82 927.558 822.117 933.692 830.558 941.068 837.936 946.745 842.222 946.76 929.319 941.068 933.664 933.692 941.042 927.558 949.483 922.822 958.78 919.597 968.703 917.965 979.008 917.965 989.442 919.597 999.748 922.822 1009.671 927.558 1018.967 933.692 1027.408 941.068 1034.786 949.51 1040.919 958.807 1045.656 968.73 1048.881 979.035 1050.513 989.469 1050.513 999.774 1048.881 1009.697 1045.656 1018.993 1040.919 1027.436 1034.786 1034.812 1027.408 1039.098 1021.731 1099.979 1021.739 1142.727 1064.336 1147.487 1067.794 1152.728 1070.465 1158.324 1072.283 1164.134 1073.203 1186.92 1073.319 1186.95 1087.319 1312.15 1087.319 1312.147 1187.319 1490.328 1187.319 1490.328 1084.335 1365.129 1084.335 1365.131 1073.289 1416.374 1073.44 1422.593 1077.252 1429.333 1080.043 1436.428 1081.747 1443.701 1082.319 1450.974 1081.747 1458.068 1080.043 1464.808 1077.252 1471.028 1073.44 1476.576 1068.702 1481.314 1063.154 1485.126 1056.934 1487.917 1050.194 1489.621 1043.1 1490.193 1035.827 1489.621 1028.554 1487.917 1021.459 1485.126 1014.719 1481.314 1008.5 1476.576 1002.951 1471.028 998.214 1464.808 994.402 1458.068 991.61 1450.974 989.907 1443.701 989.335 1436.428 989.907 1429.333 991.61 1422.593 994.402 1416.142 998.335 1365.151 998.335 1365.131 987.31 1490.328 987.319 1490.328 968.336 1660.374 968.219 1665.409 967.421 1670.259 965.845 1674.802 963.531 1678.927 960.534 1700.921 938.681 1723.227 938.693 1717.861 945.142 1712.408 954.038 1708.416 963.678 1705.98 973.824 1705.161 984.226 1705.98 994.627 1708.416 1004.773 1712.408 1014.412 1717.861 1023.308 1724.636 1031.243 1732.571 1038.018 1741.467 1043.47 1751.106 1047.463 1761.252 1049.899 1771.654 1050.718 1782.055 1049.899 1792.201 1047.463 1801.84 1043.47 1810.736 1038.018 1818.671 1031.243 1825.446 1023.308 1830.899 1014.412 1834.891 1004.773 1837.327 994.627 1838.146 984.226 1837.327 973.824 1834.891 963.678 1830.899 954.038 1825.446 945.142 1820.041 938.692 1920.016 938.693 1914.711 945.142 1909.259 954.038 1905.266 963.678 1902.831 973.824 1902.012 984.226 1902.831 994.627 1905.266 1004.773 1909.259 1014.412 1914.711 1023.308 1921.487 1031.243 1929.421 1038.018 1938.318 1043.47 1947.957 1047.463 1958.102 1049.899 1968.504 1050.718 1978.906 1049.899 1989.051 1047.463 1998.69 1043.47 2007.587 1038.018 2015.521 1031.243 2022.297 1023.308 2027.749 1014.412 2031.741 1004.773 2034.177 994.627 2034.996 984.226 2034.177 973.824 2031.741 963.678 2027.749 954.038 2022.297 945.142 2016.891 938.692 2707.458 938.693 2702.113 945.142 2696.66 954.038 2692.668 963.678 2690.232 973.824 2689.413 984.226 2690.232 994.627 2692.668 1004.773 2696.66 1014.412 2702.113 1023.308 2708.888 1031.243 2716.823 1038.018 2725.719 1043.47 2735.358 1047.463 2745.504 1049.899 2755.906 1050.718 2766.307 1049.899 2776.453 1047.463 2786.092 1043.47 2794.988 1038.018 2802.923 1031.243 2809.698 1023.308 2815.151 1014.412 2819.143 1004.773 2821.579 994.627 2822.398 984.226 2821.579 973.824 2819.143 963.678 2815.151 954.038 2809.698 945.142 2804.293 938.692 2904.319 938.693 2898.963 945.142 2893.51 954.038 2889.518 963.678 2887.083 973.824 2886.264 984.226 2887.083 994.627 2889.518 1004.773 2893.51 1014.412 2898.963 1023.308 2905.739 1031.243 2913.673 1038.018 2922.57 1043.47 2932.209 1047.463 2942.354 1049.899 2952.756 1050.718 2963.157 1049.899 2973.303 1047.463 2982.942 1043.47 2991.839 1038.018 2999.773 1031.243 3006.549 1023.308 3012.001 1014.412 3015.993 1004.773 3018.429 994.627 3019.248 984.226 3018.429 973.824 3015.993 963.678 3012.001 954.038 3006.549 945.142 3001.143 938.692 3427.501 938.593 3432.537 937.795 3437.386 936.219 3441.929 933.906 3446.054 930.908 3493.398 883.706 3643.408 733.554 3646.406 729.429 3647.656 727.193 3654.89 726.615 3707.642 726.615 3705.416 730.681 3696.974 736.814 3689.597 744.192 3683.463 752.633 3678.727 761.929 3675.503 771.853 3673.87 782.157 3673.87 792.592 3675.503 802.898 3678.727 812.82 3683.463 822.117 3689.597 830.558 3696.974 837.936 3705.416 844.068 3707.676 845.335 3707.665 926.227 3701.075 930.432 3693.14 937.209 3686.365 945.142 3680.912 954.038 3676.92 963.678 3674.484 973.824 3673.665 984.226 3674.484 994.627 3676.92 1004.773 3680.912 1014.412 3686.365 1023.308 3693.14 1031.243 3701.075 1038.018 3709.971 1043.47 3719.61 1047.463 3729.756 1049.899 3740.157 1050.718 3750.559 1049.899 3760.705 1047.463 3770.344 1043.47 3779.24 1038.018 3787.175 1031.243 3793.95 1023.308 3799.403 1014.412 3803.395 1004.773 3805.831 994.627 3806.65 984.226 3805.831 973.824 3803.395 963.678 3799.403 954.038 3793.95 945.142 3787.175 937.209 3779.24 930.432 3772.639 926.266 3772.65 845.406 3779.24 841.168 3787.175 834.392 3793.95 826.458 3799.403 817.562 3803.395 807.923 3805.831 797.777 3806.65 787.375 3805.831 776.974 3803.395 766.828 3799.403 757.188 3793.95 748.291 3787.175 740.358 3779.24 733.581 3772.639 729.416 3776.575 726.615 3799.375 726.615 3799.375 500.403 3563.026 500.403 3563.026 722.154 3411.486 873.717 2528.385 873.709 2668.408 733.554 2671.406 729.429 2672.656 727.194 2673.639 726.615 2723.378 726.615 2721.164 730.681 2712.722 736.814 2705.345 744.192 2699.211 752.633 2694.475 761.929 2691.251 771.853 2689.618 782.157 2689.618 792.592 2691.251 802.898 2694.475 812.82 2699.211 822.117 2705.345 830.558 2712.722 837.936 2721.164 844.068 2730.461 848.806 2740.383 852.03 2750.689 853.663 2761.122 853.663 2771.428 852.03 2781.35 848.806 2790.647 844.068 2799.089 837.936 2806.466 830.558 2812.6 822.117 2817.336 812.82 2820.56 802.898 2822.193 792.592 2822.193 782.157 2820.56 771.853 2817.336 761.929 2812.6 752.633 2806.466 744.192 2799.089 736.814 2790.647 730.681 2788.387 729.416 2795.325 726.615 2818.126 726.615 2818.126 500.403 2581.776 500.403 2581.776 726.615 2583.606 726.615 2473.988 836.214 2013.601 836.209 2019.064 830.558 2025.198 822.117 2029.934 812.82 2033.159 802.898 2034.791 792.592 2034.791 782.157 2033.159 771.853 2029.934 761.929 2025.198 752.633 2019.064 744.192 2011.688 736.814 2003.245 730.681 1993.949 725.945 1984.026 722.72 1973.72 721.088 1963.287 721.088 1952.982 722.72 1943.059 725.945 1933.762 730.681 1925.32 736.814 1917.944 744.192 1911.81 752.633 1907.073 761.929 1903.849 771.853 1902.217 782.157 1902.217 792.592 1903.849 802.898 1907.073 812.82 1911.81 822.117 1917.944 830.558 1923.449 836.206 1816.812 836.209 1822.214 830.558 1828.348 822.117 1833.084 812.82 1836.308 802.898 1837.941 792.592 1837.941 782.157 1836.308 771.853 1833.084 761.929 1828.348 752.633 1822.214 744.192 1814.837 736.814 1806.395 730.681 1798.562 726.619 1824.377 726.615 1824.377 500.403 1589.404 500.403 1589.379 684.626 1570.678 703.327 1490.293 703.335 1490.328 684.335 1365.129 684.335 M 4003.295 979.008 4001.663 968.703 3998.438 958.78 3993.702 949.483 3987.568 941.042 3980.192 933.664 3974.514 929.378 3974.5 842.253 3980.192 837.936 3987.568 830.558 3993.702 822.117 3998.438 812.82 4001.663 802.898 4003.295 792.592 4003.295 782.157 4001.663 771.853 3998.438 761.929 3993.702 752.633 3987.568 744.192 3980.192 736.814 3971.749 730.681 3962.453 725.945 3952.53 722.72 3942.224 721.088 3931.791 721.088 3921.486 722.72 3911.563 725.945 3902.266 730.681 3893.824 736.814 3886.448 744.192 3880.314 752.633 3875.577 761.929 3872.353 771.853 3870.72 782.157 3870.72 792.592 3872.353 802.898 3875.577 812.82 3880.314 822.117 3886.448 830.558 3893.824 837.936 3899.501 842.222 3899.516 929.319 3893.824 933.664 3886.448 941.042 3880.314 949.483 3875.577 958.78 3872.353 968.703 3870.72 979.008 3870.72 989.442 3872.353 999.748 3875.577 1009.671 3880.314 1018.967 3886.448 1027.408 3893.824 1034.786 3902.266 1040.919 3911.563 1045.656 3921.486 1048.881 3931.791 1050.513 3942.224 1050.513 3952.53 1048.881 3962.453 1045.656 3971.749 1040.919 3980.192 1034.786 3987.568 1027.408 3993.702 1018.967 3998.438 1009.671 4001.663 999.748 4003.295 989.442 4003.295 979.008 M 3019.043 782.157 3017.411 771.853 3014.186 761.929 3009.45 752.633 3003.316 744.192 2995.94 736.814 2987.497 730.681 2978.201 725.945 2968.278 722.72 2957.972 721.088 2947.539 721.088 2937.234 722.72 2927.311 725.945 2918.014 730.681 2909.572 736.814 2902.196 744.192 2896.062 752.633 2891.325 761.929 2888.101 771.853 2886.469 782.157 2886.469 792.592 2888.101 802.898 2891.325 812.82 2896.062 822.117 2902.196 830.558 2909.572 837.936 2918.014 844.068 2927.311 848.806 2937.234 852.03 2947.539 853.663 2957.972 853.663 2968.278 852.03 2978.201 848.806 2987.497 844.068 2995.94 837.936 3003.316 830.558 3009.45 822.117 3014.186 812.82 3017.411 802.898 3019.043 792.592 3019.043 782.157 M 642.445 433.76 4082.016 433.76 4081.988 1337.921 642.394 1337.894 642.421 433.732" fill="none" stroke-width="25"/><path d="M 1401.238 1187.283 1401.238 1084.37 M 1312.182 1135.827 1490.293 1135.827 M 3624.951 558.391 3624.951 500.438 M 3563.062 558.391 3624.951 558.391 M 3737.45 558.391 3737.45 500.438 M 3737.45 558.391 3799.34 558.391 M 2643.701 558.391 2643.701 500.438 M 2581.811 558.391 2643.701 558.391 M 2756.201 558.391 2756.201 500.438 M 2756.201 558.391 2818.091 558.391 M 1651.329 558.391 1651.329 500.438 M 1589.441 558.391 1651.329 558.391 M 1762.451 558.391 1762.451 500.438 M 1762.451 558.391 1824.341 558.391 M 874.951 562.525 874.951 504.572 M 813.063 562.525 874.951 562.525 M 987.45 564.714 987.45 506.761 M 987.45 564.714 1049.34 564.714" fill="none" stroke-width="20"/><use xlink:href="#KBzsiXHiZS4rtGbEfOLN_pad-17" x="3737.45" y="668.627"/><use xlink:href="#KBzsiXHiZS4rtGbEfOLN_pad-17" x="3737.45" y="558.391"/><use xlink:href="#KBzsiXHiZS4rtGbEfOLN_pad-17" x="2756.201" y="668.627"/><use xlink:href="#KBzsiXHiZS4rtGbEfOLN_pad-17" x="2756.201" y="558.391"/><use xlink:href="#KBzsiXHiZS4rtGbEfOLN_pad-17" x="1762.451" y="668.627"/><use xlink:href="#KBzsiXHiZS4rtGbEfOLN_pad-17" x="1762.451" y="558.391"/><use xlink:href="#KBzsiXHiZS4rtGbEfOLN_pad-17" x="987.45" y="674.95"/><use xlink:href="#KBzsiXHiZS4rtGbEfOLN_pad-17" x="987.45" y="564.714"/><use xlink:href="#KBzsiXHiZS4rtGbEfOLN_pad-17" x="3624.951" y="558.391"/><use xlink:href="#KBzsiXHiZS4rtGbEfOLN_pad-17" x="3624.951" y="668.627"/><use xlink:href="#KBzsiXHiZS4rtGbEfOLN_pad-17" x="2643.701" y="558.391"/><use xlink:href="#KBzsiXHiZS4rtGbEfOLN_pad-17" x="2643.701" y="668.627"/><use xlink:href="#KBzsiXHiZS4rtGbEfOLN_pad-17" x="1651.329" y="558.391"/><use xlink:href="#KBzsiXHiZS4rtGbEfOLN_pad-17" x="1651.329" y="668.627"/><use xlink:href="#KBzsiXHiZS4rtGbEfOLN_pad-17" x="874.951" y="562.525"/><use xlink:href="#KBzsiXHiZS4rtGbEfOLN_pad-17" x="874.951" y="672.761"/><use xlink:href="#KBzsiXHiZS4rtGbEfOLN_pad-19" x="1276.041" y="635.827"/><use xlink:href="#KBzsiXHiZS4rtGbEfOLN_pad-19" x="1401.238" y="735.827"/><use xlink:href="#KBzsiXHiZS4rtGbEfOLN_pad-19" x="1276.041" y="835.827"/><use xlink:href="#KBzsiXHiZS4rtGbEfOLN_pad-19" x="1401.238" y="935.827"/><use xlink:href="#KBzsiXHiZS4rtGbEfOLN_pad-19" x="1276.041" y="1035.827"/><use xlink:href="#KBzsiXHiZS4rtGbEfOLN_pad-19" x="1401.238" y="1135.827"/><use xlink:href="#KBzsiXHiZS4rtGbEfOLN_pad-34" x="3937.008" y="984.215"/><use xlink:href="#KBzsiXHiZS4rtGbEfOLN_pad-34" x="3937.008" y="787.364"/><use xlink:href="#KBzsiXHiZS4rtGbEfOLN_pad-34" x="3740.157" y="787.364"/><use xlink:href="#KBzsiXHiZS4rtGbEfOLN_pad-34" x="3740.157" y="984.215"/><use xlink:href="#KBzsiXHiZS4rtGbEfOLN_pad-34" x="2952.756" y="984.215"/><use xlink:href="#KBzsiXHiZS4rtGbEfOLN_pad-34" x="2952.756" y="787.364"/><use xlink:href="#KBzsiXHiZS4rtGbEfOLN_pad-34" x="2755.906" y="787.364"/><use xlink:href="#KBzsiXHiZS4rtGbEfOLN_pad-34" x="2755.906" y="984.215"/><use xlink:href="#KBzsiXHiZS4rtGbEfOLN_pad-34" x="1968.504" y="984.215"/><use xlink:href="#KBzsiXHiZS4rtGbEfOLN_pad-34" x="1968.504" y="787.364"/><use xlink:href="#KBzsiXHiZS4rtGbEfOLN_pad-34" x="1771.654" y="787.364"/><use xlink:href="#KBzsiXHiZS4rtGbEfOLN_pad-34" x="1771.654" y="984.215"/><use xlink:href="#KBzsiXHiZS4rtGbEfOLN_pad-34" x="984.252" y="984.215"/><use xlink:href="#KBzsiXHiZS4rtGbEfOLN_pad-34" x="984.252" y="787.364"/><use xlink:href="#KBzsiXHiZS4rtGbEfOLN_pad-34" x="787.402" y="787.364"/><use xlink:href="#KBzsiXHiZS4rtGbEfOLN_pad-34" x="787.402" y="984.215"/></g></svg>