<svg version="1.1" xmlns="http://www.w3.org/2000/svg" xmlns:xlink="http://www.w3.org/1999/xlink" stroke-linecap="round" stroke-linejoin="round" stroke-width="0" fill-rule="evenodd" width="3.8188969999999998in" height="0.8661420000000001in" viewBox="452.756 452.756 3818.897 866.142" id="uvCcsOucWeo4dcDbl7n7"><defs><rect x="-39.37" y="-35.433" width="78.74" height="70.866" id="uvCcsOucWeo4dcDbl7n7_pad-45"/><circle cx="0" cy="0" r="59.055" id="uvCcsOucWeo4dcDbl7n7_pad-37"/><rect x="-66.5355" y="-28.937" width="133.071" height="57.874" id="uvCcsOucWeo4dcDbl7n7_pad-43"/><circle cx="0" cy="0" r="43.937" id="uvCcsOucWeo4dcDbl7n7_pad-41"/></defs><g transform="translate(0,1771.654) scale(1,-1)" fill="currentColor" stroke="currentColor"><use xlink:href="#uvCcsOucWeo4dcDbl7n7_pad-45" x="3737.45" y="668.627"/><use xlink:href="#uvCcsOucWeo4dcDbl7n7_pad-45" x="3737.45" y="558.391"/><use xlink:href="#uvCcsOucWeo4dcDbl7n7_pad-45" x="2756.201" y="668.627"/><use xlink:href="#uvCcsOucWeo4dcDbl7n7_pad-45" x="2756.201" y="558.391"/><use xlink:href="#uvCcsOucWeo4dcDbl7n7_pad-45" x="1762.451" y="668.627"/><use xlink:href="#uvCcsOucWeo4dcDbl7n7_pad-45" x="1762.451" y="558.391"/><use xlink:href="#uvCcsOucWeo4dcDbl7n7_pad-45" x="987.45" y="674.95"/><use xlink:href="#uvCcsOucWeo4dcDbl7n7_pad-45" x="987.45" y="564.714"/><use xlink:href="#uvCcsOucWeo4dcDbl7n7_pad-37" x="511.811" y="511.811"/><use xlink:href="#uvCcsOucWeo4dcDbl7n7_pad-37" x="511.811" y="1259.843"/><use xlink:href="#uvCcsOucWeo4dcDbl7n7_pad-37" x="4212.598" y="1259.843"/><use xlink:href="#uvCcsOucWeo4dcDbl7n7_pad-37" x="4212.598" y="511.811"/><use xlink:href="#uvCcsOucWeo4dcDbl7n7_pad-45" x="3624.951" y="558.391"/><use xlink:href="#uvCcsOucWeo4dcDbl7n7_pad-45" x="3624.951" y="668.627"/><use xlink:href="#uvCcsOucWeo4dcDbl7n7_pad-45" x="2643.701" y="558.391"/><use xlink:href="#uvCcsOucWeo4dcDbl7n7_pad-45" x="2643.701" y="668.627"/><use xlink:href="#uvCcsOucWeo4dcDbl7n7_pad-45" x="1651.329" y="558.391"/><use xlink:href="#uvCcsOucWeo4dcDbl7n7_pad-45" x="1651.329" y="668.627"/><use xlink:href="#uvCcsOucWeo4dcDbl7n7_pad-45" x="874.951" y="562.525"/><use xlink:href="#uvCcsOucWeo4dcDbl7n7_pad-45" x="874.951" y="672.761"/><use xlink:href="#uvCcsOucWeo4dcDbl7n7_pad-43" x="1276.041" y="635.827"/><use xlink:href="#uvCcsOucWeo4dcDbl7n7_pad-43" x="1401.238" y="735.827"/><use xlink:href="#uvCcsOucWeo4dcDbl7n7_pad-43" x="1276.041" y="835.827"/><use xlink:href="#uvCcsOucWeo4dcDbl7n7_pad-43" x="1401.238" y="935.827"/><use xlink:href="#uvCcsOucWeo4dcDbl7n7_pad-43" x="1276.041" y="1035.827"/><use xlink:href="#uvCcsOucWeo4dcDbl7n7_pad-43" x="1401.238" y="1135.827"/><use xlink:href="#uvCcsOucWeo4dcDbl7n7_pad-41" x="3937.008" y="984.215"/><use xlink:href="#uvCcsOucWeo4dcDbl7n7_pad-41" x="3937.008" y="787.364"/><use xlink:href="#uvCcsOucWeo4dcDbl7n7_pad-41" x="3740.157" y="787.364"/><use xlink:href="#uvCcsOucWeo4dcDbl7n7_pad-41" x="3740.157" y="984.215"/><use xlink:href="#uvCcsOucWeo4dcDbl7n7_pad-41" x="2952.756" y="984.215"/><use xlink:href="#uvCcsOucWeo4dcDbl7n7_pad-41" x="2952.756" y="787.364"/><use xlink:href="#uvCcsOucWeo4dcDbl7n7_pad-41" x="2755.906" y="787.364"/><use xlink:href="#uvCcsOucWeo4dcDbl7n7_pad-41" x="2755.906" y="984.215"/><use xlink:href="#uvCcsOucWeo4dcDbl7n7_pad-41" x="1968.504" y="984.215"/><use xlink:href="#uvCcsOucWeo4dcDbl7n7_pad-41" x="1968.504" y="787.364"/><use xlink:href="#uvCcsOucWeo4dcDbl7n7_pad-41" x="1771.654" y="787.364"/><use xlink:href="#uvCcsOucWeo4dcDbl7n7_pad-41" x="1771.654" y="984.215"/><use xlink:href="#uvCcsOucWeo4dcDbl7n7_pad-41" x="984.252" y="984.215"/><use xlink:href="#uvCcsOucWeo4dcDbl7n7_pad-41" x="984.252" y="787.364"/><use xlink:href="#uvCcsOucWeo4dcDbl7n7_pad-41" x="787.402" y="787.364"/><use xlink:href="#uvCcsOucWeo4dcDbl7n7_pad-41" x="787.402" y="984.215"/></g></svg>