G04 DipTrace 3.3.1.3*
G04 Top.gbr*
%MOIN*%
G04 #@! TF.FileFunction,Copper,L1,Top*
G04 #@! TF.Part,Single*
G04 #@! TA.AperFunction,Conductor*
%ADD13C,0.012*%
%ADD14C,0.022*%
G04 #@! TA.AperFunction,CopperBalancing*
%ADD15C,0.025*%
%ADD16C,0.02*%
%ADD17R,0.070866X0.062992*%
%ADD19R,0.125197X0.05*%
G04 #@! TA.AperFunction,ComponentPad*
%ADD34C,0.08*%
G04 #@! TA.AperFunction,ViaPad*
%ADD35C,0.04*%
%FSLAX26Y26*%
G04*
G70*
G90*
G75*
G01*
G04 Top*
%LPD*%
X3740157Y984241D2*
D13*
Y787391D1*
Y671335D1*
X3737450Y668627D1*
X3624951D1*
X1401238Y935827D2*
X1657824D1*
X1687450Y906201D1*
X3424951D1*
X3618701Y712451D1*
Y668627D1*
X3624951D1*
X2755906Y787391D2*
Y668923D1*
X2756201Y668627D1*
X2643701D1*
X1276041Y835827D2*
X1654576D1*
X1687450Y868701D1*
X2487451D1*
X2643701Y712451D1*
Y668627D1*
X1651329D2*
X1762451D1*
Y778189D1*
X1771654Y787391D1*
X1401238Y735827D2*
X1584130D1*
X1651329Y668627D1*
X787402Y787396D2*
Y760311D1*
X874951Y672761D1*
X985261D1*
X987450Y674950D1*
X787402Y984247D2*
Y787396D1*
X1276041Y635827D2*
Y637450D1*
X1143701D1*
X1106201Y674950D1*
X987450D1*
X984252Y787396D2*
D14*
Y984247D1*
X1115496D1*
X1167076Y1035827D1*
X1276041D1*
X1443701D1*
X3937008Y984247D2*
Y787396D1*
D35*
X1443701Y1035827D3*
X644940Y1313025D2*
D15*
X4079474D1*
X644940Y1288156D2*
X4079474D1*
X644940Y1263287D2*
X4079474D1*
X644940Y1238419D2*
X4079474D1*
X644940Y1213550D2*
X4079474D1*
X644940Y1188681D2*
X4079474D1*
X644940Y1163812D2*
X1309646D1*
X1492811D2*
X4079474D1*
X644940Y1138944D2*
X1309646D1*
X1492811D2*
X4079474D1*
X644940Y1114075D2*
X1309646D1*
X1492811D2*
X4079474D1*
X644940Y1089206D2*
X1309646D1*
X1492811D2*
X4079474D1*
X644940Y1064337D2*
X1140236D1*
X1482942D2*
X4079474D1*
X644940Y1039469D2*
X747879D1*
X826908D2*
X944739D1*
X1023769D2*
X1115189D1*
X1492559D2*
X1732146D1*
X1811176D2*
X1929007D1*
X2008000D2*
X2716413D1*
X2795407D2*
X2913239D1*
X2992268D2*
X3700644D1*
X3779675D2*
X3897505D1*
X3976499D2*
X4079474D1*
X644940Y1014600D2*
X725739D1*
X849049D2*
X922598D1*
X1487572D2*
X1710005D1*
X1833316D2*
X1906866D1*
X2030140D2*
X2694273D1*
X2817547D2*
X2891097D1*
X3014408D2*
X3678504D1*
X3801815D2*
X3875365D1*
X3998639D2*
X4079474D1*
X644940Y989731D2*
X718634D1*
X856154D2*
X915493D1*
X1367647D2*
X1435133D1*
X1452264D2*
X1702900D1*
X1840421D2*
X1899726D1*
X2037282D2*
X2687133D1*
X2824652D2*
X2883992D1*
X3021513D2*
X3671399D1*
X3808920D2*
X3868260D1*
X4005781D2*
X4079474D1*
X644940Y964862D2*
X721289D1*
X853499D2*
X918150D1*
X1674923D2*
X1705556D1*
X1837765D2*
X1902381D1*
X2034626D2*
X2689787D1*
X2822033D2*
X2886648D1*
X3018857D2*
X3674055D1*
X3806264D2*
X3870916D1*
X4003125D2*
X4079474D1*
X644940Y939993D2*
X735248D1*
X839539D2*
X932108D1*
X1702123D2*
X1719514D1*
X1823807D2*
X1916375D1*
X2020667D2*
X2703747D1*
X2808038D2*
X2900608D1*
X3004899D2*
X3688013D1*
X3792306D2*
X3884874D1*
X3989165D2*
X4079474D1*
X644940Y915125D2*
X752400D1*
X822387D2*
X944273D1*
X3464467D2*
X3705167D1*
X3775152D2*
X3897003D1*
X3977001D2*
X4079474D1*
X644940Y890256D2*
X752400D1*
X822387D2*
X944273D1*
X3489335D2*
X3705167D1*
X3775152D2*
X3897003D1*
X3977001D2*
X4079474D1*
X644940Y865387D2*
X752400D1*
X822387D2*
X944273D1*
X2539230D2*
X3417303D1*
X3514203D2*
X3705167D1*
X3775152D2*
X3897003D1*
X3977001D2*
X4079474D1*
X644940Y840518D2*
X744936D1*
X829850D2*
X941797D1*
X2564097D2*
X2713436D1*
X2798385D2*
X2910295D1*
X2995210D2*
X3442171D1*
X3539071D2*
X3697702D1*
X3782617D2*
X3894563D1*
X3979478D2*
X4079474D1*
X644940Y815650D2*
X724734D1*
X850089D2*
X921558D1*
X1834320D2*
X1905825D1*
X2031181D2*
X2492066D1*
X2588965D2*
X2693232D1*
X2818588D2*
X2890058D1*
X3015449D2*
X3467039D1*
X3563938D2*
X3677463D1*
X3802856D2*
X3874324D1*
X3999680D2*
X4079474D1*
X644940Y790781D2*
X718490D1*
X856297D2*
X915350D1*
X1840564D2*
X1899581D1*
X2037425D2*
X2516933D1*
X2613833D2*
X2686988D1*
X2824795D2*
X2883849D1*
X3021656D2*
X3491907D1*
X3588806D2*
X3671256D1*
X3809063D2*
X3868117D1*
X4005924D2*
X4079474D1*
X644940Y765912D2*
X721970D1*
X852852D2*
X918831D1*
X1837084D2*
X1903063D1*
X2033945D2*
X2541801D1*
X2638701D2*
X2690470D1*
X2821350D2*
X2887329D1*
X3018176D2*
X3516774D1*
X3613673D2*
X3674736D1*
X3805583D2*
X3871562D1*
X4002444D2*
X4079474D1*
X644940Y741043D2*
X737222D1*
X855113D2*
X934046D1*
X1821833D2*
X1918314D1*
X2018693D2*
X2566669D1*
X2663568D2*
X2705720D1*
X2806100D2*
X2902580D1*
X3002961D2*
X3541642D1*
X3638577D2*
X3689951D1*
X3790367D2*
X3886812D1*
X3987193D2*
X4079474D1*
X644940Y716175D2*
X783081D1*
X1826892D2*
X2579264D1*
X2820634D2*
X3560517D1*
X3801886D2*
X4079474D1*
X644940Y691306D2*
X807949D1*
X1492811D2*
X1580213D1*
X1826892D2*
X2579264D1*
X2820634D2*
X3560517D1*
X3801886D2*
X4079474D1*
X644940Y666437D2*
X810533D1*
X1367647D2*
X1586887D1*
X1826892D2*
X2579264D1*
X2820634D2*
X3560517D1*
X3801886D2*
X4079474D1*
X644940Y641568D2*
X810533D1*
X1051866D2*
X1091147D1*
X1367647D2*
X1586887D1*
X1826892D2*
X2579264D1*
X2820634D2*
X3560517D1*
X3801886D2*
X4079474D1*
X644940Y616699D2*
X810533D1*
X1051866D2*
X1116014D1*
X1367647D2*
X1586887D1*
X1826892D2*
X2579264D1*
X2820634D2*
X3560517D1*
X3801886D2*
X4079474D1*
X644940Y591831D2*
X810533D1*
X1051866D2*
X1184446D1*
X1367647D2*
X1586887D1*
X1826892D2*
X2579264D1*
X2820634D2*
X3560517D1*
X3801886D2*
X4079474D1*
X644940Y566962D2*
X810533D1*
X1051866D2*
X1586887D1*
X1826892D2*
X2579264D1*
X2820634D2*
X3560517D1*
X3801886D2*
X4079474D1*
X644940Y542093D2*
X810533D1*
X1051866D2*
X1586887D1*
X1826892D2*
X2579264D1*
X2820634D2*
X3560517D1*
X3801886D2*
X4079474D1*
X644940Y517224D2*
X810533D1*
X1051866D2*
X1586887D1*
X1826892D2*
X2579264D1*
X2820634D2*
X3560517D1*
X3801886D2*
X4079474D1*
X644940Y492356D2*
X4079474D1*
X644940Y467487D2*
X4079474D1*
X644940Y442618D2*
X4079474D1*
X1365131Y684340D2*
Y584335D1*
X1186950D1*
Y604969D1*
X1141151Y605058D1*
X1136115Y605856D1*
X1131266Y607432D1*
X1126723Y609745D1*
X1122598Y612743D1*
X1092738Y642462D1*
X1049396Y642458D1*
X1049375Y506726D1*
X936877Y506602D1*
Y504537D1*
X813026D1*
X813001Y688760D1*
X780497Y721264D1*
X771879Y722720D1*
X761957Y725945D1*
X752660Y730681D1*
X744218Y736814D1*
X736841Y744192D1*
X730707Y752633D1*
X725971Y761929D1*
X722747Y771853D1*
X721114Y782157D1*
Y792592D1*
X722747Y802898D1*
X725971Y812820D1*
X730707Y822117D1*
X736841Y830558D1*
X744218Y837936D1*
X752660Y844068D1*
X754920Y845335D1*
X754909Y926232D1*
X748319Y930432D1*
X740385Y937209D1*
X733609Y945142D1*
X728156Y954038D1*
X724164Y963678D1*
X721728Y973824D1*
X720909Y984226D1*
X721728Y994627D1*
X724164Y1004773D1*
X728156Y1014412D1*
X733609Y1023308D1*
X740385Y1031243D1*
X748319Y1038018D1*
X757215Y1043470D1*
X766854Y1047463D1*
X777000Y1049899D1*
X787402Y1050718D1*
X797803Y1049899D1*
X807949Y1047463D1*
X817588Y1043470D1*
X826484Y1038018D1*
X834419Y1031243D1*
X841194Y1023308D1*
X846647Y1014412D1*
X850639Y1004773D1*
X853075Y994627D1*
X853894Y984226D1*
X853075Y973824D1*
X850639Y963678D1*
X846647Y954038D1*
X841194Y945142D1*
X834419Y937209D1*
X826484Y930432D1*
X819883Y926266D1*
X819894Y845411D1*
X826484Y841168D1*
X834419Y834392D1*
X841194Y826458D1*
X846647Y817562D1*
X850639Y807923D1*
X853075Y797777D1*
X853894Y787375D1*
X853075Y776974D1*
X850639Y766828D1*
X846647Y757188D1*
X842861Y750785D1*
X862927Y730738D1*
X925524Y730749D1*
X925525Y732938D1*
X946087D1*
X941068Y736814D1*
X933692Y744192D1*
X927558Y752633D1*
X922822Y761929D1*
X919597Y771853D1*
X917965Y782157D1*
Y792592D1*
X919597Y802898D1*
X922822Y812820D1*
X927558Y822117D1*
X933692Y830558D1*
X941068Y837936D1*
X946745Y842222D1*
X946760Y929319D1*
X941068Y933664D1*
X933692Y941042D1*
X927558Y949483D1*
X922822Y958780D1*
X919597Y968703D1*
X917965Y979008D1*
Y989442D1*
X919597Y999748D1*
X922822Y1009671D1*
X927558Y1018967D1*
X933692Y1027408D1*
X941068Y1034786D1*
X949510Y1040919D1*
X958807Y1045656D1*
X968730Y1048881D1*
X979035Y1050513D1*
X989469D1*
X999774Y1048881D1*
X1009697Y1045656D1*
X1018993Y1040919D1*
X1027436Y1034786D1*
X1034812Y1027408D1*
X1039098Y1021731D1*
X1099979Y1021739D1*
X1142727Y1064336D1*
X1147487Y1067794D1*
X1152728Y1070465D1*
X1158324Y1072283D1*
X1164134Y1073203D1*
X1186920Y1073319D1*
X1186950Y1087319D1*
X1312150D1*
X1312147Y1187319D1*
X1490328D1*
Y1084335D1*
X1365129D1*
X1365131Y1073289D1*
X1416374Y1073440D1*
X1422593Y1077252D1*
X1429333Y1080043D1*
X1436428Y1081747D1*
X1443701Y1082319D1*
X1450974Y1081747D1*
X1458068Y1080043D1*
X1464808Y1077252D1*
X1471028Y1073440D1*
X1476576Y1068702D1*
X1481314Y1063154D1*
X1485126Y1056934D1*
X1487917Y1050194D1*
X1489621Y1043100D1*
X1490193Y1035827D1*
X1489621Y1028554D1*
X1487917Y1021459D1*
X1485126Y1014719D1*
X1481314Y1008500D1*
X1476576Y1002951D1*
X1471028Y998214D1*
X1464808Y994402D1*
X1458068Y991610D1*
X1450974Y989907D1*
X1443701Y989335D1*
X1436428Y989907D1*
X1429333Y991610D1*
X1422593Y994402D1*
X1416142Y998335D1*
X1365151D1*
X1365131Y987310D1*
X1490328Y987319D1*
Y968336D1*
X1660374Y968219D1*
X1665409Y967421D1*
X1670259Y965845D1*
X1674802Y963531D1*
X1678927Y960534D1*
X1700921Y938681D1*
X1723227Y938693D1*
X1717861Y945142D1*
X1712408Y954038D1*
X1708416Y963678D1*
X1705980Y973824D1*
X1705161Y984226D1*
X1705980Y994627D1*
X1708416Y1004773D1*
X1712408Y1014412D1*
X1717861Y1023308D1*
X1724636Y1031243D1*
X1732571Y1038018D1*
X1741467Y1043470D1*
X1751106Y1047463D1*
X1761252Y1049899D1*
X1771654Y1050718D1*
X1782055Y1049899D1*
X1792201Y1047463D1*
X1801840Y1043470D1*
X1810736Y1038018D1*
X1818671Y1031243D1*
X1825446Y1023308D1*
X1830899Y1014412D1*
X1834891Y1004773D1*
X1837327Y994627D1*
X1838146Y984226D1*
X1837327Y973824D1*
X1834891Y963678D1*
X1830899Y954038D1*
X1825446Y945142D1*
X1820041Y938692D1*
X1920016Y938693D1*
X1914711Y945142D1*
X1909259Y954038D1*
X1905266Y963678D1*
X1902831Y973824D1*
X1902012Y984226D1*
X1902831Y994627D1*
X1905266Y1004773D1*
X1909259Y1014412D1*
X1914711Y1023308D1*
X1921487Y1031243D1*
X1929421Y1038018D1*
X1938318Y1043470D1*
X1947957Y1047463D1*
X1958102Y1049899D1*
X1968504Y1050718D1*
X1978906Y1049899D1*
X1989051Y1047463D1*
X1998690Y1043470D1*
X2007587Y1038018D1*
X2015521Y1031243D1*
X2022297Y1023308D1*
X2027749Y1014412D1*
X2031741Y1004773D1*
X2034177Y994627D1*
X2034996Y984226D1*
X2034177Y973824D1*
X2031741Y963678D1*
X2027749Y954038D1*
X2022297Y945142D1*
X2016891Y938692D1*
X2707458Y938693D1*
X2702113Y945142D1*
X2696660Y954038D1*
X2692668Y963678D1*
X2690232Y973824D1*
X2689413Y984226D1*
X2690232Y994627D1*
X2692668Y1004773D1*
X2696660Y1014412D1*
X2702113Y1023308D1*
X2708888Y1031243D1*
X2716823Y1038018D1*
X2725719Y1043470D1*
X2735358Y1047463D1*
X2745504Y1049899D1*
X2755906Y1050718D1*
X2766307Y1049899D1*
X2776453Y1047463D1*
X2786092Y1043470D1*
X2794988Y1038018D1*
X2802923Y1031243D1*
X2809698Y1023308D1*
X2815151Y1014412D1*
X2819143Y1004773D1*
X2821579Y994627D1*
X2822398Y984226D1*
X2821579Y973824D1*
X2819143Y963678D1*
X2815151Y954038D1*
X2809698Y945142D1*
X2804293Y938692D1*
X2904319Y938693D1*
X2898963Y945142D1*
X2893510Y954038D1*
X2889518Y963678D1*
X2887083Y973824D1*
X2886264Y984226D1*
X2887083Y994627D1*
X2889518Y1004773D1*
X2893510Y1014412D1*
X2898963Y1023308D1*
X2905739Y1031243D1*
X2913673Y1038018D1*
X2922570Y1043470D1*
X2932209Y1047463D1*
X2942354Y1049899D1*
X2952756Y1050718D1*
X2963157Y1049899D1*
X2973303Y1047463D1*
X2982942Y1043470D1*
X2991839Y1038018D1*
X2999773Y1031243D1*
X3006549Y1023308D1*
X3012001Y1014412D1*
X3015993Y1004773D1*
X3018429Y994627D1*
X3019248Y984226D1*
X3018429Y973824D1*
X3015993Y963678D1*
X3012001Y954038D1*
X3006549Y945142D1*
X3001143Y938692D1*
X3427501Y938593D1*
X3432537Y937795D1*
X3437386Y936219D1*
X3441929Y933906D1*
X3446054Y930908D1*
X3493398Y883706D1*
X3643408Y733554D1*
X3646406Y729429D1*
X3647656Y727193D1*
X3654890Y726615D1*
X3707642D1*
X3705416Y730681D1*
X3696974Y736814D1*
X3689597Y744192D1*
X3683463Y752633D1*
X3678727Y761929D1*
X3675503Y771853D1*
X3673870Y782157D1*
Y792592D1*
X3675503Y802898D1*
X3678727Y812820D1*
X3683463Y822117D1*
X3689597Y830558D1*
X3696974Y837936D1*
X3705416Y844068D1*
X3707676Y845335D1*
X3707665Y926227D1*
X3701075Y930432D1*
X3693140Y937209D1*
X3686365Y945142D1*
X3680912Y954038D1*
X3676920Y963678D1*
X3674484Y973824D1*
X3673665Y984226D1*
X3674484Y994627D1*
X3676920Y1004773D1*
X3680912Y1014412D1*
X3686365Y1023308D1*
X3693140Y1031243D1*
X3701075Y1038018D1*
X3709971Y1043470D1*
X3719610Y1047463D1*
X3729756Y1049899D1*
X3740157Y1050718D1*
X3750559Y1049899D1*
X3760705Y1047463D1*
X3770344Y1043470D1*
X3779240Y1038018D1*
X3787175Y1031243D1*
X3793950Y1023308D1*
X3799403Y1014412D1*
X3803395Y1004773D1*
X3805831Y994627D1*
X3806650Y984226D1*
X3805831Y973824D1*
X3803395Y963678D1*
X3799403Y954038D1*
X3793950Y945142D1*
X3787175Y937209D1*
X3779240Y930432D1*
X3772639Y926266D1*
X3772650Y845406D1*
X3779240Y841168D1*
X3787175Y834392D1*
X3793950Y826458D1*
X3799403Y817562D1*
X3803395Y807923D1*
X3805831Y797777D1*
X3806650Y787375D1*
X3805831Y776974D1*
X3803395Y766828D1*
X3799403Y757188D1*
X3793950Y748291D1*
X3787175Y740358D1*
X3779240Y733581D1*
X3772639Y729416D1*
X3776575Y726615D1*
X3799375D1*
Y500403D1*
X3563026D1*
Y722154D1*
X3411486Y873717D1*
X2528385Y873709D1*
X2668408Y733554D1*
X2671406Y729429D1*
X2672656Y727194D1*
X2673639Y726615D1*
X2723378D1*
X2721164Y730681D1*
X2712722Y736814D1*
X2705345Y744192D1*
X2699211Y752633D1*
X2694475Y761929D1*
X2691251Y771853D1*
X2689618Y782157D1*
Y792592D1*
X2691251Y802898D1*
X2694475Y812820D1*
X2699211Y822117D1*
X2705345Y830558D1*
X2712722Y837936D1*
X2721164Y844068D1*
X2730461Y848806D1*
X2740383Y852030D1*
X2750689Y853663D1*
X2761122D1*
X2771428Y852030D1*
X2781350Y848806D1*
X2790647Y844068D1*
X2799089Y837936D1*
X2806466Y830558D1*
X2812600Y822117D1*
X2817336Y812820D1*
X2820560Y802898D1*
X2822193Y792592D1*
Y782157D1*
X2820560Y771853D1*
X2817336Y761929D1*
X2812600Y752633D1*
X2806466Y744192D1*
X2799089Y736814D1*
X2790647Y730681D1*
X2788387Y729416D1*
X2795325Y726615D1*
X2818126D1*
Y500403D1*
X2581776D1*
Y726615D1*
X2583606D1*
X2473988Y836214D1*
X2013601Y836209D1*
X2019064Y830558D1*
X2025198Y822117D1*
X2029934Y812820D1*
X2033159Y802898D1*
X2034791Y792592D1*
Y782157D1*
X2033159Y771853D1*
X2029934Y761929D1*
X2025198Y752633D1*
X2019064Y744192D1*
X2011688Y736814D1*
X2003245Y730681D1*
X1993949Y725945D1*
X1984026Y722720D1*
X1973720Y721088D1*
X1963287D1*
X1952982Y722720D1*
X1943059Y725945D1*
X1933762Y730681D1*
X1925320Y736814D1*
X1917944Y744192D1*
X1911810Y752633D1*
X1907073Y761929D1*
X1903849Y771853D1*
X1902217Y782157D1*
Y792592D1*
X1903849Y802898D1*
X1907073Y812820D1*
X1911810Y822117D1*
X1917944Y830558D1*
X1923449Y836206D1*
X1816812Y836209D1*
X1822214Y830558D1*
X1828348Y822117D1*
X1833084Y812820D1*
X1836308Y802898D1*
X1837941Y792592D1*
Y782157D1*
X1836308Y771853D1*
X1833084Y761929D1*
X1828348Y752633D1*
X1822214Y744192D1*
X1814837Y736814D1*
X1806395Y730681D1*
X1798562Y726619D1*
X1824377Y726615D1*
Y500403D1*
X1589404D1*
X1589379Y684626D1*
X1570678Y703327D1*
X1490293Y703335D1*
X1490328Y684335D1*
X1365129D1*
X4003295Y979008D2*
X4001663Y968703D1*
X3998438Y958780D1*
X3993702Y949483D1*
X3987568Y941042D1*
X3980192Y933664D1*
X3974514Y929378D1*
X3974500Y842253D1*
X3980192Y837936D1*
X3987568Y830558D1*
X3993702Y822117D1*
X3998438Y812820D1*
X4001663Y802898D1*
X4003295Y792592D1*
Y782157D1*
X4001663Y771853D1*
X3998438Y761929D1*
X3993702Y752633D1*
X3987568Y744192D1*
X3980192Y736814D1*
X3971749Y730681D1*
X3962453Y725945D1*
X3952530Y722720D1*
X3942224Y721088D1*
X3931791D1*
X3921486Y722720D1*
X3911563Y725945D1*
X3902266Y730681D1*
X3893824Y736814D1*
X3886448Y744192D1*
X3880314Y752633D1*
X3875577Y761929D1*
X3872353Y771853D1*
X3870720Y782157D1*
Y792592D1*
X3872353Y802898D1*
X3875577Y812820D1*
X3880314Y822117D1*
X3886448Y830558D1*
X3893824Y837936D1*
X3899501Y842222D1*
X3899516Y929319D1*
X3893824Y933664D1*
X3886448Y941042D1*
X3880314Y949483D1*
X3875577Y958780D1*
X3872353Y968703D1*
X3870720Y979008D1*
Y989442D1*
X3872353Y999748D1*
X3875577Y1009671D1*
X3880314Y1018967D1*
X3886448Y1027408D1*
X3893824Y1034786D1*
X3902266Y1040919D1*
X3911563Y1045656D1*
X3921486Y1048881D1*
X3931791Y1050513D1*
X3942224D1*
X3952530Y1048881D1*
X3962453Y1045656D1*
X3971749Y1040919D1*
X3980192Y1034786D1*
X3987568Y1027408D1*
X3993702Y1018967D1*
X3998438Y1009671D1*
X4001663Y999748D1*
X4003295Y989442D1*
Y979008D1*
X3019043Y782157D2*
X3017411Y771853D1*
X3014186Y761929D1*
X3009450Y752633D1*
X3003316Y744192D1*
X2995940Y736814D1*
X2987497Y730681D1*
X2978201Y725945D1*
X2968278Y722720D1*
X2957972Y721088D1*
X2947539D1*
X2937234Y722720D1*
X2927311Y725945D1*
X2918014Y730681D1*
X2909572Y736814D1*
X2902196Y744192D1*
X2896062Y752633D1*
X2891325Y761929D1*
X2888101Y771853D1*
X2886469Y782157D1*
Y792592D1*
X2888101Y802898D1*
X2891325Y812820D1*
X2896062Y822117D1*
X2902196Y830558D1*
X2909572Y837936D1*
X2918014Y844068D1*
X2927311Y848806D1*
X2937234Y852030D1*
X2947539Y853663D1*
X2957972D1*
X2968278Y852030D1*
X2978201Y848806D1*
X2987497Y844068D1*
X2995940Y837936D1*
X3003316Y830558D1*
X3009450Y822117D1*
X3014186Y812820D1*
X3017411Y802898D1*
X3019043Y792592D1*
Y782157D1*
X642445Y433760D2*
X4082016D1*
X4081988Y1337921D1*
X642394Y1337894D1*
X642421Y433732D1*
X1401238Y1187283D2*
D16*
Y1084370D1*
X1312182Y1135827D2*
X1490293D1*
X3624951Y558391D2*
Y500438D1*
X3563062Y558391D2*
X3624951D1*
X3737450D2*
Y500438D1*
Y558391D2*
X3799340D1*
X2643701D2*
Y500438D1*
X2581811Y558391D2*
X2643701D1*
X2756201D2*
Y500438D1*
Y558391D2*
X2818091D1*
X1651329D2*
Y500438D1*
X1589441Y558391D2*
X1651329D1*
X1762451D2*
Y500438D1*
Y558391D2*
X1824341D1*
X874951Y562525D2*
Y504572D1*
X813063Y562525D2*
X874951D1*
X987450Y564714D2*
Y506761D1*
Y564714D2*
X1049340D1*
D17*
X3737450Y668627D3*
Y558391D3*
X2756201Y668627D3*
Y558391D3*
X1762451Y668627D3*
Y558391D3*
X987450Y674950D3*
Y564714D3*
X3624951Y558391D3*
Y668627D3*
X2643701Y558391D3*
Y668627D3*
X1651329Y558391D3*
Y668627D3*
X874951Y562525D3*
Y672761D3*
D19*
X1276041Y635827D3*
X1401238Y735827D3*
X1276041Y835827D3*
X1401238Y935827D3*
X1276041Y1035827D3*
X1401238Y1135827D3*
D34*
X3937008Y984215D3*
Y787364D3*
X3740157D3*
Y984215D3*
X2952756D3*
Y787364D3*
X2755906D3*
Y984215D3*
X1968504D3*
Y787364D3*
X1771654D3*
Y984215D3*
X984252D3*
Y787364D3*
X787402D3*
Y984215D3*
M02*
