G04 DipTrace 3.3.1.3*
G04 TopSilk.gbr*
%MOIN*%
G04 #@! TF.FileFunction,Legend,Top*
G04 #@! TF.Part,Single*
%ADD10C,0.009843*%
%ADD18O,0.04467X0.043737*%
%ADD20C,0.015584*%
%ADD21C,0.032777*%
%ADD22C,0.012511*%
%ADD23C,0.012511*%
%ADD24C,0.012438*%
%ADD25C,0.012438*%
%ADD26C,0.013974*%
%ADD27O,0.015584X0.014044*%
%ADD28O,0.026485X0.032763*%
%ADD29O,0.007829X0.006247*%
%ADD30C,0.014047*%
%ADD31O,0.015657X0.014044*%
%ADD32O,0.012438X0.014044*%
%ADD33O,0.012438X0.010921*%
%ADD47C,0.004632*%
%ADD48C,0.009264*%
%ADD49C,0.006176*%
%ADD50C,0.111163*%
%ADD51C,0.024703*%
%ADD52C,0.067933*%
%FSLAX26Y26*%
G04*
G70*
G90*
G75*
G01*
G04 TopSilk*
%LPD*%
X3782450Y709509D2*
D10*
X3692450D1*
Y517509D1*
X3782450D1*
Y709509D1*
X2801201D2*
X2711201D1*
Y517509D1*
X2801201D1*
Y709509D1*
X1807451D2*
X1717451D1*
Y517509D1*
X1807451D1*
Y709509D1*
X1032450Y715832D2*
X942450D1*
Y523832D1*
X1032450D1*
Y715832D1*
X3579951Y517509D2*
X3669951D1*
Y709509D1*
X3579951D1*
Y517509D1*
X2598701D2*
X2688701D1*
Y709509D1*
X2598701D1*
Y517509D1*
X1606329D2*
X1696329D1*
Y709509D1*
X1606329D1*
Y517509D1*
X829951Y521643D2*
X919951D1*
Y713643D1*
X829951D1*
Y521643D1*
D18*
X1435967Y1213958D3*
X1289612Y680238D2*
D10*
Y790524D1*
Y585940D2*
Y593673D1*
Y585940D2*
X1387666D1*
Y692131D1*
Y778696D2*
Y892816D1*
X1289612Y880274D2*
Y990559D1*
X1387666Y978666D2*
Y1092852D1*
X1289612Y1080374D2*
Y1185850D1*
X1387666Y1178832D2*
Y1185850D1*
X1289612D1*
G36*
X885913Y1320901D2*
X912430D1*
X917103Y1289703D1*
X935833Y1281899D1*
X960793Y1302189D1*
X981060Y1281899D1*
X960793Y1256945D1*
X968600Y1239776D1*
X999790Y1235094D1*
Y1207018D1*
X968600Y1203896D1*
X960793Y1185185D1*
X979503Y1160212D1*
X960793Y1141501D1*
X935833Y1160212D1*
X924910Y1155548D1*
X909315Y1192989D1*
X920238Y1202335D1*
X928025Y1213261D1*
Y1225747D1*
X924910Y1236655D1*
X915545Y1244458D1*
X904623Y1249141D1*
X892143D1*
X881220Y1242898D1*
X874990Y1233533D1*
X871875Y1221065D1*
X874990Y1208578D1*
X882798Y1197653D1*
X890585Y1192989D1*
X874990Y1155548D1*
X864068Y1160212D1*
X839108Y1141501D1*
X820398Y1160212D1*
X839108Y1186745D1*
X831300Y1203896D1*
X800110Y1207018D1*
Y1235094D1*
X832878Y1238215D1*
X839108Y1256945D1*
X818840Y1281899D1*
X839108Y1300629D1*
X864068Y1281899D1*
X882798Y1288142D1*
X885913Y1320901D1*
G37*
D20*
X3159050Y1033347D3*
G36*
X2992126Y1062987D2*
X3076484Y1206753D1*
X3142112Y1062987D1*
X2992126D1*
G37*
G36*
X3155940Y1200262D2*
X3215203D1*
X3223032Y1198712D1*
X3233933Y1194038D1*
X3241762Y1189363D1*
X3249517Y1183117D1*
X3254200Y1176870D1*
X3258882Y1167522D1*
X3260419Y1159702D1*
X3262028Y1148803D1*
X3260419Y1139433D1*
X3255736Y1128512D1*
X3249517Y1122265D1*
X3241762Y1116040D1*
X3232397Y1111344D1*
X3224568Y1108243D1*
X3272930Y1062987D1*
X3155940D1*
Y1200262D1*
G37*
G36*
X3254200D2*
X3397747D1*
X3377481Y1161275D1*
X3349386Y1156601D1*
X3340021Y1064559D1*
X3313462D1*
X3304097Y1156601D1*
X3276076Y1161275D1*
X3254200Y1200262D1*
G37*
G36*
X3411795Y1142556D2*
X3432061D1*
X3452328Y1062987D1*
X3393065D1*
X3411795Y1142556D1*
G37*
G36*
X3569317Y1089502D2*
X3500689Y1126961D1*
X3569317Y1162825D1*
X3559952Y1173746D1*
X3550587Y1179993D1*
X3538149Y1186240D1*
X3525638Y1189363D1*
X3511591D1*
X3499153Y1186240D1*
X3486642Y1181544D1*
X3475740Y1173746D1*
X3466375Y1162825D1*
X3460156Y1151905D1*
X3457010Y1139433D1*
X3455474Y1126961D1*
X3457010Y1112917D1*
X3460156Y1100423D1*
X3467912Y1087952D1*
X3477277Y1078604D1*
X3488178Y1070784D1*
X3500689Y1066110D1*
X3511591Y1062987D1*
X3525638D1*
X3538149Y1066110D1*
X3552197Y1072357D1*
X3569317Y1089502D1*
G37*
G36*
X3570854Y1064559D2*
X3634872Y1209633D1*
X3723766Y1062987D1*
X3570854Y1064559D1*
G37*
D21*
X3421892Y1185454D3*
G36*
X3074801Y1033347D2*
X3087312D1*
Y995910D1*
X3074801D1*
Y1033347D1*
G37*
D22*
X3081057Y1034909D3*
D23*
Y995910D3*
G36*
X3091995Y1033347D2*
X3104433D1*
Y995910D1*
X3091995D1*
Y1033347D1*
G37*
D24*
X3098214Y1034909D3*
D25*
Y995910D3*
G36*
X3132528Y1033347D2*
X3145039D1*
Y995910D1*
X3132528D1*
Y1033347D1*
G37*
D22*
X3138783Y1034909D3*
D23*
Y995910D3*
G36*
X3224568Y1031797D2*
X3237079D1*
Y994360D1*
X3224568D1*
Y1031797D1*
G37*
D22*
X3230824Y1033358D3*
Y994349D3*
D26*
X3195705Y1015404D3*
D27*
X3194900Y998258D3*
D20*
X3605204Y1033347D3*
G36*
X3212057Y1041145D2*
X3249517D1*
Y1028673D1*
X3212057D1*
Y1041145D1*
G37*
D22*
X3213630Y1034909D3*
D24*
X3247981D3*
G36*
X3262028Y1033347D2*
X3274466D1*
Y995910D1*
X3262028D1*
Y1033347D1*
G37*
D24*
X3268247Y1034909D3*
D25*
Y995910D3*
G36*
X3316609Y1033347D2*
X3329120D1*
Y1014629D1*
X3316609D1*
Y1033347D1*
G37*
D22*
X3322864Y1034909D3*
G36*
X3268247Y1041145D2*
X3302561D1*
Y1008382D1*
X3268247D1*
Y1041145D1*
G37*
G36*
X3357141Y1033347D2*
X3369652D1*
Y1019303D1*
X3357141D1*
Y1033347D1*
G37*
D22*
X3363397Y1034909D3*
D28*
X3300220Y1024763D3*
G36*
X3563098Y1031797D2*
X3575536D1*
Y994360D1*
X3563098D1*
Y1031797D1*
G37*
D24*
X3569317Y1033358D3*
Y994349D3*
G36*
X3550587Y1041145D2*
X3588047D1*
Y1028673D1*
X3550587D1*
Y1041145D1*
G37*
D22*
X3552160Y1034909D3*
X3586474D3*
G36*
X3430452Y1033347D2*
X3442963D1*
Y995910D1*
X3430452D1*
Y1033347D1*
G37*
D22*
X3436707Y1034909D3*
D23*
Y995910D3*
G36*
X3413331Y1033347D2*
X3425842D1*
Y995910D1*
X3413331D1*
Y1033347D1*
G37*
D22*
X3419587Y1034909D3*
D23*
Y995910D3*
G36*
X3372798Y1033347D2*
X3385236D1*
Y995910D1*
X3372798D1*
Y1033347D1*
G37*
D24*
X3379017Y1034909D3*
D25*
Y995910D3*
G36*
X3319755Y1017752D2*
X3329120D1*
Y1008382D1*
X3319755D1*
Y1017752D1*
G37*
D29*
X3398516Y1009955D3*
D30*
X3641896Y1015404D3*
D31*
X3641091Y998258D3*
G36*
X3606777Y1041145D2*
X3644237D1*
Y1028673D1*
X3606777D1*
Y1041145D1*
G37*
D24*
X3608314Y1034909D3*
D22*
X3642664D3*
G36*
X3602095Y1022426D2*
X3639555D1*
Y1011505D1*
X3602095D1*
Y1022426D1*
G37*
D32*
X3603631Y1018528D3*
G36*
X3602095Y1002157D2*
X3639555D1*
Y991236D1*
X3602095D1*
Y1002157D1*
G37*
G36*
X3098214Y1041145D2*
X3141893Y1002157D1*
X3140356Y989663D1*
X3134064Y992787D1*
X3098214Y1023999D1*
Y1041145D1*
G37*
G36*
X3486642Y1033347D2*
X3499153D1*
Y995910D1*
X3486642D1*
Y1033347D1*
G37*
D22*
X3492897Y1034909D3*
D23*
Y995910D3*
G36*
X3527175Y1033347D2*
X3539686D1*
Y995910D1*
X3527175D1*
Y1033347D1*
G37*
D22*
X3533430Y1034909D3*
D23*
Y995910D3*
G36*
X3492861Y1041145D2*
X3536540Y1002157D1*
X3535003Y989663D1*
X3528784Y992787D1*
X3492861Y1023999D1*
Y1041145D1*
G37*
G36*
X3160623D2*
X3198010D1*
Y1028673D1*
X3160623D1*
Y1041145D1*
G37*
D24*
X3162159Y1034909D3*
X3196473D3*
G36*
X3155940Y1022426D2*
X3193400D1*
Y1011505D1*
X3155940D1*
Y1022426D1*
G37*
D32*
X3157477Y1018528D3*
D33*
X3602095Y996697D3*
G36*
X3155940Y1002157D2*
X3193400D1*
Y991236D1*
X3155940D1*
Y1002157D1*
G37*
D33*
Y996697D3*
D24*
X3191791Y997472D3*
D23*
X3305670Y995910D3*
G36*
X3280758Y1009955D2*
X3301025Y991236D1*
X3310390Y1000584D1*
X3297879Y1013078D1*
X3280758Y1009955D1*
G37*
G36*
X3341557Y989663D2*
X3352459D1*
X3363433Y997483D1*
X3368116Y1008382D1*
X3369652Y1020876D1*
X3357141Y1022426D1*
X3355605Y1009955D1*
X3341557Y989663D1*
G37*
G36*
X3316609Y1020876D2*
Y1005281D1*
X3327510Y991236D1*
X3344704Y989663D1*
X3358751Y999034D1*
X3350922Y1003708D1*
X3344704Y1000584D1*
X3335339Y1002157D1*
X3316609Y1020876D1*
G37*
G36*
X3380554Y1041145D2*
X3399284Y1023999D1*
X3416477Y1039594D1*
X3422696Y1030224D1*
X3402430Y1009955D1*
X3394601D1*
X3380554Y1023999D1*
Y1041145D1*
G37*
G36*
X3151258Y1031797D2*
X3163696D1*
Y1019303D1*
X3151258D1*
Y1031797D1*
G37*
G36*
X3191791Y1013078D2*
X3202692D1*
Y999034D1*
X3191791D1*
Y1013078D1*
G37*
G36*
X3436744Y1042717D2*
X3474131D1*
Y1030224D1*
X3436744D1*
Y1042717D1*
G37*
D25*
X3438280Y1036471D3*
X3472594D3*
G36*
X3435134Y1022426D2*
X3472594D1*
Y1009955D1*
X3435134D1*
Y1022426D1*
G37*
D22*
X3436707Y1016190D3*
D24*
X3471058D3*
G36*
X3436744Y1002157D2*
X3474131D1*
Y989663D1*
X3436744D1*
Y1002157D1*
G37*
D25*
X3438280Y995910D3*
X3472594D3*
D22*
X3637982Y997472D3*
G36*
X3597412Y1031797D2*
X3609850D1*
Y1019303D1*
X3597412D1*
Y1031797D1*
G37*
G36*
X3637945Y1013078D2*
X3648920D1*
Y999034D1*
X3637945D1*
Y1013078D1*
G37*
X3689813Y501564D2*
D47*
X3692698Y503023D1*
X3697009Y507301D1*
Y477190D1*
X3714894Y507301D2*
X3710583Y505875D1*
X3707698Y501564D1*
X3706272Y494401D1*
Y490090D1*
X3707698Y482927D1*
X3710583Y478616D1*
X3714894Y477190D1*
X3717746D1*
X3722057Y478616D1*
X3724909Y482927D1*
X3726368Y490090D1*
Y494401D1*
X3724909Y501564D1*
X3722057Y505875D1*
X3717746Y507301D1*
X3714894D1*
X3724909Y501564D2*
X3707698Y482927D1*
X3744254Y507301D2*
X3739943Y505875D1*
X3737058Y501564D1*
X3735632Y494401D1*
Y490090D1*
X3737058Y482927D1*
X3739943Y478616D1*
X3744254Y477190D1*
X3747106D1*
X3751417Y478616D1*
X3754269Y482927D1*
X3755728Y490090D1*
Y494401D1*
X3754269Y501564D1*
X3751417Y505875D1*
X3747106Y507301D1*
X3744254D1*
X3754269Y501564D2*
X3737058Y482927D1*
X3785088Y507334D2*
Y477190D1*
X3764992Y507334D1*
Y477190D1*
X2708563Y501564D2*
X2711448Y503023D1*
X2715760Y507301D1*
Y477190D1*
X2733645Y507301D2*
X2729334Y505875D1*
X2726449Y501564D1*
X2725023Y494401D1*
Y490090D1*
X2726449Y482927D1*
X2729334Y478616D1*
X2733645Y477190D1*
X2736497D1*
X2740808Y478616D1*
X2743660Y482927D1*
X2745119Y490090D1*
Y494401D1*
X2743660Y501564D1*
X2740808Y505875D1*
X2736497Y507301D1*
X2733645D1*
X2743660Y501564D2*
X2726449Y482927D1*
X2763005Y507301D2*
X2758694Y505875D1*
X2755809Y501564D1*
X2754383Y494401D1*
Y490090D1*
X2755809Y482927D1*
X2758694Y478616D1*
X2763005Y477190D1*
X2765857D1*
X2770168Y478616D1*
X2773019Y482927D1*
X2774479Y490090D1*
Y494401D1*
X2773019Y501564D1*
X2770168Y505875D1*
X2765857Y507301D1*
X2763005D1*
X2773019Y501564D2*
X2755809Y482927D1*
X2803838Y507334D2*
Y477190D1*
X2783742Y507334D1*
Y477190D1*
X1714814Y501564D2*
X1717699Y503023D1*
X1722010Y507301D1*
Y477190D1*
X1739896Y507301D2*
X1735585Y505875D1*
X1732700Y501564D1*
X1731274Y494401D1*
Y490090D1*
X1732700Y482927D1*
X1735585Y478616D1*
X1739896Y477190D1*
X1742748D1*
X1747059Y478616D1*
X1749911Y482927D1*
X1751370Y490090D1*
Y494401D1*
X1749911Y501564D1*
X1747059Y505875D1*
X1742748Y507301D1*
X1739896D1*
X1749911Y501564D2*
X1732700Y482927D1*
X1769255Y507301D2*
X1764944Y505875D1*
X1762059Y501564D1*
X1760633Y494401D1*
Y490090D1*
X1762059Y482927D1*
X1764944Y478616D1*
X1769255Y477190D1*
X1772107D1*
X1776418Y478616D1*
X1779270Y482927D1*
X1780729Y490090D1*
Y494401D1*
X1779270Y501564D1*
X1776418Y505875D1*
X1772107Y507301D1*
X1769255D1*
X1779270Y501564D2*
X1762059Y482927D1*
X1810089Y507334D2*
Y477190D1*
X1789993Y507334D1*
Y477190D1*
X939813Y507887D2*
X942698Y509346D1*
X947009Y513624D1*
Y483513D1*
X964894Y513624D2*
X960583Y512198D1*
X957698Y507887D1*
X956272Y500724D1*
Y496413D1*
X957698Y489250D1*
X960583Y484939D1*
X964894Y483513D1*
X967746D1*
X972057Y484939D1*
X974909Y489250D1*
X976368Y496413D1*
Y500724D1*
X974909Y507887D1*
X972057Y512198D1*
X967746Y513624D1*
X964894D1*
X974909Y507887D2*
X957698Y489250D1*
X994254Y513624D2*
X989943Y512198D1*
X987058Y507887D1*
X985632Y500724D1*
Y496413D1*
X987058Y489250D1*
X989943Y484939D1*
X994254Y483513D1*
X997106D1*
X1001417Y484939D1*
X1004269Y489250D1*
X1005728Y496413D1*
Y500724D1*
X1004269Y507887D1*
X1001417Y512198D1*
X997106Y513624D1*
X994254D1*
X1004269Y507887D2*
X987058Y489250D1*
X1035088Y513657D2*
Y483513D1*
X1014992Y513657D1*
Y483513D1*
X3591994Y501564D2*
X3594879Y503023D1*
X3599190Y507301D1*
Y477190D1*
X3617076Y507301D2*
X3612765Y505875D1*
X3609879Y501564D1*
X3608453Y494401D1*
Y490090D1*
X3609879Y482927D1*
X3612765Y478616D1*
X3617076Y477190D1*
X3619927D1*
X3624238Y478616D1*
X3627090Y482927D1*
X3628549Y490090D1*
Y494401D1*
X3627090Y501564D1*
X3624238Y505875D1*
X3619927Y507301D1*
X3617076D1*
X3627090Y501564D2*
X3609879Y482927D1*
X3637813Y507334D2*
Y477190D1*
X3657909Y507334D2*
X3637813Y487238D1*
X3644976Y494434D2*
X3657909Y477190D1*
X2610743Y501564D2*
X2613628Y503023D1*
X2617939Y507301D1*
Y477190D1*
X2635825Y507301D2*
X2631514Y505875D1*
X2628629Y501564D1*
X2627203Y494401D1*
Y490090D1*
X2628629Y482927D1*
X2631514Y478616D1*
X2635825Y477190D1*
X2638677D1*
X2642988Y478616D1*
X2645840Y482927D1*
X2647299Y490090D1*
Y494401D1*
X2645840Y501564D1*
X2642988Y505875D1*
X2638677Y507301D1*
X2635825D1*
X2645840Y501564D2*
X2628629Y482927D1*
X2656562Y507334D2*
Y477190D1*
X2676658Y507334D2*
X2656562Y487238D1*
X2663725Y494434D2*
X2676658Y477190D1*
X1618372Y501564D2*
X1621257Y503023D1*
X1625568Y507301D1*
Y477190D1*
X1643453Y507301D2*
X1639142Y505875D1*
X1636257Y501564D1*
X1634831Y494401D1*
Y490090D1*
X1636257Y482927D1*
X1639142Y478616D1*
X1643453Y477190D1*
X1646305D1*
X1650616Y478616D1*
X1653468Y482927D1*
X1654927Y490090D1*
Y494401D1*
X1653468Y501564D1*
X1650616Y505875D1*
X1646305Y507301D1*
X1643453D1*
X1653468Y501564D2*
X1636257Y482927D1*
X1664191Y507334D2*
Y477190D1*
X1684287Y507334D2*
X1664191Y487238D1*
X1671354Y494434D2*
X1684287Y477190D1*
X841994Y505698D2*
X844879Y507157D1*
X849190Y511435D1*
Y481324D1*
X867076Y511435D2*
X862765Y510009D1*
X859879Y505698D1*
X858453Y498535D1*
Y494224D1*
X859879Y487061D1*
X862765Y482750D1*
X867076Y481324D1*
X869927D1*
X874238Y482750D1*
X877090Y487061D1*
X878549Y494224D1*
Y498535D1*
X877090Y505698D1*
X874238Y510009D1*
X869927Y511435D1*
X867076D1*
X877090Y505698D2*
X859879Y487061D1*
X887813Y511468D2*
Y481324D1*
X907909Y511468D2*
X887813Y491372D1*
X894976Y498568D2*
X907909Y481324D1*
X1499263Y747927D2*
D48*
Y750779D1*
X1502115Y756549D1*
X1504966Y759401D1*
X1510737Y762253D1*
X1522211D1*
X1527914Y759401D1*
X1530766Y756549D1*
X1533684Y750779D1*
Y745075D1*
X1530766Y739305D1*
X1525062Y730749D1*
X1496344Y702031D1*
X1536536D1*
X1499860Y1138394D2*
X1533022D1*
X1516408Y1064228D2*
Y1012562D1*
X1490608Y1038362D2*
X1542274D1*
X1523637Y908283D2*
Y968505D1*
X1494919Y928379D1*
X1537963D1*
X1502115Y868507D2*
X1533618D1*
X1516440Y845559D1*
X1525062D1*
X1530766Y842707D1*
X1533618Y839855D1*
X1536536Y831233D1*
Y825530D1*
X1533618Y816907D1*
X1527914Y811137D1*
X1519292Y808285D1*
X1510670D1*
X1502115Y811137D1*
X1499263Y814056D1*
X1496344Y819759D1*
X1502995Y644531D2*
X1508765Y647449D1*
X1517387Y656005D1*
Y595783D1*
X884363Y907031D2*
X890133Y909949D1*
X898755Y918505D1*
Y858283D1*
X3037857Y954168D2*
D49*
X3039758Y952267D1*
X3041704Y954168D1*
X3039758Y956113D1*
X3037857Y954168D1*
X3039758Y940771D2*
Y913976D1*
X3054055Y940771D2*
Y913976D1*
Y933121D2*
X3059803Y938869D1*
X3063650Y940771D1*
X3069354D1*
X3073200Y938869D1*
X3075102Y933121D1*
Y913976D1*
X3108500Y935023D2*
X3106598Y938869D1*
X3100850Y940771D1*
X3095102D1*
X3089354Y938869D1*
X3087453Y935023D1*
X3089354Y931220D1*
X3093201Y929275D1*
X3102752Y927373D1*
X3106598Y925472D1*
X3108500Y921625D1*
Y919724D1*
X3106598Y915921D1*
X3100850Y913976D1*
X3095102D1*
X3089354Y915921D1*
X3087453Y919724D1*
X3126599Y954168D2*
Y921625D1*
X3128500Y915921D1*
X3132347Y913976D1*
X3136150D1*
X3120851Y940771D2*
X3134248D1*
X3148501D2*
Y913976D1*
Y929275D2*
X3150447Y935023D1*
X3154249Y938869D1*
X3158096Y940771D1*
X3163844D1*
X3176195D2*
Y921625D1*
X3178097Y915921D1*
X3181943Y913976D1*
X3187691D1*
X3191494Y915921D1*
X3197242Y921625D1*
Y940771D2*
Y913976D1*
X3209593Y940771D2*
Y913976D1*
Y933121D2*
X3215341Y938869D1*
X3219188Y940771D1*
X3224892D1*
X3228739Y938869D1*
X3230640Y933121D1*
Y913976D1*
Y933121D2*
X3236388Y938869D1*
X3240235Y940771D1*
X3245939D1*
X3249785Y938869D1*
X3251731Y933121D1*
Y913976D1*
X3264082Y929275D2*
X3287030D1*
Y933121D1*
X3285129Y936968D1*
X3283228Y938869D1*
X3279381Y940771D1*
X3273633D1*
X3269830Y938869D1*
X3265984Y935023D1*
X3264082Y929275D1*
Y925472D1*
X3265984Y919724D1*
X3269830Y915921D1*
X3273633Y913976D1*
X3279381D1*
X3283228Y915921D1*
X3287030Y919724D1*
X3299382Y940771D2*
Y913976D1*
Y933121D2*
X3305130Y938869D1*
X3308976Y940771D1*
X3314680D1*
X3318527Y938869D1*
X3320428Y933121D1*
Y913976D1*
X3338528Y954168D2*
Y921625D1*
X3340429Y915921D1*
X3344276Y913976D1*
X3348078D1*
X3332780Y940771D2*
X3346177D1*
X3381476Y935023D2*
X3379575Y938869D1*
X3373827Y940771D1*
X3368079D1*
X3362331Y938869D1*
X3360430Y935023D1*
X3362331Y931220D1*
X3366178Y929275D1*
X3375728Y927373D1*
X3379575Y925472D1*
X3381476Y921625D1*
Y919724D1*
X3379575Y915921D1*
X3373827Y913976D1*
X3368079D1*
X3362331Y915921D1*
X3360430Y919724D1*
X3395729Y917823D2*
X3393828Y915877D1*
X3395729Y913976D1*
X3397674Y915877D1*
X3395729Y917823D1*
X3432974Y940771D2*
Y913976D1*
Y935023D2*
X3429171Y938869D1*
X3425324Y940771D1*
X3419621D1*
X3415774Y938869D1*
X3411971Y935023D1*
X3410026Y929275D1*
Y925472D1*
X3411971Y919724D1*
X3415774Y915921D1*
X3419621Y913976D1*
X3425324D1*
X3429171Y915921D1*
X3432974Y919724D1*
X3445325Y940771D2*
Y913976D1*
Y929275D2*
X3447271Y935023D1*
X3451073Y938869D1*
X3454920Y940771D1*
X3460668D1*
X3478767Y954168D2*
Y921625D1*
X3480669Y915921D1*
X3484515Y913976D1*
X3488318D1*
X3473019Y940771D2*
X3486417D1*
X3500669Y954168D2*
X3502571Y952267D1*
X3504516Y954168D1*
X3502571Y956113D1*
X3500669Y954168D1*
X3502571Y940771D2*
Y913976D1*
X3539860Y935023D2*
X3536013Y938869D1*
X3532166Y940771D1*
X3526462D1*
X3522616Y938869D1*
X3518813Y935023D1*
X3516867Y929275D1*
Y925472D1*
X3518813Y919724D1*
X3522616Y915921D1*
X3526462Y913976D1*
X3532166D1*
X3536013Y915921D1*
X3539860Y919724D1*
X3575159Y940771D2*
Y913976D1*
Y935023D2*
X3571356Y938869D1*
X3567510Y940771D1*
X3561806D1*
X3557959Y938869D1*
X3554156Y935023D1*
X3552211Y929275D1*
Y925472D1*
X3554156Y919724D1*
X3557959Y915921D1*
X3561806Y913976D1*
X3567510D1*
X3571356Y915921D1*
X3575159Y919724D1*
X3589412Y917823D2*
X3587510Y915877D1*
X3589412Y913976D1*
X3591357Y915877D1*
X3589412Y917823D1*
X3626701Y935023D2*
X3622854Y938869D1*
X3619007Y940771D1*
X3613303D1*
X3609457Y938869D1*
X3605654Y935023D1*
X3603708Y929275D1*
Y925472D1*
X3605654Y919724D1*
X3609457Y915921D1*
X3613303Y913976D1*
X3619007D1*
X3622854Y915921D1*
X3626701Y919724D1*
X3662044Y935023D2*
X3658197Y938869D1*
X3654351Y940771D1*
X3648647D1*
X3644800Y938869D1*
X3640997Y935023D1*
X3639052Y929275D1*
Y925472D1*
X3640997Y919724D1*
X3644800Y915921D1*
X3648647Y913976D1*
X3654351D1*
X3658197Y915921D1*
X3662044Y919724D1*
X2833884Y899754D2*
D48*
X2865387D1*
X2848209Y876806D1*
X2856831D1*
X2862535Y873954D1*
X2865387Y871102D1*
X2868305Y862480D1*
Y856776D1*
X2865387Y848154D1*
X2859683Y842384D1*
X2851061Y839532D1*
X2842439D1*
X2833884Y842384D1*
X2831032Y845302D1*
X2828113Y851006D1*
X3844333Y852032D2*
Y912254D1*
X3815615Y872128D1*
X3858659D1*
X771497Y1087897D2*
D47*
X770071Y1090749D1*
X767186Y1093634D1*
X764334Y1095060D1*
X758597D1*
X755712Y1093634D1*
X752860Y1090749D1*
X751401Y1087897D1*
X749975Y1083586D1*
Y1076390D1*
X751401Y1072112D1*
X752860Y1069227D1*
X755712Y1066375D1*
X758597Y1064916D1*
X764334D1*
X767186Y1066375D1*
X770071Y1069227D1*
X771497Y1072112D1*
X802282Y1087897D2*
X800856Y1090749D1*
X797971Y1093634D1*
X795119Y1095060D1*
X789382D1*
X786497Y1093634D1*
X783645Y1090749D1*
X782186Y1087897D1*
X780760Y1083586D1*
Y1076390D1*
X782186Y1072112D1*
X783645Y1069227D1*
X786497Y1066375D1*
X789382Y1064916D1*
X795119D1*
X797971Y1066375D1*
X800856Y1069227D1*
X802282Y1072112D1*
X840706Y1095060D2*
Y1064916D1*
X853639D1*
X857950Y1066375D1*
X859376Y1067801D1*
X860802Y1070653D1*
Y1074964D1*
X859376Y1077849D1*
X857950Y1079275D1*
X853639Y1080701D1*
X857950Y1082160D1*
X859376Y1083586D1*
X860802Y1086438D1*
Y1089323D1*
X859376Y1092175D1*
X857950Y1093634D1*
X853639Y1095060D1*
X840706D1*
Y1080701D2*
X853639D1*
X870066Y1095060D2*
X881540Y1080701D1*
Y1064916D1*
X893014Y1095060D2*
X881540Y1080701D1*
X902277Y1079971D2*
X918858D1*
X948218Y1090749D2*
X945366Y1093634D1*
X941055Y1095060D1*
X935318D1*
X931007Y1093634D1*
X928122Y1090749D1*
Y1087897D1*
X929581Y1085012D1*
X931007Y1083586D1*
X933859Y1082160D1*
X942481Y1079275D1*
X945366Y1077849D1*
X946792Y1076390D1*
X948218Y1073538D1*
Y1069227D1*
X945366Y1066375D1*
X941055Y1064916D1*
X935318D1*
X931007Y1066375D1*
X928122Y1069227D1*
X980462Y1064916D2*
X968955Y1095060D1*
X957481Y1064916D1*
X961792Y1074964D2*
X976151D1*
X1033245Y1064916D2*
Y1095027D1*
X1018886Y1074964D1*
X1040408D1*
X1051098Y1067801D2*
X1049672Y1066342D1*
X1051098Y1064916D1*
X1052557Y1066342D1*
X1051098Y1067801D1*
X1070443Y1095027D2*
X1066132Y1093601D1*
X1063247Y1089290D1*
X1061821Y1082127D1*
Y1077816D1*
X1063247Y1070653D1*
X1066132Y1066342D1*
X1070443Y1064916D1*
X1073295D1*
X1077606Y1066342D1*
X1080457Y1070653D1*
X1081917Y1077816D1*
Y1082127D1*
X1080457Y1089290D1*
X1077606Y1093601D1*
X1073295Y1095027D1*
X1070443D1*
X1080457Y1089290D2*
X1063247Y1070653D1*
X2018084Y545604D2*
D50*
Y1268264D1*
X1673467Y786756D1*
X2189994D1*
X2154716Y1269060D2*
Y545604D1*
X2465110D1*
X2568575Y580623D1*
X2602798Y614846D1*
X2637021Y683291D1*
Y786756D1*
X2602798Y855998D1*
X2568575Y890220D1*
X2465110Y924443D1*
X2568575Y959462D1*
X2602798Y993685D1*
X2637021Y1062131D1*
Y1131372D1*
X2602798Y1199818D1*
X2568575Y1234837D1*
X2465110Y1269060D1*
X2154716D1*
Y924443D2*
X2465110D1*
X2245320Y1174454D2*
D49*
X2256816Y1147660D1*
X2268268Y1174454D1*
X2280619Y1180158D2*
X2284466Y1182104D1*
X2290214Y1187807D1*
Y1147660D1*
X2304467Y1151506D2*
X2302566Y1149561D1*
X2304467Y1147660D1*
X2306412Y1149561D1*
X2304467Y1151506D1*
X2330260Y1187807D2*
X2324512Y1185906D1*
X2320665Y1180158D1*
X2318764Y1170608D1*
Y1164860D1*
X2320665Y1155309D1*
X2324512Y1149561D1*
X2330260Y1147660D1*
X2334062D1*
X2339810Y1149561D1*
X2343613Y1155309D1*
X2345558Y1164860D1*
Y1170608D1*
X2343613Y1180158D1*
X2339810Y1185906D1*
X2334062Y1187807D1*
X2330260D1*
X2343613Y1180158D2*
X2320665Y1155309D1*
X3090126Y664787D2*
D51*
X3082521Y679997D1*
X3059529Y687603D1*
X3044319D1*
X3021326Y679997D1*
X3005939Y657005D1*
X2998334Y618803D1*
Y580601D1*
X3005939Y550004D1*
X3021326Y534617D1*
X3044319Y527011D1*
X3051924D1*
X3074739Y534617D1*
X3090126Y550004D1*
X3097731Y572996D1*
Y580601D1*
X3090126Y603593D1*
X3074739Y618803D1*
X3051924Y626408D1*
X3044319D1*
X3021326Y618803D1*
X3005939Y603593D1*
X2998334Y580601D1*
X3147137Y611198D2*
X3215936D1*
X3238928Y618980D1*
X3246710Y626585D1*
X3254315Y641795D1*
Y657182D1*
X3246710Y672392D1*
X3238928Y680174D1*
X3215936Y687779D1*
X3147137D1*
Y527011D1*
X3200726Y611198D2*
X3254315Y527011D1*
X2732449Y999059D2*
D52*
Y556947D1*
X2879820D1*
X2943048Y578347D1*
X2985363Y620175D1*
X3006277Y662489D1*
X3027191Y725231D1*
Y830774D1*
X3006277Y894002D1*
X2985363Y935830D1*
X2943048Y978145D1*
X2879820Y999059D1*
X2732449D1*
X2212489Y677946D2*
D48*
Y634902D1*
X2215341Y626280D1*
X2221111Y620576D1*
X2229733Y617658D1*
X2235437D1*
X2244059Y620576D1*
X2249829Y626280D1*
X2252681Y634902D1*
Y677946D1*
X2291304D2*
Y617658D1*
X2271208Y677946D2*
X2311400D1*
X2350023D2*
Y617658D1*
X2329927Y677946D2*
X2370119D1*
X2405890D2*
X2400120Y675094D1*
X2394416Y669324D1*
X2391498Y663620D1*
X2388646Y654998D1*
Y640606D1*
X2391498Y632050D1*
X2394416Y626280D1*
X2400120Y620576D1*
X2405890Y617658D1*
X2417364D1*
X2423068Y620576D1*
X2428838Y626280D1*
X2431690Y632050D1*
X2434542Y640606D1*
Y654998D1*
X2431690Y663620D1*
X2428838Y669324D1*
X2423068Y675094D1*
X2417364Y677946D1*
X2405890D1*
X2493261D2*
Y617658D1*
X2453069Y677946D1*
Y617658D1*
X1856032Y897928D2*
Y900780D1*
X1858884Y906550D1*
X1861735Y909402D1*
X1867506Y912254D1*
X1878980D1*
X1884683Y909402D1*
X1887535Y906550D1*
X1890453Y900780D1*
Y895076D1*
X1887535Y889306D1*
X1881831Y880750D1*
X1853113Y852032D1*
X1893305D1*
M02*
